<?xml version="1.0" encoding="UTF-8"?>
<svg width="83px" height="75px" viewBox="0 0 83 75" version="1.1" xmlns="http://www.w3.org/2000/svg" xmlns:xlink="http://www.w3.org/1999/xlink">
    <!-- Generator: Sketch 51.3 (57544) - http://www.bohemiancoding.com/sketch -->
    <title>Legal Advice / convo</title>
    <desc>Created with Sketch.</desc>
    <defs></defs>
    <g id="icons" stroke="none" stroke-width="1" fill="none" fill-rule="evenodd">
        <g id="Legal-Advice-/-convo" fill="#999999">
            <g transform="translate(0.959459, 0.000000)" id="Shape-Copy-2">
                <path d="M68.9189189,65.7101351 L68.9189189,72.972973 C68.9189189,75.2108108 67.9094595,75.5189189 66.6668919,73.6560811 L62.8398649,67.9317568 C60.2837838,68.5662162 57.5614865,68.9189189 54.7297297,68.9189189 C41.9533784,68.9189189 31.3054054,61.9216216 28.8952703,52.6398649 C29.4,52.6581081 29.8966216,52.7027027 30.4054054,52.7027027 C32.7527027,52.7027027 35.0432432,52.5060811 37.2567568,52.1371622 C39.5087838,57.1540541 46.4736486,60.8108108 54.7297297,60.8108108 C64.8060811,60.8108108 72.972973,55.3662162 72.972973,48.6486486 C72.972973,43.4168919 68.0087838,38.9695946 61.0560811,37.2527027 C62.5114865,34.9195946 63.5939189,32.4081081 64.2202703,29.7547297 C74.0756757,32.6858108 81.0810811,40.0297297 81.0810811,48.6486486 C81.0810811,55.8202703 76.2263514,62.1081081 68.9189189,65.7101351 Z M30.4054054,48.6486486 C28.7695946,48.6486486 27.1763514,48.5168919 25.6114865,48.3162162 L18.6527027,57.5695946 C17.3067568,59.3594595 16.2162162,58.9945946 16.2162162,56.7567568 L16.2162162,45.8310811 C6.57567568,41.7506757 0,33.6567568 0,24.3243243 C0,10.8912162 13.6135135,-7.10542736e-15 30.4054054,-7.10542736e-15 C47.1972973,-7.10542736e-15 60.8108108,10.8912162 60.8108108,24.3243243 C60.8108108,37.7574324 47.1972973,48.6486486 30.4054054,48.6486486 Z M30.4054054,8.10810811 C18.0912162,8.10810811 8.10810811,15.3689189 8.10810811,24.3243243 C8.10810811,33.2797297 18.0912162,40.5405405 30.4054054,40.5405405 C42.7195946,40.5405405 52.7027027,33.2797297 52.7027027,24.3243243 C52.7027027,15.3689189 42.7195946,8.10810811 30.4054054,8.10810811 Z" fill-rule="nonzero"></path>
            </g>
        </g>
    </g>
</svg>