<?xml version="1.0" encoding="UTF-8"?>
<svg width="76px" height="75px" viewBox="0 0 76 75" version="1.1" xmlns="http://www.w3.org/2000/svg" xmlns:xlink="http://www.w3.org/1999/xlink">
    <!-- Generator: Sketch 51.3 (57544) - http://www.bohemiancoding.com/sketch -->
    <title>Legal Advice / img-consult-incomplete</title>
    <desc>Created with Sketch.</desc>
    <defs></defs>
    <g id="icons" stroke="none" stroke-width="1" fill="none" fill-rule="evenodd">
        <g id="Legal-Advice-/-img-consult-incomplete" fill="#999999">
            <g transform="translate(0.959459, 0.000000)" id="Shape">
                <path d="M69.14625,50.93175 L49.998,43.752 L37.5015,68.74575 L25.00125,43.752 L5.853,50.93175 C2.34375,52.245 0.0015,55.62075 0.0015,59.373 L0.0015,75 L74.9985,75 L74.9985,59.373 C74.9985,55.62075 72.65925,52.245 69.14625,50.93175 Z M23.7765,30.74925 C26.6835,37.74525 29.49225,43.752 37.5015,43.752 C45.51,43.752 48.3195,37.7445 51.2295,30.74925 C54.33675,28.99275 56.25,26.649 56.25,24.06 C56.25,22.40175 55.4535,20.83875 54.07425,19.4595 C54.1335,18.72975 54.1665,18.01875 54.1665,17.328 C54.1665,7.14825 47.2845,0 37.5015,0 C27.717,0 20.8335,7.14825 20.8335,17.328 C20.8335,18.018 20.87175,18.72975 20.93025,19.4595 C19.54275,20.83875 18.7515,22.40175 18.7515,24.06 C18.7515,26.649 20.66325,28.99275 23.7765,30.74925 Z" fill-rule="nonzero"></path>
                <polygon fill-rule="nonzero" points="43.09275 68.92725 31.473 69.2025 35.0505 53.19225 33.2685 50.04825 36.57225 46.1505 38.26725 46.1505 41.6445 50.076 39.6165 53.19225"></polygon>
            </g>
        </g>
    </g>
</svg>