<?xml version="1.0" encoding="UTF-8"?>
<svg width="76px" height="75px" viewBox="0 0 76 75" version="1.1" xmlns="http://www.w3.org/2000/svg" xmlns:xlink="http://www.w3.org/1999/xlink">
    <!-- Generator: Sketch 51.3 (57544) - http://www.bohemiancoding.com/sketch -->
    <title>Legal Advice / img-qa-new</title>
    <desc>Created with Sketch.</desc>
    <defs></defs>
    <g id="icons" stroke="none" stroke-width="1" fill="none" fill-rule="evenodd">
        <g id="Legal-Advice-/-img-qa-new">
            <g transform="translate(0.959459, 0.000000)">
                <path d="M54.6928711,69.1144054 L68.5095362,74.0958028 C72.0226827,75.2287837 75.3032865,71.8267508 74.0408269,68.3563453 L68.7053292,56.7798034 C72.3484021,50.927836 74.3105504,44.1816309 74.3105504,37.1552753 C74.3105504,16.6310972 57.679683,0 37.1566514,0 C16.631327,0 0,16.6306377 0,37.1552753 C0,57.6742914 16.6339623,74.3098624 37.1566514,74.3098624 C43.9138787,74.3098624 49.00084,72.4983827 54.6928711,69.1144054 Z M68.8059633,37.1552753 C68.8059633,45.3164063 66.3864681,49.6343222 63.2822855,54.6206554 L62.5743441,55.7578409 L63.0325064,57.016594 L68.8059633,68.8052753 L56.2904638,63.3791972 L55.1075383,62.9976781 L54.0391581,63.6328423 C49.1921416,66.5144488 45.0410156,68.8052753 37.1566513,68.8052753 C19.674181,68.8052753 5.50458715,54.6343111 5.50458715,37.1552753 C5.50458715,19.6707883 19.6713754,5.50458716 37.1566513,5.50458716 C54.6395665,5.50458716 68.8059633,19.6711798 68.8059633,37.1552753 Z" id="Path" fill="#979797" fill-rule="nonzero"></path>
                <g id="Layer_1" transform="translate(19.266055, 13.761468)" fill="#999999" fill-rule="nonzero">
                    <path d="M23.4784404,46.331422 L12.0103211,46.331422 L12.0103211,34.8577981 L23.4784404,34.8577981 L23.4784404,46.331422 Z M34.2295871,16.5832569 C33.3956422,18.3942661 32.0793578,20.1688073 29.2073395,21.9584863 C27.7438073,22.875688 25.3018348,24.2704129 24.1919725,25.5433486 C23.5623853,26.2637614 23.4763762,27.6364679 23.4763762,29.1268348 L12.0103211,29.1268348 C12.0103211,29.1268348 12.0103211,26.7350917 12.7279816,24.3474771 C13.509633,21.7300459 16.6809633,18.5993119 19.837844,16.191055 C21.5181193,14.9305045 22.3610092,13.7738532 22.3610092,12.721789 C22.3610092,11.6697247 22.021789,10.8550459 21.3419725,10.275 C20.6676605,9.69082567 19.6479358,9.40045875 18.2800459,9.40045875 C16.8055045,9.40045875 15.5869266,9.84357795 14.6215596,10.7449541 C13.6568807,11.6463303 13.0362385,13.2116972 12.7665137,15.4451835 L0.686009174,14.0690367 C1.10091743,9.98188072 2.71582569,6.68463303 5.5266055,4.19518348 C8.34220185,1.70435779 12.6529816,0.455504588 18.4603211,0.455504588 C22.9885321,0.455504588 26.6428899,1.33073395 29.4240826,3.06123853 C33.2002294,5.41238532 35.0917431,8.54793577 35.0917431,12.4644496 C35.0924312,14.0896789 34.9630734,14.9862385 34.2295871,16.5832569 Z" id="Shape"></path>
                </g>
            </g>
        </g>
    </g>
</svg>