<?xml version="1.0" encoding="UTF-8"?>
<svg width="98px" height="75px" viewBox="0 0 98 75" version="1.1" xmlns="http://www.w3.org/2000/svg" xmlns:xlink="http://www.w3.org/1999/xlink">
    <!-- Generator: Sketch 51.3 (57544) - http://www.bohemiancoding.com/sketch -->
    <title>Legal Advice / img-ask-lawyer</title>
    <desc>Created with Sketch.</desc>
    <defs></defs>
    <g id="icons" stroke="none" stroke-width="1" fill="none" fill-rule="evenodd">
        <g id="Legal-Advice-/-img-ask-lawyer" fill="#999999">
            <g transform="translate(0.959459, 0.000000)">
                <path d="M0,19.9826923 C0,30.5778846 8.59038462,39.1692308 19.1865385,39.1692308 C22.7596154,39.1692308 26.1019231,38.1884615 28.9673077,36.4865385 L37.1451923,39.1221154 C37.8865385,39.3615385 38.5817308,38.6413462 38.3144231,37.9067308 L35.4788462,30.1134615 C37.3105769,27.1730769 38.3740385,23.7028846 38.3740385,19.9826923 C38.3740385,9.38557692 29.7826923,0.796153846 19.1875,0.796153846 C8.59038462,0.796153846 0,9.38653846 0,19.9826923 Z M22.3019231,32.7740385 L15.9086538,32.7740385 L15.9086538,26.3778846 L22.3019231,26.3778846 L22.3019231,32.7740385 Z M28.2990385,16.1855769 C27.8346154,17.1932692 27.1,18.1836538 25.5,19.1826923 C24.6817308,19.6942308 23.3211538,20.4740385 22.7028846,21.1817308 C22.3509615,21.5846154 22.3019231,22.3490385 22.3019231,23.1798077 L15.9096154,23.1798077 C15.9096154,23.1798077 15.9096154,21.8461538 16.3076923,20.5144231 C16.7461538,19.0567308 18.5134615,17.3086538 20.2721154,15.9663462 C21.2115385,15.2644231 21.6798077,14.6192308 21.6798077,14.0317308 C21.6798077,13.4461538 21.4913462,12.9923077 21.1134615,12.6663462 C20.7365385,12.3403846 20.1692308,12.1778846 19.4038462,12.1778846 C18.5826923,12.1778846 17.9019231,12.4288462 17.3644231,12.9288462 C16.825,13.4307692 16.4817308,14.3048077 16.3307692,15.5509615 L9.59519231,14.7836538 C9.82596154,12.5038462 10.7269231,10.6692308 12.2951923,9.27692308 C13.8644231,7.88653846 16.2692308,7.19134615 19.5096154,7.19134615 C22.0336538,7.19134615 24.0711538,7.67788462 25.6201923,8.64519231 C27.7259615,9.95576923 28.7798077,11.7048077 28.7798077,13.8884615 C28.7788462,14.7942308 28.7096154,15.2923077 28.2990385,16.1855769 Z" id="Shape" fill-rule="nonzero"></path>
                <g id="Group" transform="translate(22.115385, 0.000000)" fill-rule="nonzero">
                    <path d="M68.3173077,50.6798077 L49.6028846,43.6615385 L37.3875,68.0903846 L25.1721154,43.6615385 L6.45673077,50.6798077 C3.02596154,51.9625 0.7375,55.2625 0.7375,58.9298077 L0.7375,74.2038462 L74.0384615,74.2038462 L74.0384615,58.9298077 C74.0384615,55.2625 71.7509615,51.9625 68.3173077,50.6798077 Z M23.9730769,30.9519231 C26.8144231,37.7884615 29.5615385,43.6615385 37.3875,43.6615385 C45.2134615,43.6615385 47.9615385,37.7894231 50.8067308,30.9519231 C53.8432692,29.2346154 55.7125,26.9451923 55.7125,24.4144231 C55.7125,22.7923077 54.9355769,21.2653846 53.5875,19.9173077 C53.6451923,19.2048077 53.6769231,18.5076923 53.6769231,17.8346154 C53.6769231,7.88365385 46.9519231,0.898076923 37.3884615,0.898076923 C27.8259615,0.898076923 21.1,7.88461538 21.1,17.8346154 C21.1,18.5076923 21.1355769,19.2048077 21.1932692,19.9173077 C19.8375,21.2644231 19.0634615,22.7923077 19.0634615,24.4144231 C19.0615385,26.9451923 20.9317308,29.2346154 23.9730769,30.9519231 Z" id="Shape"></path>
                    <polygon id="Shape" points="42.8528846 68.2692308 31.4971154 68.5355769 34.9942308 52.8884615 33.2519231 49.8163462 36.4807692 46.0057692 38.1375 46.0057692 41.4384615 49.8423077 39.4548077 52.8884615"></polygon>
                </g>
            </g>
        </g>
    </g>
</svg>