<?xml version="1.0" encoding="UTF-8"?>
<svg width="75px" height="54px" viewBox="0 0 75 54" version="1.1" xmlns="http://www.w3.org/2000/svg" xmlns:xlink="http://www.w3.org/1999/xlink">
    <!-- Generator: Sketch 51.3 (57544) - http://www.bohemiancoding.com/sketch -->
    <title>Legal Categories / credit_card</title>
    <desc>Created with Sketch.</desc>
    <defs></defs>
    <g id="icons" stroke="none" stroke-width="1" fill="none" fill-rule="evenodd">
        <g id="Legal-Categories-/-credit_card" fill="#333">
            <g id="Shape-Copy-250">
                <path d="M67.8571429,54 L7.14285714,54 C3.19821429,54 0,50.7762 0,46.8 L0,7.2 C0,3.2238 3.19821429,0 7.14285714,0 L67.8571429,0 C71.8017857,0 75,3.2238 75,7.2 L75,46.8 C75,50.7762 71.8017857,54 67.8571429,54 Z M67.8571429,7.2 L7.14285714,7.2 L7.14285714,14.4 L67.8571429,14.4 L67.8571429,7.2 Z M67.8571429,25.2 L7.14285714,25.2 L7.14285714,46.8 L67.8571429,46.8 L67.8571429,25.2 Z M17.8571429,28.8 C21.8017857,28.8 25,32.0238 25,36 C25,39.9762 21.8017857,43.2 17.8571429,43.2 C13.9125,43.2 10.7142857,39.9762 10.7142857,36 C10.7142857,32.0238 13.9125,28.8 17.8571429,28.8 Z" fill-rule="nonzero"></path>
            </g>
        </g>
    </g>
</svg>