<?xml version="1.0" encoding="UTF-8"?>
<svg width="64px" height="75px" viewBox="0 0 64 75" version="1.1" xmlns="http://www.w3.org/2000/svg" xmlns:xlink="http://www.w3.org/1999/xlink">
    <!-- Generator: Sketch 51.3 (57544) - http://www.bohemiancoding.com/sketch -->
    <title>Miscellaneous / compliantbell</title>
    <desc>Created with Sketch.</desc>
    <defs></defs>
    <g id="icons" stroke="none" stroke-width="1" fill="none" fill-rule="evenodd">
        <g id="Miscellaneous-/-compliantbell" fill="#999999">
            <g id="Shape-Copy-19">
                <path d="M60.4444444,67.6375405 L39.1111111,67.6375405 C39.1111111,71.5694175 35.9271111,74.7572818 32,74.7572818 C28.0728889,74.7572818 24.8888889,71.5694175 24.8888889,67.6375405 L3.55555556,67.6375405 C1.59288889,67.6375405 0,66.0427185 0,64.0776699 C0,62.1126213 1.59288889,60.5177993 3.55555556,60.5177993 L3.55555556,28.4789644 C3.55555556,12.7514563 16.2915556,0 32,0 C47.7084444,0 60.4444444,12.7514563 60.4444444,28.4789644 L60.4444444,60.5177993 C62.4071111,60.5177993 64,62.1126213 64,64.0776699 C64,66.0427185 62.4088889,67.6375405 60.4444444,67.6375405 Z M53.3333333,28.4789644 C53.3333333,16.6833333 43.7813333,7.1197411 32,7.1197411 C20.2186667,7.1197411 10.6666667,16.6833333 10.6666667,28.4789644 L10.6666667,60.5177993 L53.3333333,60.5177993 L53.3333333,28.4789644 Z" fill-rule="nonzero"></path>
            </g>
        </g>
    </g>
</svg>