<?xml version="1.0" encoding="UTF-8"?>
<svg width="96px" height="75px" viewBox="0 0 96 75" version="1.1" xmlns="http://www.w3.org/2000/svg" xmlns:xlink="http://www.w3.org/1999/xlink">
    <!-- Generator: Sketch 51.3 (57544) - http://www.bohemiancoding.com/sketch -->
    <title>Miscellaneous / img-help-us</title>
    <desc>Created with Sketch.</desc>
    <defs></defs>
    <g id="icons" stroke="none" stroke-width="1" fill="none" fill-rule="evenodd">
        <g id="Miscellaneous-/-img-help-us" fill="#9B9B9B">
            <g id="Shape">
                <path d="M92.11776,4.50384615 L92.11776,55.7461538 C92.11776,55.9884615 91.90464,56.1846154 91.63872,56.1846154 L38.88768,56.1846154 L38.18112,56.1846154 L37.5552,56.5076923 L17.7312,67.1605769 L21.12288,61.3980769 L24.22944,56.1846154 L17.55168,56.1846154 L4.36224,56.1846154 C4.09824,56.1846154 3.88608,55.9865385 3.88608,55.7461538 L3.88608,4.50384615 C3.88608,4.2625 4.10208,4.06538462 4.36224,4.06538462 L91.63872,4.06538462 C91.89888,4.06538462 92.11776,4.26634615 92.11776,4.50384615 Z M92.59872,0.170192308 L3.40224,0.170192308 C1.51968,0.170192308 0,1.67884615 0,3.54134615 L0,56.7067308 C0,58.5692308 1.51968,60.0769231 3.40224,60.0769231 L17.55168,60.0769231 L10.10976,74.8298077 L38.88768,60.0769231 L92.59872,60.0769231 C94.4736,60.0769231 96,58.5692308 96,56.7067308 L96,3.54134615 C96,1.67980769 94.4736,0.170192308 92.59872,0.170192308 Z" fill-rule="nonzero"></path>
                <path d="M75.9216,25.1971154 C75.38496,24.7355769 74.5392,24.4990385 73.39584,24.4990385 L71.49024,24.4990385 L71.49024,30.3173077 L72.86784,30.3173077 C74.16288,30.3173077 75.12576,30.0605769 75.76704,29.5576923 C76.40736,29.0528846 76.72512,28.3182692 76.72512,27.35 C76.72416,26.3778846 76.45056,25.6596154 75.9216,25.1971154 Z M33.20064,40.6817308 L29.0256,40.6817308 L29.0256,32.2298077 L21.18528,32.2298077 L21.18528,40.6817308 L16.992,40.6817308 L16.992,21.0971154 L21.18624,21.0971154 L21.18624,28.7730769 L29.02368,28.7730769 L29.02368,21.0971154 L33.19776,21.0971154 L33.19776,40.6817308 L33.20064,40.6817308 Z M48.90048,24.4990385 L41.69856,24.4990385 L41.69856,28.7980769 L48.39936,28.7980769 L48.39936,32.2009615 L41.69856,32.2009615 L41.69856,37.2519231 L48.90048,37.2519231 L48.90048,40.6817308 L37.50144,40.6817308 L37.50144,21.0971154 L48.90144,21.0971154 L48.90144,24.4990385 L48.90048,24.4990385 Z M64.54944,40.6817308 L52.32864,40.6817308 L52.32864,21.0971154 L56.52096,21.0971154 L56.52096,37.2548077 L64.54944,37.2548077 L64.54944,40.6817308 Z M78.96384,32.0432692 C77.62464,33.1625 75.74016,33.7182692 73.2864,33.7182692 L71.48448,33.7182692 L71.48448,40.6817308 L67.29216,40.6817308 L67.29216,21.0971154 L73.60992,21.0971154 C76.008,21.0971154 77.82912,21.6048077 79.08384,22.6278846 C80.33664,23.6480769 80.95296,25.175 80.95296,27.2028846 C80.95296,29.3134615 80.29152,30.9269231 78.96384,32.0432692 Z" fill-rule="nonzero"></path>
            </g>
        </g>
    </g>
</svg>