<?xml version="1.0" encoding="UTF-8"?>
<svg width="87px" height="75px" viewBox="0 0 87 75" version="1.1" xmlns="http://www.w3.org/2000/svg" xmlns:xlink="http://www.w3.org/1999/xlink">
    <!-- Generator: Sketch 51.3 (57544) - http://www.bohemiancoding.com/sketch -->
    <title>Miscellaneous / img-legalchecklist</title>
    <desc>Created with Sketch.</desc>
    <defs></defs>
    <g id="icons" stroke="none" stroke-width="1" fill="none" fill-rule="evenodd">
        <g id="Miscellaneous-/-img-legalchecklist" fill="#999999">
            <g id="Shape">
                <path d="M73.66029,42.6392442 L73.66029,59.3162791 C73.66029,63.4770349 72.18651,67.0360465 69.23895,69.9872093 C66.28965,72.9427326 62.7444,74.419186 58.5945,74.419186 L15.06666,74.419186 C10.91589,74.419186 7.36629,72.9427326 4.41873,69.9872093 C1.4703,67.0334302 0,63.4752907 0,59.3162791 L0,15.6837209 C0,11.5229651 1.4703,7.96656977 4.41873,5.0119186 C7.36716,2.05813953 10.91589,0.580813953 15.06666,0.580813953 L58.5945,0.580813953 C60.79125,0.580813953 62.83053,1.01773256 64.71582,1.89156977 C65.23869,2.13662791 65.55276,2.53866279 65.65629,3.09680233 C65.75982,3.69244186 65.60409,4.19825581 65.18562,4.61860465 L62.62347,7.18866279 C62.27721,7.5375 61.8744,7.71366279 61.42026,7.71366279 C61.31673,7.71366279 61.15752,7.67790698 60.95133,7.60813953 C60.14484,7.39883721 59.36097,7.29331395 58.5945,7.29331395 L15.06666,7.29331395 C12.76464,7.29331395 10.79409,8.11656977 9.15501,9.75872093 C7.51245,11.4017442 6.69552,13.3761628 6.69552,15.684593 L6.69552,59.3162791 C6.69552,61.6238372 7.51245,63.5982558 9.15501,65.2421512 C10.79409,66.8860465 12.76464,67.7049419 15.06666,67.7049419 L58.5945,67.7049419 C60.89652,67.7049419 62.86707,66.8860465 64.50615,65.2421512 C66.14436,63.5982558 66.96651,61.6247093 66.96651,59.3162791 L66.96651,45.994186 C66.96651,45.5398256 67.12137,45.1561047 67.43544,44.8412791 L70.7832,41.4854651 C71.1312,41.1348837 71.53401,40.9587209 71.98728,40.9587209 C72.19695,40.9587209 72.40749,41.0127907 72.61629,41.119186 C73.31316,41.3991279 73.66029,41.9049419 73.66029,42.6392442 Z M85.74633,16.9944767 L43.1607,59.6825581 C42.32202,60.5223837 41.33022,60.9427326 40.17921,60.9427326 C39.02559,60.9427326 38.03379,60.5223837 37.19424,59.6825581 L14.69952,37.1328488 C13.86345,36.2930233 13.44585,35.2979651 13.44585,34.144186 C13.44585,32.9895349 13.86345,31.9936047 14.69952,31.1537791 L20.45544,25.3857558 C21.29151,24.5459302 22.28592,24.1264535 23.43693,24.1264535 C24.58794,24.1264535 25.58322,24.5459302 26.41929,25.3857558 L40.17921,39.1770349 L74.02569,5.24738372 C74.86524,4.40930233 75.85617,3.9880814 77.00892,3.9880814 C78.16167,3.9880814 79.15347,4.40843023 79.99302,5.24738372 L85.74633,11.0171512 C86.58327,11.8552326 87,12.852907 87,14.005814 C87,15.159593 86.58327,16.1563953 85.74633,16.9944767 Z" fill-rule="nonzero"></path>
            </g>
        </g>
    </g>
</svg>