<?xml version="1.0" encoding="UTF-8"?>
<svg width="75px" height="75px" viewBox="0 0 75 75" version="1.1" xmlns="http://www.w3.org/2000/svg" xmlns:xlink="http://www.w3.org/1999/xlink">
    <!-- Generator: Sketch 51.3 (57544) - http://www.bohemiancoding.com/sketch -->
    <title>Miscellaneous / img-nav-explore</title>
    <desc>Created with Sketch.</desc>
    <defs></defs>
    <g id="icons" stroke="none" stroke-width="1" fill="none" fill-rule="evenodd">
        <g id="Miscellaneous-/-img-nav-explore" fill="#999999">
            <g id="Shape">
                <path d="M56.1067709,69.4270834 C38.312872,79.7005211 15.5598959,73.6049107 5.28645834,55.8110119 C-4.98511905,38.0171131 1.11235119,15.2641369 18.9043898,4.99069941 C36.6982887,-5.28087798 59.4512648,0.814732141 69.7247023,18.6086309 C79.9981398,36.4006696 73.9006696,59.1536459 56.1067709,69.4270834 Z M63.28125,22.3270089 C55.0613839,8.09337797 36.8601191,3.21614584 22.624628,11.4341518 C8.38913687,19.6521577 3.51376488,37.8552827 11.7317709,52.0889137 C19.9497768,66.3244048 38.1529018,71.2016369 52.3865327,62.9817709 C66.6220238,54.7637648 71.4992559,36.5625 63.28125,22.3270089 Z M37.0126488,55.6045387 C35.1302084,59.2578125 33.0487352,58.9341518 32.3623512,54.8828125 L30.5561756,44.2224702 L19.8958334,42.4162946 C15.8444941,41.7299107 15.5208334,39.6484375 19.1741071,37.765997 L49.3508184,22.2209821 C53.0040923,20.3385416 54.4401041,21.7745536 52.5576637,25.4278273 L37.0126488,55.6045387 Z M28.3482143,38.547247 L35.6994048,39.0792411 L36.2295387,46.4304316 L44.1387648,30.6398809 L28.3482143,38.547247 Z" fill-rule="nonzero"></path>
            </g>
        </g>
    </g>
</svg>