<?xml version="1.0" encoding="UTF-8"?>
<svg width="75px" height="75px" viewBox="0 0 75 75" version="1.1" xmlns="http://www.w3.org/2000/svg" xmlns:xlink="http://www.w3.org/1999/xlink">
    <!-- Generator: Sketch 51.3 (57544) - http://www.bohemiancoding.com/sketch -->
    <title>Miscellaneous / img-error-message</title>
    <desc>Created with Sketch.</desc>
    <defs></defs>
    <g id="icons" stroke="none" stroke-width="1" fill="none" fill-rule="evenodd">
        <g id="Miscellaneous-/-img-error-message" fill="#999999">
            <g id="Shape">
                <path d="M69.9705,18.67725 C73.31925,24.42375 75,30.69825 75,37.5 C75,44.304 73.31925,50.5785 69.9705,56.3235 C66.615,62.07 62.06475,66.615 56.3235,69.96975 C50.577,73.3215 44.30325,74.99925 37.49775,74.99925 C30.69225,74.99925 24.4215,73.3215 18.675,69.96975 C12.9315,66.615 8.38275,62.07 5.0265,56.3235 C1.677,50.5785 0,44.304 0,37.5 C0,30.69825 1.677,24.42375 5.0265,18.67725 C8.38275,12.93225 12.9315,8.38425 18.675,5.03025 C24.4215,1.6785 30.693,0.00075 37.49775,0.00075 C44.3025,0.00075 50.57625,1.67775 56.3235,5.03025 C62.06475,8.38425 66.615,12.93225 69.9705,18.67725 Z M66.2595,49.6335 C67.92075,45.77625 68.74725,41.73375 68.74725,37.5 C68.74725,33.26625 67.91925,29.223 66.2595,25.3665 C64.59975,21.50775 62.376,18.189 59.595,15.40575 C56.80575,12.62325 53.49,10.401 49.62825,8.74125 C45.77625,7.08075 41.73075,6.2535 37.49775,6.2535 C33.26775,6.2535 29.223,7.08075 25.365,8.74125 C21.5085,10.401 18.18825,12.62325 15.405,15.40575 C12.62325,18.189 10.40025,21.50925 8.7405,25.3665 C7.07775,29.223 6.252,33.26625 6.252,37.5 C6.252,41.73375 7.07775,45.77625 8.7405,49.6335 C10.40025,53.49225 12.62325,56.811 15.405,59.59425 C18.18825,62.3775 21.5085,64.599 25.365,66.2595 C29.223,67.91925 33.26775,68.7495 37.49775,68.7495 C41.73075,68.7495 45.77625,67.91925 49.62825,66.2595 C53.49,64.599 56.80575,62.3775 59.595,59.59425 C62.376,56.811 64.59975,53.49 66.2595,49.6335 Z M29.41725,20.5815 C30.63825,21.80175 31.248,23.277 31.248,25.0005 C31.248,26.7285 30.639,28.1985 29.41725,29.41875 C28.19775,30.63975 26.724,31.25025 24.99975,31.25025 C23.274,31.25025 21.80175,30.63975 20.57925,29.41875 C19.35975,28.1985 18.75075,26.7285 18.75075,25.0005 C18.75075,23.277 19.35975,21.80175 20.57925,20.5815 C21.80175,19.3605 23.274,18.75 24.99975,18.75 C26.724,18.75 28.19775,19.3605 29.41725,20.5815 Z M55.37175,53.76 C55.6305,54.573 55.56375,55.368 55.176,56.12775 C54.78525,56.8935 54.1815,57.4065 53.3655,57.66525 C52.554,57.93 51.75525,57.86175 50.97375,57.47025 C50.196,57.0795 49.67475,56.46375 49.4115,55.614 C48.59925,53.01075 47.09475,50.9025 44.89725,49.2915 C42.69975,47.67975 40.2345,46.8735 37.49775,46.8735 C34.76325,46.8735 32.29875,47.67825 30.102,49.2915 C27.90375,50.901 26.3985,53.01075 25.587,55.614 C25.32525,56.46375 24.813,57.07875 24.048,57.47025 C23.28225,57.861 22.49025,57.9285 21.6795,57.66525 C20.8335,57.4065 20.2125,56.895 19.82175,56.12775 C19.434,55.3665 19.36725,54.573 19.62825,53.76 C20.83275,49.8195 23.07825,46.65075 26.364,44.23875 C29.65275,41.832 33.36375,40.62675 37.497,40.62675 C41.631,40.62675 45.3405,41.832 48.633,44.23875 C51.92025,46.64925 54.16575,49.8195 55.37175,53.76 Z M54.41775,20.5815 C55.641,21.80175 56.247,23.277 56.247,25.0005 C56.247,26.7285 55.63875,28.1985 54.41775,29.41875 C53.199,30.63975 51.7245,31.25025 50.00025,31.25025 C48.27075,31.25025 46.8015,30.63975 45.57975,29.41875 C44.3595,28.1985 43.7505,26.7285 43.7505,25.0005 C43.7505,23.277 44.3595,21.80175 45.57975,20.5815 C46.8015,19.3605 48.27075,18.75 50.00025,18.75 C51.7245,18.75 53.199,19.3605 54.41775,20.5815 Z" fill-rule="nonzero"></path>
            </g>
        </g>
    </g>
</svg>