<?xml version="1.0" encoding="UTF-8"?>
<svg width="75px" height="75px" viewBox="0 0 75 75" version="1.1" xmlns="http://www.w3.org/2000/svg" xmlns:xlink="http://www.w3.org/1999/xlink">
    <!-- Generator: Sketch 51.3 (57544) - http://www.bohemiancoding.com/sketch -->
    <title>Miscellaneous / img-settings</title>
    <desc>Created with Sketch.</desc>
    <defs></defs>
    <g id="icons" stroke="none" stroke-width="1" fill="none" fill-rule="evenodd">
        <g id="Miscellaneous-/-img-settings" fill="#999999">
            <g id="Shape">
                <path d="M68.476875,44.9025 C67.685625,48.225 66.375,51.3375 64.635,54.165 C66.89625,57.106875 66.710625,61.321875 64.018125,64.01625 C61.32375,66.710625 57.106875,66.894375 54.166875,64.633125 C51.339375,66.375 48.225,67.68375 44.9025,68.475 C44.41875,72.151875 41.308125,75 37.5,75 C33.691875,75 30.58125,72.151875 30.0975,68.476875 C26.775,67.685625 23.6625,66.375 20.835,64.635 C17.895,66.89625 13.678125,66.7125 10.98375,64.018125 C8.289375,61.32375 8.105625,57.10875 10.366875,54.166875 C8.625,51.3375 7.314375,48.225 6.523125,44.9025 C2.848125,44.41875 0,41.308125 0,37.5 C0,33.691875 2.848125,30.58125 6.523125,30.0975 C7.314375,26.775 8.625,23.6625 10.365,20.833125 C8.10375,17.893125 8.289375,13.678125 10.981875,10.98375 C13.67625,8.289375 17.893125,8.105625 20.833125,10.366875 C23.660625,8.625 26.773125,7.31625 30.095625,6.525 C30.58125,2.848125 33.691875,0 37.5,0 C41.308125,0 44.41875,2.848125 44.900625,6.523125 C48.225,7.31625 51.3375,8.625 54.165,10.366875 C57.105,8.105625 61.321875,8.29125 64.01625,10.98375 C66.710625,13.678125 66.894375,17.895 64.633125,20.835 C66.373125,23.6625 67.68375,26.776875 68.475,30.099375 C72.151875,30.58125 75,33.691875 75,37.5 C75,41.308125 72.151875,44.41875 68.476875,44.9025 Z M63.75,33.75 L61.56375,33.75 C60.95625,29.82375 59.409375,26.20875 57.163125,23.139375 L58.711875,21.590625 C60.17625,20.12625 60.17625,17.7525 58.711875,16.288125 C57.2475,14.82375 54.87375,14.82375 53.409375,16.288125 L51.85875,17.83875 C48.789375,15.594375 45.17625,14.05125 41.25,13.441875 L41.25,11.25 C41.25,9.18 39.57,7.5 37.5,7.5 C35.43,7.5 33.75,9.18 33.75,11.25 L33.75,13.441875 C29.82375,14.049375 26.20875,15.5925 23.139375,17.836875 L21.58875,16.28625 C20.124375,14.821875 17.750625,14.821875 16.284375,16.28625 C14.82,17.750625 14.82,20.124375 16.284375,21.58875 L17.833125,23.1375 C15.58875,26.20875 14.041875,29.82375 13.434375,33.75 L11.25,33.75 C9.18,33.75 7.5,35.43 7.5,37.5 C7.5,39.57 9.18,41.25 11.25,41.25 L13.434375,41.25 C14.041875,45.178125 15.58875,48.79125 17.835,51.860625 L16.28625,53.409375 C14.821875,54.87375 14.821875,57.2475 16.28625,58.711875 C17.750625,60.17625 20.124375,60.17625 21.590625,58.711875 L23.14125,57.16125 C26.210625,59.40375 29.82375,60.94875 33.751875,61.55625 L33.751875,63.75 C33.751875,65.82 35.431875,67.5 37.501875,67.5 C39.571875,67.5 41.251875,65.82 41.251875,63.75 L41.251875,61.558125 C45.178125,60.950625 48.79125,59.4075 51.860625,57.163125 L53.41125,58.71375 C54.875625,60.178125 57.249375,60.178125 58.71375,58.71375 C60.178125,57.249375 60.178125,54.875625 58.71375,53.41125 L57.165,51.8625 C59.41125,48.793125 60.95625,45.178125 61.565625,41.251875 L63.75,41.251875 C65.82,41.251875 67.5,39.571875 67.5,37.501875 C67.5,35.431875 65.82,33.75 63.75,33.75 Z M37.5,52.5 C29.21625,52.5 22.5,45.78375 22.5,37.5 C22.5,29.21625 29.21625,22.5 37.5,22.5 C45.78375,22.5 52.5,29.21625 52.5,37.5 C52.5,45.78375 45.78375,52.5 37.5,52.5 Z M37.5,30 C33.358125,30 30,33.358125 30,37.5 C30,41.641875 33.358125,45 37.5,45 C41.641875,45 45,41.641875 45,37.5 C45,33.358125 41.641875,30 37.5,30 Z" fill-rule="nonzero"></path>
            </g>
        </g>
    </g>
</svg>