<?xml version="1.0" encoding="UTF-8"?>
<svg width="75px" height="75px" viewBox="0 0 75 75" version="1.1" xmlns="http://www.w3.org/2000/svg" xmlns:xlink="http://www.w3.org/1999/xlink">
    <!-- Generator: Sketch 51.3 (57544) - http://www.bohemiancoding.com/sketch -->
    <title>Miscellaneous / img-alert-message</title>
    <desc>Created with Sketch.</desc>
    <defs></defs>
    <g id="icons" stroke="none" stroke-width="1" fill="none" fill-rule="evenodd">
        <g id="Miscellaneous-/-img-alert-message" fill="#999999">
            <g id="Shape">
                <path d="M37.5,0 C16.79175,0 0,16.7895 0,37.5 C0,58.2105 16.79175,75 37.5,75 C58.21275,75 75,58.2105 75,37.5 C75,16.7895 58.21275,0 37.5,0 Z M43.74975,13.125 L41.928,48.375 L33.21525,48.375 L31.39425,13.125 L43.74975,13.125 Z M42.1095,62.463 C41.01525,63.549 39.49275,64.089 37.53975,64.089 C35.54025,64.089 33.99225,63.5595 32.8965,62.49975 C31.8,61.44075 31.251,59.949 31.251,58.01625 C31.251,56.01675 31.788,54.50325 32.8605,53.478 C33.93225,52.45725 35.4945,51.94725 37.53825,51.94725 C39.516,51.94725 41.04675,52.467 42.12825,53.51775 C43.212,54.56475 43.75425,56.06475 43.75425,58.01625 C43.75275,59.8995 43.20525,61.37925 42.1095,62.463 Z" fill-rule="nonzero"></path>
            </g>
        </g>
    </g>
</svg>