<?xml version="1.0" encoding="UTF-8" standalone="no"?>
<svg width="100px" height="100px" viewBox="0 0 100 100" version="1.1" xmlns="http://www.w3.org/2000/svg" xmlns:xlink="http://www.w3.org/1999/xlink" xmlns:sketch="http://www.bohemiancoding.com/sketch/ns">
    <!-- Generator: Sketch 3.4 (15588) - http://www.bohemiancoding.com/sketch -->
    <title>Shape</title>
    <desc>Created with Sketch.</desc>
    <defs></defs>
    <g id="Page-1" stroke="none" stroke-width="1" fill="none" fill-rule="evenodd" sketch:type="MSPage">
        <g id="img-error-message-rlred" sketch:type="MSLayerGroup" fill="#ED1C24">
            <path d="M93.294,24.903 C97.759,32.565 100,40.931 100,50 C100,59.072 97.759,67.438 93.294,75.098 C88.821,82.76 82.753,88.82 75.098,93.293 C67.436,97.762 59.07,99.999 49.997,99.999 C40.924,99.999 32.562,97.762 24.9,93.293 C17.242,88.82 11.177,82.76 6.702,75.098 C2.236,67.438 0,59.072 0,50 C0,40.931 2.236,32.565 6.702,24.903 C11.177,17.243 17.242,11.179 24.9,6.707 C32.562,2.238 40.924,0.001 49.997,0.001 C59.07,0.001 67.435,2.237 75.098,6.707 C82.753,11.179 88.821,17.243 93.294,24.903 L93.294,24.903 Z M88.346,66.178 C90.56,61.035 91.663,55.645 91.663,50 C91.663,44.355 90.559,38.964 88.346,33.822 C86.133,28.678 83.168,24.252 79.46,20.541 C75.741,16.831 71.321,13.868 66.171,11.655 C61.035,9.441 55.641,8.338 49.997,8.338 C44.357,8.338 38.964,9.441 33.82,11.655 C28.678,13.868 24.251,16.831 20.54,20.541 C16.831,24.252 13.867,28.679 11.654,33.822 C9.437,38.964 8.336,44.355 8.336,50 C8.336,55.645 9.437,61.035 11.654,66.178 C13.867,71.322 16.831,75.748 20.54,79.459 C24.251,83.17 28.678,86.132 33.82,88.346 C38.964,90.559 44.357,91.666 49.997,91.666 C55.641,91.666 61.035,90.559 66.171,88.346 C71.321,86.132 75.741,83.17 79.46,79.459 C83.168,75.748 86.133,71.321 88.346,66.178 L88.346,66.178 Z M39.223,27.442 C40.851,29.069 41.664,31.036 41.664,33.334 C41.664,35.638 40.852,37.598 39.223,39.225 C37.597,40.853 35.632,41.667 33.333,41.667 C31.032,41.667 29.069,40.853 27.439,39.225 C25.813,37.598 25.001,35.638 25.001,33.334 C25.001,31.036 25.813,29.069 27.439,27.442 C29.069,25.814 31.032,25 33.333,25 C35.632,25 37.597,25.814 39.223,27.442 L39.223,27.442 Z M73.829,71.68 C74.174,72.763 74.085,73.823 73.568,74.837 C73.047,75.858 72.242,76.542 71.155,76.887 C70.072,77.239 69.007,77.148 67.965,76.627 C66.928,76.106 66.232,75.285 65.882,74.152 C64.799,70.682 62.793,67.87 59.863,65.722 C56.933,63.573 53.646,62.499 49.997,62.499 C46.351,62.499 43.065,63.572 40.136,65.722 C37.205,67.869 35.198,70.682 34.116,74.152 C33.767,75.285 33.084,76.105 32.064,76.627 C31.043,77.148 29.987,77.238 28.906,76.887 C27.778,76.542 26.95,75.859 26.429,74.837 C25.912,73.822 25.823,72.763 26.171,71.68 C27.777,66.426 30.771,62.2 35.152,58.985 C39.537,55.775 44.485,54.168 49.996,54.168 C55.508,54.168 60.454,55.775 64.844,58.985 C69.226,62.199 72.221,66.426 73.829,71.68 L73.829,71.68 Z M72.556,27.442 C74.187,29.069 74.996,31.036 74.996,33.334 C74.996,35.638 74.186,37.598 72.556,39.225 C70.931,40.853 68.966,41.667 66.667,41.667 C64.361,41.667 62.402,40.853 60.774,39.225 C59.147,37.598 58.334,35.638 58.334,33.334 C58.334,31.036 59.147,29.069 60.774,27.442 C62.402,25.814 64.361,25 66.667,25 C68.966,25 70.931,25.814 72.556,27.442 L72.556,27.442 Z" id="Shape" sketch:type="MSShapeGroup"></path>
        </g>
    </g>
</svg>