<?xml version="1.0" encoding="UTF-8"?>
<svg width="75px" height="75px" viewBox="0 0 75 75" version="1.1" xmlns="http://www.w3.org/2000/svg" xmlns:xlink="http://www.w3.org/1999/xlink">
    <!-- Generator: Sketch 51.3 (57544) - http://www.bohemiancoding.com/sketch -->
    <title>Miscellaneous / lightbulb</title>
    <desc>Created with Sketch.</desc>
    <defs></defs>
    <g id="icons" stroke="none" stroke-width="1" fill="none" fill-rule="evenodd">
        <g id="Miscellaneous-/-lightbulb" fill="#999999">
            <g id="Shape-Copy-324">
                <path d="M72.2222222,41.6666667 L69.4444444,41.6666667 C67.9097222,41.6666667 66.6666667,40.4236111 66.6666667,38.8888889 C66.6666667,37.3541667 67.9111111,36.1111111 69.4444444,36.1111111 L72.2222222,36.1111111 C73.7555556,36.1111111 75,37.3555556 75,38.8888889 C75,40.4222222 73.7569444,41.6666667 72.2222222,41.6666667 Z M62.0527778,16.8763889 C60.9680556,17.9611111 59.2097222,17.9611111 58.125,16.8763889 C57.0402778,15.7916667 57.0402778,14.0333333 58.125,12.9472222 L60.0888889,10.9833333 C61.1736111,9.89861111 62.9319444,9.89861111 64.0180556,10.9833333 C65.1027778,12.0680556 65.1027778,13.8263889 64.0180556,14.9111111 L62.0527778,16.8763889 Z M49.3055556,57.9472222 C38.0125,64.4666667 23.5722222,60.5986111 17.0527778,49.3055556 C10.5333333,38.0125 14.4013889,23.5722222 25.6944444,17.0513889 C36.9875,10.5319444 51.4277778,14.4013889 57.9472222,25.6944444 C64.4680556,36.9875 60.5986111,51.4277778 49.3055556,57.9472222 Z M53.1361111,28.4722222 C48.15,19.8361111 37.1069444,16.8777778 28.4722222,21.8638889 C19.8375,26.85 16.8777778,37.8916667 21.8625,46.5277778 C26.8472222,55.1638889 37.8916667,58.1222222 46.5263889,53.1361111 C55.1611111,48.15 58.1222222,37.1069444 53.1361111,28.4722222 Z M25.2041667,38.0791667 C24.3527778,33.7 26.3194444,29.0777778 30.4486111,26.7236111 C33.4305556,25.0208333 36.8736111,24.9166667 39.85,26.0652778 C38.7875,26.5680556 37.5125,27.2444444 35.8972222,28.1666667 C28.7583333,32.2388889 25.5013889,34.9694444 25.2041667,38.0791667 Z M37.5,8.33333333 C35.9652778,8.33333333 34.7222222,7.08888889 34.7222222,5.55555556 L34.7222222,2.77777778 C34.7222222,1.24305556 35.9666667,0 37.5,0 C39.0333333,0 40.2777778,1.24305556 40.2777778,2.77777778 L40.2777778,5.55555556 C40.2777778,7.08888889 39.0333333,8.33333333 37.5,8.33333333 Z M11.9652778,17.8583333 L10.0013889,15.8930556 C8.91666667,14.8083333 8.91666667,13.05 10.0013889,11.9652778 C11.0861111,10.8805556 12.8444444,10.8805556 13.9291667,11.9652778 L15.8930556,13.9291667 C16.9777778,15.0138889 16.9777778,16.7722222 15.8930556,17.8583333 C14.8083333,18.9444444 13.05,18.9430556 11.9652778,17.8583333 Z M5.55555556,41.6666667 L2.77777778,41.6666667 C1.24444444,41.6666667 0,40.4236111 0,38.8888889 C0,37.3541667 1.24444444,36.1111111 2.77777778,36.1111111 L5.55555556,36.1111111 C7.08888889,36.1111111 8.33333333,37.3555556 8.33333333,38.8888889 C8.33333333,40.4222222 7.09027778,41.6666667 5.55555556,41.6666667 Z M12.9486111,58.1236111 C14.0333333,57.0388889 15.7916667,57.0388889 16.8763889,58.1236111 C17.9611111,59.2083333 17.9611111,60.9666667 16.8763889,62.0527778 L14.9125,64.0166667 C13.8277778,65.1013889 12.0694444,65.1013889 10.9847222,64.0166667 C9.9,62.9319444 9.9,61.1736111 10.9847222,60.0875 L12.9486111,58.1236111 Z M45.8333333,62.3416667 L45.8333333,66.6666667 C45.8333333,71.2694444 42.1027778,75 37.5,75 C32.8972222,75 29.1666667,71.2694444 29.1666667,66.6666667 L29.1666667,62.3666667 C34.425,64.3472222 40.3458333,64.4208333 45.8333333,62.3416667 Z M61.0708333,59.1055556 L63.0347222,61.0708333 C64.1194444,62.1555556 64.1194444,63.9138889 63.0347222,64.9986111 C61.95,66.0833333 60.1916667,66.0833333 59.1069444,64.9986111 L57.1430556,63.0347222 C56.0583333,61.95 56.0583333,60.1916667 57.1430556,59.1055556 C58.2263889,58.0208333 59.9847222,58.0208333 61.0708333,59.1055556 Z" fill-rule="nonzero"></path>
            </g>
        </g>
    </g>
</svg>