<?xml version="1.0" encoding="UTF-8"?>
<svg width="74px" height="74px" viewBox="0 0 74 74" version="1.1" xmlns="http://www.w3.org/2000/svg" xmlns:xlink="http://www.w3.org/1999/xlink">
    <!-- Generator: Sketch 51.3 (57544) - http://www.bohemiancoding.com/sketch -->
    <title>Miscellaneous / pen</title>
    <desc>Created with Sketch.</desc>
    <defs></defs>
    <g id="icons" stroke="none" stroke-width="1" fill="none" fill-rule="evenodd">
        <g id="Miscellaneous-/-pen" fill="#999999">
            <g id="Shape">
                <path d="M71.1420732,15.0768293 L29.7493902,56.4695122 C27.7536585,58.4652439 24.9,59.0341463 22.3810976,58.2420732 L15.5213415,68.1109756 L0,73.2841463 L5.175,57.7628049 L15.0439024,50.9030488 C14.25,48.3841463 14.8207317,45.5304878 16.8146341,43.5347561 L40.097561,20.2518293 L37.5109756,17.6652439 L54.5469512,0.627439024 L57.1335366,3.21402439 L53.3304878,7.01890244 L58.2054878,2.14390244 C61.0628049,-0.713414634 65.6963415,-0.713414634 68.5536585,2.14390244 L71.1402439,4.7304878 C73.9993902,7.58780488 73.9993902,12.2195122 71.1420732,15.0768293 Z M13.4707317,59.0560976 L10.125,60.5707317 L7.74512195,65.7237805 L12.7115854,63.1573171 L14.2280488,59.8134146 L13.4707317,59.0560976 Z M45.272561,25.4268293 L21.9896341,48.7079268 L24.5762195,51.2945122 L47.8591463,28.0115854 L45.272561,25.4268293 Z M63.3804878,7.31707317 L47.8591463,22.8384146 L50.4457317,25.425 L65.9670732,9.90182927 L63.3804878,7.31707317 Z" fill-rule="nonzero"></path>
            </g>
        </g>
    </g>
</svg>