<?xml version="1.0" encoding="UTF-8"?>
<svg width="83px" height="75px" viewBox="0 0 83 75" version="1.1" xmlns="http://www.w3.org/2000/svg" xmlns:xlink="http://www.w3.org/1999/xlink">
    <!-- Generator: Sketch 51.3 (57544) - http://www.bohemiancoding.com/sketch -->
    <title>Miscellaneous / questionmark_help</title>
    <desc>Created with Sketch.</desc>
    <defs></defs>
    <g id="icons" stroke="none" stroke-width="1" fill="none" fill-rule="evenodd">
        <g id="Miscellaneous-/-questionmark_help" fill="#D58126">
            <g id="Combined-Shape">
                <path d="M74.7,58.3333333 L37.22135,58.3333333 L25.910525,72.6395833 C23.059475,76.24375 20.75,75.4354167 20.75,70.8333333 L20.75,58.3333333 L8.3,58.3333333 C3.716325,58.3333333 0,54.6020833 0,50 L0,8.33333333 C0,3.73125 3.716325,0 8.3,0 L74.7,0 C79.283675,0 83,3.73125 83,8.33333333 L83,50 C83,54.6020833 79.283675,58.3333333 74.7,58.3333333 Z M74.7,8.33333333 L8.3,8.33333333 L8.3,50 L74.7,50 L74.7,8.33333333 Z M36.2314453,40.3727212 C36.2314453,39.1248852 36.5928105,38.1618958 37.3155517,37.483724 C38.0382931,36.8055521 39.1021252,36.4664712 40.5070801,36.4664712 C41.8579983,36.4664712 42.8948125,36.8089429 43.6175537,37.4938965 C44.3402949,38.17885 44.7016603,39.1384488 44.7016603,40.3727212 C44.7016603,41.606994 44.326786,42.5632019 43.5770264,43.2413738 C42.8272667,43.9195454 41.8039616,44.2586263 40.5070801,44.2586263 C39.169671,44.2586263 38.1227252,43.9229363 37.3662109,43.2515463 C36.6096966,42.5801563 36.2314453,41.6205575 36.2314453,40.3727212 Z M37.1027833,33.2519531 L37.1027833,31.5022788 C37.1027833,30.1730619 37.3729628,29.0507044 37.9133301,28.1351725 C38.4536973,27.2196406 39.4128349,26.3278581 40.7907714,25.4597981 C41.8850152,24.7680629 42.6719133,24.1441542 43.1514892,23.5880533 C43.6310653,23.0319525 43.8708496,22.3944806 43.8708496,21.6756185 C43.8708496,21.1059542 43.6141789,20.6549767 43.1008301,20.3226725 C42.5874811,19.9903684 41.9187867,19.8242188 41.0947266,19.8242188 C39.0548401,19.8242188 36.6705051,20.5498517 33.9416504,22.0011394 L31.125,16.4672852 C34.4887864,14.5412773 38.0011211,13.5782878 41.6621094,13.5782878 C44.674657,13.5782878 47.0387284,14.2428861 48.7543946,15.5721029 C50.4700607,16.9013196 51.3278808,18.7120111 51.3278808,21.0042317 C51.3278808,22.6454075 50.9462522,24.066156 50.1829834,25.2665202 C49.4197145,26.4668842 48.2005292,27.602805 46.5253906,28.6743165 C45.1069264,29.59663 44.2187111,30.2714008 43.8607177,30.6986492 C43.5027244,31.1258973 43.3237304,31.6311277 43.3237304,32.2143554 L43.3237304,33.2519531 L37.1027833,33.2519531 Z" fill-rule="nonzero"></path>
            </g>
        </g>
    </g>
</svg>