<?xml version="1.0" encoding="UTF-8"?>
<svg width="75px" height="75px" viewBox="0 0 75 75" version="1.1" xmlns="http://www.w3.org/2000/svg" xmlns:xlink="http://www.w3.org/1999/xlink">
    <!-- Generator: Sketch 51.3 (57544) - http://www.bohemiancoding.com/sketch -->
    <title>Miscellaneous / img-nav-activities</title>
    <desc>Created with Sketch.</desc>
    <defs></defs>
    <g id="icons" stroke="none" stroke-width="1" fill="none" fill-rule="evenodd">
        <g id="Miscellaneous-/-img-nav-activities" fill="#333">
            <g id="Shape">
                <path d="M75,1.491 C75,9.11475 73.84425,15.70575 71.532,21.26325 C69.21975,26.82075 65.34,32.34 59.889,37.821 C57.41025,40.2705 54.42375,42.9645 50.9355,45.9045 L50.01525,63.31125 C49.95375,63.8025 49.70775,64.2015 49.281,64.50525 L31.64475,74.79375 C31.428,74.9145 31.18425,74.9775 30.90975,74.9775 C30.54075,74.9775 30.1905,74.8395 29.853,74.5635 L26.913,71.62425 C26.51625,71.1945 26.3925,70.70475 26.547,70.15425 L30.44925,57.47925 L17.54475,44.5725 L4.8675,48.47625 C4.77525,48.507 4.638,48.522 4.45425,48.522 C4.02525,48.522 3.67425,48.3855 3.3975,48.10875 L0.459,45.17025 C-0.063,44.58975 -0.13875,43.99275 0.22725,43.37775 L10.51575,25.743 C10.8225,25.314 11.22,25.0695 11.71125,25.00725 L29.11725,24.08775 C32.05575,20.59875 34.74975,17.613 37.2,15.1335 C42.95625,9.4065 48.43575,5.4585 53.64225,3.28275 C58.848,1.11 65.4465,0.0225 73.43925,0.0225 C73.86675,0.0225 74.23575,0.168 74.54175,0.4575 C74.8455,0.74925 75,1.095 75,1.491 Z M63.4245,17.8425 C64.2825,16.9845 64.7115,15.94425 64.7115,14.72025 C64.7115,13.4955 64.2825,12.45375 63.4245,11.5965 C62.568,10.7385 61.527,10.31025 60.303,10.31025 C59.07675,10.31025 58.03725,10.7385 57.18075,11.5965 C56.32125,12.45375 55.89375,13.4955 55.89375,14.72025 C55.89375,15.94425 56.32125,16.98525 57.18075,17.8425 C58.03875,18.7005 59.07675,19.128 60.303,19.128 C61.527,19.128 62.5695,18.7005 63.4245,17.8425 Z" fill-rule="nonzero"></path>
            </g>
        </g>
    </g>
</svg>