<?xml version="1.0" encoding="UTF-8"?>
<svg width="83px" height="74px" viewBox="0 0 83 74" version="1.1" xmlns="http://www.w3.org/2000/svg" xmlns:xlink="http://www.w3.org/1999/xlink">
    <!-- Generator: Sketch 51.3 (57544) - http://www.bohemiancoding.com/sketch -->
    <title>Miscellaneous / stamp</title>
    <desc>Created with Sketch.</desc>
    <defs></defs>
    <g id="icons" stroke="none" stroke-width="1" fill="none" fill-rule="evenodd">
        <g id="Miscellaneous-/-stamp" fill="#999999">
            <g id="Shape-Copy-304">
                <path d="M80.5059574,60.7142857 L69.7825532,60.7142857 L69.7825532,71.4285714 C69.7825532,73.4 68.6333617,73.8875 67.2142979,72.5142857 L52.7680851,58.5303571 C59.5148936,55.925 65.1482553,51.1196429 68.8085106,44.9857143 L81.5925957,58.15 C82.9651915,59.5678571 82.4790638,60.7142857 80.5059574,60.7142857 Z M41.1850213,57.1428571 C25.391234,57.1428571 12.5892766,44.35 12.5892766,28.5714286 C12.5892766,12.7928571 25.391234,0 41.1850213,0 C56.9788085,0 69.780766,12.7928571 69.780766,28.5714286 C69.780766,44.35 56.9788085,57.1428571 41.1850213,57.1428571 Z M41.1850213,7.14285714 C29.3410213,7.14285714 19.7382128,16.7375 19.7382128,28.5714286 C19.7382128,40.4053571 29.3410213,50 41.1850213,50 C53.0290213,50 62.6318298,40.4053571 62.6318298,28.5714286 C62.6318298,16.7375 53.0308085,7.14285714 41.1850213,7.14285714 Z M29.6037447,58.5321429 L15.1575319,72.5160714 C13.7402553,73.8875 12.5910638,73.4017857 12.5910638,71.4285714 L12.5910638,60.7142857 L1.86765957,60.7142857 C-0.107234043,60.7142857 -0.591574468,59.5660714 0.782808511,58.15 L13.5651064,44.9857143 C17.2235745,51.1214286 22.8569362,55.925 29.6037447,58.5321429 Z" fill-rule="nonzero"></path>
            </g>
        </g>
    </g>
</svg>