<?xml version="1.0" encoding="UTF-8"?>
<svg width="80px" height="73px" viewBox="0 0 80 73" version="1.1" xmlns="http://www.w3.org/2000/svg" xmlns:xlink="http://www.w3.org/1999/xlink">
    <!-- Generator: Sketch 51.3 (57544) - http://www.bohemiancoding.com/sketch -->
    <title>Miscellaneous / timer</title>
    <desc>Created with Sketch.</desc>
    <defs></defs>
    <g id="icons" stroke="none" stroke-width="1" fill="none" fill-rule="evenodd">
        <g id="Miscellaneous-/-timer" transform="translate(-1.000000, -1.000000)" fill="#999999">
            <g id="Shape-Copy-7">
                <path d="M76.4607749,25.8490843 L56.1807197,5.46172929 C61.7822022,-0.167588571 70.8610851,-0.167588571 76.4607749,5.46172929 C82.0604648,11.0910471 82.0604648,20.2197664 76.4607749,25.8490843 Z M73.4906435,40.8828236 C73.4906435,58.7960893 59.0450928,73.3180714 41.2261074,73.3180714 C23.4071199,73.3180714 8.96156929,58.7960893 8.96156929,40.8828236 C8.96156929,25.416615 19.7397171,12.498375 34.1530041,9.25304786 C34.0938507,8.99356714 34.0562091,8.72687786 34.0562091,8.44757357 C34.0562091,6.45821143 35.6622665,4.84365643 37.6411583,4.84365643 L44.8110545,4.84365643 C46.7899463,4.84365643 48.3960036,6.45821143 48.3960036,8.44757357 C48.3960036,8.72687786 48.3583621,8.99356714 48.2992108,9.25485 C62.7107031,12.498375 73.4906435,25.416615 73.4906435,40.8828236 Z M41.2261074,15.6554057 C27.3666962,15.6554057 16.1314676,26.9500821 16.1314676,40.8828236 C16.1314676,54.815565 27.3666962,66.1102393 41.2261074,66.1102393 C55.0855187,66.1102393 66.3207473,54.815565 66.3207473,40.8828236 C66.3207473,26.9500821 55.0855187,15.6554057 41.2261074,15.6554057 Z M44.0689708,44.6146779 C42.6690478,46.0220079 40.3997753,46.0220079 38.9998544,44.6146779 L33.9307359,39.5169386 C32.530815,38.1096086 32.530815,35.8283293 33.9307359,34.4191993 C35.3306589,33.0118693 37.5999314,33.0118693 38.9998544,34.4191993 L41.5344126,36.9671679 L48.8315747,29.6313943 C50.2314977,28.2240664 52.5025629,28.2240664 53.9024859,29.6313943 C55.3024068,31.0387243 55.3024068,33.3200036 53.9024859,34.7291357 L44.0689708,44.6146779 Z M5.92332537,5.39325429 C11.4333909,-0.145965 20.3652907,-0.145965 25.8753562,5.39325429 L5.92332537,25.4508514 C0.415052526,19.9116321 0.415052526,10.9324736 5.92332537,5.39325429 Z" fill-rule="nonzero"></path>
            </g>
        </g>
    </g>
</svg>