<?xml version="1.0" encoding="utf-8"?>
<!-- Generator: Adobe Illustrator 19.0.0, SVG Export Plug-In . SVG Version: 6.00 Build 0)  -->
<svg version="1.1" id="Layer_1" xmlns:sketch="http://www.bohemiancoding.com/sketch/ns"
	 xmlns="http://www.w3.org/2000/svg" xmlns:xlink="http://www.w3.org/1999/xlink" x="0px" y="0px" viewBox="-1314 1181.8 64 75"
	 style="enable-background:new -1314 1181.8 64 75;" xml:space="preserve">
<style type="text/css">
	.st0{fill:#FFFFFF;}
</style>
<title>Shape</title>
<desc>Created with Sketch.</desc>
<g>
	<path class="st0" d="M-1259.7,1189.4l-22.4-7.4l-31.8,10.5v17.8c0,20.8,13.1,38.7,31.8,46.2c18.7-7.5,31.8-25.4,31.8-46.2v-11.5
		L-1259.7,1189.4z M-1280.9,1229.6c0,0.6-0.5,1.1-1.1,1.1h-16c-0.6,0-1.1-0.5-1.1-1.1v-2.3c0-0.6,0.5-1.1,1.1-1.1h16
		c0.6,0,1.1,0.6,1.1,1.1V1229.6z M-1264.9,1220.4c0,0.6-0.5,1.1-1.1,1.1h-32.1c-0.6,0-1.1-0.5-1.1-1.1v-2.3c0-0.6,0.5-1.1,1.1-1.1
		h32.1c0.6,0,1.1,0.5,1.1,1.1V1220.4z M-1264.9,1211.2c0,0.6-0.5,1.1-1.1,1.1h-32.1c-0.6,0-1.1-0.5-1.1-1.1v-2.3
		c0-0.6,0.5-1.1,1.1-1.1h32.1c0.6,0,1.1,0.5,1.1,1.1V1211.2z M-1262.6,1201.5v-10.1l10.1,10.1H-1262.6z"/>
</g>
</svg>
