<?xml version="1.0" encoding="UTF-8" standalone="no"?>
<svg width="64px" height="75px" viewBox="0 0 64 75" version="1.1" xmlns="http://www.w3.org/2000/svg" xmlns:xlink="http://www.w3.org/1999/xlink" xmlns:sketch="http://www.bohemiancoding.com/sketch/ns">
    <!-- Generator: Sketch 3.3.2 (12043) - http://www.bohemiancoding.com/sketch -->
    <title>Shape</title>
    <desc>Created with Sketch.</desc>
    <defs>
        <path d="M31.939,0.208 L0.122,10.716 L0.122,28.503 C0.122,49.306 13.246,67.156 31.945,74.688 C50.647,67.157 63.773,49.306 63.773,28.503 L63.773,17.042 L54.334,7.603 L31.939,0.208 L31.939,0.208 Z M33.088,47.754 C33.088,48.332 32.544,48.9 31.945,48.9 L15.913,48.9 C15.318,48.9 14.773,48.379 14.773,47.754 L14.773,45.461 C14.773,44.834 15.309,44.316 15.913,44.316 L31.945,44.316 C32.553,44.316 33.088,44.884 33.088,45.461 L33.088,47.754 L33.088,47.754 Z M49.119,38.59 C49.119,39.202 48.586,39.737 47.975,39.737 L15.913,39.737 C15.303,39.737 14.773,39.22 14.773,38.59 L14.773,36.302 C14.773,35.675 15.29,35.156 15.913,35.156 L47.975,35.156 C48.599,35.156 49.119,35.691 49.119,36.302 L49.119,38.59 L49.119,38.59 Z M49.119,29.433 C49.119,30.043 48.586,30.578 47.975,30.578 L15.913,30.578 C15.303,30.578 14.773,30.06 14.773,29.433 L14.773,27.142 C14.773,26.514 15.29,25.997 15.913,25.997 L47.975,25.997 C48.599,25.997 49.119,26.529 49.119,27.142 L49.119,29.433 L49.119,29.433 Z M51.387,19.668 L51.387,9.534 L61.522,19.668 L51.387,19.668 L51.387,19.668 Z" id="path-1"></path>
    </defs>
    <g id="Page-1" stroke="none" stroke-width="1" fill="none" fill-rule="evenodd" sketch:type="MSPage">
        <g id="doc-defense-logo" sketch:type="MSLayerGroup">
            <g id="Shape">
                <use fill="none" sketch:type="MSShapeGroup" xlink:href="#path-1"></use>
                <use fill="#284A6D" fill-rule="evenodd" xlink:href="#path-1"></use>
            </g>
        </g>
    </g>
</svg>