<?xml version="1.0" encoding="utf-8"?>
<!-- Generator: Adobe Illustrator 18.1.1, SVG Export Plug-In . SVG Version: 6.00 Build 0)  -->
<svg version="1.1" id="Layer_1" xmlns="http://www.w3.org/2000/svg" xmlns:xlink="http://www.w3.org/1999/xlink" x="0px" y="0px"
	 width="100px" height="100px" viewBox="-589 351 100 100" enable-background="new -589 351 100 100" xml:space="preserve">
<g>
	<path fill="#990000" d="M-523,433.4l-13.2-19.9h-0.2h-7.8v19.9h-18.2l0-54.7l-12.7-10.8c-8,8.7-12.9,20.3-12.9,33.1
		c0,27.1,21.9,49,49,49c14.7,0,27.8-6.4,36.8-16.6H-523z"/>
	<path fill="#990000" d="M-531.4,367.8c10,0,17,2.6,21.4,7.1c3.8,3.7,5.8,8.8,5.8,15.3v0.2c0,10-5.3,16.7-13.5,20.1l15.6,22.8
		c7.6-8.6,12.1-19.9,12.1-32.3c0-27.1-21.9-49-49-49c-14.2,0-27.1,6.1-36,15.8H-531.4z"/>
	<path fill="#990000" d="M-544.2,383.5v15.7h12c6.2,0,9.7-3,9.7-7.8v-0.2c0-5.2-3.7-7.8-9.8-7.8L-544.2,383.5L-544.2,383.5z"/>
</g>
</svg>
