<?xml version="1.0" encoding="utf-8"?>
<!-- Generator: Adobe Illustrator 18.1.1, SVG Export Plug-In . SVG Version: 6.00 Build 0)  -->
<svg version="1.1" id="Layer_1" xmlns="http://www.w3.org/2000/svg" xmlns:xlink="http://www.w3.org/1999/xlink" x="0px" y="0px"
	 width="648px" height="108px" viewBox="0 0 648 108" enable-background="new 0 0 648 108" xml:space="preserve">
<g>
	<path fill="#FFFFFF" d="M38,30.9h30c6.9,0,11.6,1.8,14.6,4.9c2.6,2.6,4,6,4,10.4v0.1c0,6.9-3.6,11.4-9.2,13.8L88,75.7H73.6l-9-13.6
		h-0.1h-5.3v13.6H46.7l0-37.4L38,30.9z M67.4,52.4c4.2,0,6.7-2.1,6.7-5.3V47c0-3.5-2.6-5.3-6.7-5.3h-8.1v10.8H67.4z"/>
	<path fill="#FFFFFF" d="M89.6,53.4v-0.1C89.6,40.4,100,30,113.8,30c13.8,0,24.1,10.3,24.1,23.2v0.1c0,12.9-10.4,23.3-24.2,23.3
		C99.8,76.6,89.6,66.3,89.6,53.4 M125.2,53.4v-0.1c0-6.5-4.7-12.1-11.5-12.1c-6.8,0-11.3,5.5-11.3,12v0.1c0,6.5,4.7,12.1,11.5,12.1
		C120.7,65.4,125.2,59.9,125.2,53.4"/>
	<path fill="#FFFFFF" d="M141.2,53.4v-0.1c0-13.1,10.1-23.3,23.6-23.3c9.2,0,15.1,3.8,19,9.3l-9.3,7.2c-2.6-3.2-5.5-5.3-9.8-5.3
		c-6.3,0-10.7,5.3-10.7,11.8v0.1c0,6.7,4.4,12,10.7,12c4.7,0,7.4-2.2,10.1-5.4l9.3,6.7c-4.2,5.8-9.9,10.1-19.9,10.1
		C151.5,76.6,141.2,66.8,141.2,53.4"/>
	<polygon fill="#FFFFFF" points="188.8,30.9 201.2,30.9 201.2,49.1 216.7,30.9 231.4,30.9 214.4,50.2 232,75.7 217,75.7 205.8,59.1 
		201.2,64.1 201.2,75.7 188.8,75.7 	"/>
	<polygon fill="#FFFFFF" points="235.9,30.9 272,30.9 272,41.5 248.2,41.5 248.2,48.2 269.7,48.2 269.7,58 248.2,58 248.2,65.2 
		272.3,65.2 272.3,75.7 235.9,75.7 	"/>
	<polygon fill="#FFFFFF" points="288.9,41.8 275.5,41.8 275.5,30.9 314.8,30.9 314.8,41.8 301.3,41.8 301.3,75.7 288.9,75.7 	"/>
	<polygon fill="#FFFFFF" points="322.3,75.7 322.3,30.9 325.6,30.9 325.6,72.6 351.9,72.6 351.9,75.7 	"/>
	<path fill="#FFFFFF" d="M398.7,75.7L393,63.2h-26.4l-5.7,12.5h-3.5l20.9-45.1h3.2l20.9,45.1H398.7z M379.8,34.2L368,60.2h23.6
		L379.8,34.2z"/>
	<polygon fill="#FFFFFF" points="449.9,76 447.2,76 434.1,37.1 420.9,76 418.3,76 402,30.9 405.7,30.9 419.8,70.8 432.9,30.8 
		435.5,30.8 448.6,70.8 462.7,30.9 466.2,30.9 	"/>
	<polygon fill="#FFFFFF" points="492,57.9 492,75.7 488.7,75.7 488.7,58 469.5,30.9 473.6,30.9 490.4,55 507.3,30.9 511.2,30.9 	"/>
	<polygon fill="#FFFFFF" points="518.3,75.7 518.3,30.9 550.2,30.9 550.2,34 521.6,34 521.6,51.6 547.3,51.6 547.3,54.6 521.6,54.6 
		521.6,72.6 550.5,72.6 550.5,75.7 	"/>
	<path fill="#FFFFFF" d="M592.8,75.7l-14.3-18.6h-14.7v18.6h-3.3V30.9h18.8c9.7,0,16,5.3,16,12.7v0.1c0,7.5-5.6,11.8-13.1,12.8
		L597,75.7H592.8z M592.1,43.8c0-6-4.7-9.8-12.9-9.8h-15.3v20.2H579c7.5,0,13.1-3.8,13.1-10.2V43.8z"/>
	<g>
		<path fill="#FFFFFF" d="M600.3,73.2L600.3,73.2c0-2.7,2.1-4.9,4.9-4.9c2.7,0,4.8,2.2,4.8,4.8v0c0,2.6-2.1,4.8-4.9,4.8
			C602.5,78,600.3,75.8,600.3,73.2z M609.5,73.2L609.5,73.2c0-2.4-1.9-4.4-4.3-4.4c-2.5,0-4.3,2-4.3,4.4v0c0,2.4,1.9,4.3,4.3,4.3
			C607.6,77.5,609.5,75.6,609.5,73.2z M603.2,70.5h2.3c0.7,0,1.2,0.2,1.5,0.5c0.3,0.3,0.4,0.6,0.4,1.1v0c0,0.8-0.5,1.3-1.2,1.5
			l1.4,1.9h-1.2l-1.2-1.8h0h-1v1.8h-1V70.5z M605.5,73c0.6,0,1-0.3,1-0.8v0c0-0.5-0.4-0.8-1-0.8h-1.3V73H605.5z"/>
	</g>
</g>
</svg>
