<?xml version="1.0" encoding="UTF-8"?>
<svg width="77px" height="52px" viewBox="0 0 77 52" version="1.1" xmlns="http://www.w3.org/2000/svg" xmlns:xlink="http://www.w3.org/1999/xlink">
    <!-- Generator: Sketch 51.3 (57544) - http://www.bohemiancoding.com/sketch -->
    <title>Account Settings / cc-visa</title>
    <desc>Created with Sketch.</desc>
    <defs></defs>
    <g id="icons" stroke="none" stroke-width="1" fill="none" fill-rule="evenodd">
        <g id="Account-Settings-/-cc-visa" transform="translate(1.000000, 1.000000)">
            <g>
                <path d="M0.426136364,44.4262782 L0.426136364,4.57372176 C0.426136364,2.2489893 2.26880878,0.422413793 4.61402821,0.422413793 L69.9451411,0.422413793 C72.2903605,0.422413793 74.1330329,2.2489893 74.1330329,4.57372176 L74.1330329,44.4262782 C74.1330329,46.7510107 72.2903605,48.5775862 69.9451411,48.5775862 L4.61402821,48.5775862 C2.26880878,48.5775862 0.426136364,46.7510107 0.426136364,44.4262782 Z" id="border" stroke="#CCCCCC" stroke-width="3" fill="#FDFDFD" fill-rule="nonzero"></path>
                <g id="visa" transform="translate(7.227273, 14.868966)" fill-rule="nonzero">
                    <path d="M17.2266089,0.415556572 L12.5116648,12.8567072 L12.0049999,10.3310089 C10.8645684,7.30970822 8.64464455,4.55409128 5.33304055,2.70793012 L9.64578673,18.6421403 L14.7455176,18.6421403 L22.3298221,0.413853471 L17.2266089,0.413853471" id="Shape" fill="#0058A0"></path>
                    <polyline id="Shape" fill="#0058A0" points="21.2659998 18.6523589 24.2798728 0.400228665 29.101025 0.400228665 26.0854109 18.6523589 21.2659998 18.6523589"></polyline>
                    <path d="M43.5644818,0.848144151 C42.6103497,0.478571298 41.1077661,0.0783426324 39.2482534,0.0783426324 C34.4810758,0.0783426324 31.1311671,2.55465106 31.1015682,6.09710052 C31.0702281,8.72839112 33.4956037,10.1879484 35.3220351,11.0650453 C37.2007001,11.9591732 37.8292433,12.5314149 37.8222787,13.3301692 C37.8066087,14.5495893 36.319695,15.1048002 34.9355072,15.1048002 C33.0115733,15.1048002 31.9843144,14.8340071 30.4068626,14.1476576 L29.7800606,13.8632398 L29.1062484,17.943869 C30.2310098,18.4599086 32.3116443,18.8959023 34.4758524,18.9214488 C39.5355377,18.9214488 42.8245071,16.47239 42.8628117,12.684694 C42.8837051,10.603505 41.5952787,9.02643371 38.8129742,7.7235617 C37.1345377,6.87882375 36.0933499,6.31850361 36.1090199,5.46184396 C36.1125021,4.70396415 36.9813194,3.89328821 38.8739132,3.89328821 C40.4496239,3.8609293 41.5830909,4.21858044 42.4780249,4.5949657 L42.9080807,4.80785329 L43.5644818,0.848144151" id="Shape" fill="#0058A0"></path>
                    <path d="M55.9159639,0.415556572 L52.1951974,0.415556572 C51.0390959,0.415556572 50.175502,0.744255008 49.6653548,1.9313162 L42.5128473,18.654062 L47.5760147,18.654062 C47.5760147,18.654062 48.4030451,16.4093753 48.5893446,15.913773 C49.1430198,15.913773 54.0564512,15.9239916 54.7563801,15.9239916 C54.9043751,16.5626543 55.3448776,18.6557651 55.3448776,18.6557651 L59.8178064,18.6557651 L55.9159639,0.415556572 Z M49.9752736,12.1805762 C50.3774715,11.1331693 51.8974664,7.07978963 51.8974664,7.07978963 C51.8661263,7.12917955 52.2892177,6.02046099 52.5381974,5.3375176 L52.860304,6.91458886 C52.860304,6.91458886 53.7848369,11.2694173 53.9763598,12.1805762 L49.9752736,12.1805762 Z" id="Shape" fill="#0058A0"></path>
                    <path d="M8.13623849,0.408744169 L0.365634514,0.408744169 L0.323847713,0.722114699 C6.36204054,2.23106193 10.3474567,5.94893076 12.0049999,10.3327119 L10.3195988,1.9466441 C10.0305735,0.786832525 9.18264963,0.451321687 8.13623849,0.408744169 Z" id="Shape" fill="#FAA61A"></path>
                </g>
            </g>
        </g>
    </g>
</svg>