<?xml version="1.0" encoding="UTF-8"?>
<svg width="75px" height="75px" viewBox="0 0 75 75" version="1.1" xmlns="http://www.w3.org/2000/svg" xmlns:xlink="http://www.w3.org/1999/xlink">
    <!-- Generator: Sketch 51.3 (57544) - http://www.bohemiancoding.com/sketch -->
    <title>Account Settings / icon-add-circle</title>
    <desc>Created with Sketch.</desc>
    <defs></defs>
    <g id="icons" stroke="none" stroke-width="1" fill="none" fill-rule="evenodd">
        <g id="Account-Settings-/-icon-add-circle">
            <g>
                <path d="M55.809264,69.4271955 C38.0153653,79.6987733 15.2642492,73.6031629 4.99081168,55.809264 C-5.28262581,38.0153653 0.812984308,15.2623891 18.6068831,4.99081168 C36.400782,-5.28262581 59.1537579,0.812984308 69.4271955,18.6068831 C79.7006331,36.400782 73.6031629,59.1537579 55.809264,69.4271955 Z M62.9837432,22.3271212 C54.7657373,8.09349024 36.5626123,3.21625813 22.3271212,11.4342641 C8.09349024,19.6522701 3.21625813,37.855395 11.4342641,52.0890259 C19.6522701,66.3245171 37.855395,71.1998891 52.0890259,62.981883 C66.3245171,54.7638774 71.2017493,36.5626123 62.9837432,22.3271212 Z M48.3706481,40.9283117 L40.9301719,40.9283117 L40.9301719,48.3687879 C40.9301719,50.4223592 39.2653652,52.0890259 37.2099337,52.0890259 C35.1563623,52.0890259 33.4896956,50.4223592 33.4896956,48.3687879 L33.4896956,40.9283117 L26.0492194,40.9283117 C23.9937879,40.9283117 22.3289812,39.261645 22.3289812,37.2080736 C22.3289812,35.1545021 23.9937879,33.4878354 26.0492194,33.4878354 L33.4896956,33.4878354 L33.4896956,26.0473594 C33.4896956,23.9937879 35.1563623,22.3271212 37.2099337,22.3271212 C39.2653652,22.3271212 40.9301719,23.9937879 40.9301719,26.0473594 L40.9301719,33.4878354 L48.3706481,33.4878354 C50.4242194,33.4878354 52.0908861,35.1545021 52.0908861,37.2080736 C52.0908861,39.2635052 50.4242194,40.9283117 48.3706481,40.9283117 Z" id="path-1"></path>
                <g id="path-1-link" fill="#999999">
                    <path d="M55.809264,69.4271955 C38.0153653,79.6987733 15.2642492,73.6031629 4.99081168,55.809264 C-5.28262581,38.0153653 0.812984308,15.2623891 18.6068831,4.99081168 C36.400782,-5.28262581 59.1537579,0.812984308 69.4271955,18.6068831 C79.7006331,36.400782 73.6031629,59.1537579 55.809264,69.4271955 Z M62.9837432,22.3271212 C54.7657373,8.09349024 36.5626123,3.21625813 22.3271212,11.4342641 C8.09349024,19.6522701 3.21625813,37.855395 11.4342641,52.0890259 C19.6522701,66.3245171 37.855395,71.1998891 52.0890259,62.981883 C66.3245171,54.7638774 71.2017493,36.5626123 62.9837432,22.3271212 Z M48.3706481,40.9283117 L40.9301719,40.9283117 L40.9301719,48.3687879 C40.9301719,50.4223592 39.2653652,52.0890259 37.2099337,52.0890259 C35.1563623,52.0890259 33.4896956,50.4223592 33.4896956,48.3687879 L33.4896956,40.9283117 L26.0492194,40.9283117 C23.9937879,40.9283117 22.3289812,39.261645 22.3289812,37.2080736 C22.3289812,35.1545021 23.9937879,33.4878354 26.0492194,33.4878354 L33.4896956,33.4878354 L33.4896956,26.0473594 C33.4896956,23.9937879 35.1563623,22.3271212 37.2099337,22.3271212 C39.2653652,22.3271212 40.9301719,23.9937879 40.9301719,26.0473594 L40.9301719,33.4878354 L48.3706481,33.4878354 C50.4242194,33.4878354 52.0908861,35.1545021 52.0908861,37.2080736 C52.0908861,39.2635052 50.4242194,40.9283117 48.3706481,40.9283117 Z" id="path-1"></path>
                </g>
            </g>
        </g>
    </g>
</svg>