<?xml version="1.0" encoding="UTF-8"?>
<svg width="52px" height="75px" viewBox="0 0 52 75" version="1.1" xmlns="http://www.w3.org/2000/svg" xmlns:xlink="http://www.w3.org/1999/xlink">
    <!-- Generator: Sketch 51.3 (57544) - http://www.bohemiancoding.com/sketch -->
    <title>Account Settings / icon-password-lock</title>
    <desc>Created with Sketch.</desc>
    <defs></defs>
    <g id="icons" stroke="none" stroke-width="1" fill="none" fill-rule="evenodd">
        <g id="Account-Settings-/-icon-password-lock" fill="#999999">
            <g id="Shape">
                <path d="M45.5,75 L6.5,75 C2.910375,75 0,72.0798913 0,68.4782609 L0,35.8695652 C0,32.2679348 2.910375,29.3478261 6.5,29.3478261 L6.5,19.5652174 C6.5,8.76032609 15.231125,0 26,0 C36.768875,0 45.5,8.76032609 45.5,19.5652174 L45.5,29.3478261 C49.089625,29.3478261 52,32.2679348 52,35.8695652 L52,68.4782609 C52,72.0798913 49.089625,75 45.5,75 Z M39,19.5652174 C39,12.3619565 33.17925,6.52173913 26,6.52173913 C18.82075,6.52173913 13,12.3619565 13,19.5652174 L13,29.3478261 L39,29.3478261 L39,19.5652174 Z M45.5,35.8695652 L6.5,35.8695652 L6.5,68.4782609 L45.5,68.4782609 L45.5,35.8695652 Z M32.7384475,51.839528 C32.7384475,50.7468641 33.029522,49.9086686 33.6116797,49.3249166 C34.1938376,48.7411647 35.0364217,48.449293 36.1394574,48.449293 C37.2578131,48.449293 38.1080572,48.7523904 38.6902149,49.3585945 C39.2723726,49.9647985 39.5634471,50.791768 39.5634471,51.839528 C39.5634471,52.9022561 39.2685428,53.7441934 38.678725,54.3653654 C38.0889072,54.9865374 37.2424933,55.2971188 36.1394574,55.2971188 C35.0364217,55.2971188 34.1938376,54.9902795 33.6116797,54.3765913 C33.029522,53.7629033 32.7384475,52.917224 32.7384475,51.839528 Z M22.75,51.839528 C22.75,50.7468641 23.0410746,49.9086686 23.6232323,49.3249166 C24.20539,48.7411647 25.0479742,48.449293 26.15101,48.449293 C27.2693657,48.449293 28.1196097,48.7523904 28.7017674,49.3585945 C29.2839251,49.9647985 29.5749997,50.791768 29.5749997,51.839528 C29.5749997,52.9022561 29.2800953,53.7441934 28.6902775,54.3653654 C28.1004597,54.9865374 27.2540456,55.2971188 26.15101,55.2971188 C25.0479742,55.2971188 24.20539,54.9902795 23.6232323,54.3765913 C23.0410746,53.7629033 22.75,52.917224 22.75,51.839528 Z M12.0318818,51.839528 C12.0318818,50.7468641 12.3229564,49.9086686 12.9051141,49.3249166 C13.4872719,48.7411647 14.329856,48.449293 15.4328918,48.449293 C16.5512475,48.449293 17.4014914,48.7523904 17.9836493,49.3585945 C18.565807,49.9647985 18.8568816,50.791768 18.8568816,51.839528 C18.8568816,52.9022561 18.561977,53.7441934 17.9721594,54.3653654 C17.3823416,54.9865374 16.5359275,55.2971188 15.4328918,55.2971188 C14.329856,55.2971188 13.4872719,54.9902795 12.9051141,54.3765913 C12.3229564,53.7629033 12.0318818,52.917224 12.0318818,51.839528 Z" fill-rule="nonzero"></path>
            </g>
        </g>
    </g>
</svg>