<?xml version="1.0" encoding="UTF-8"?>
<svg width="52px" height="75px" viewBox="0 0 52 75" version="1.1" xmlns="http://www.w3.org/2000/svg" xmlns:xlink="http://www.w3.org/1999/xlink">
    <!-- Generator: Sketch 51.3 (57544) - http://www.bohemiancoding.com/sketch -->
    <title>Account Settings / icon-security-lock</title>
    <desc>Created with Sketch.</desc>
    <defs></defs>
    <g id="icons" stroke="none" stroke-width="1" fill="none" fill-rule="evenodd">
        <g id="Account-Settings-/-icon-security-lock" fill="#999999">
            <g id="lock">
                <path d="M45.0707441,74.2741381 L6.54868524,74.2741381 C3.00305073,74.2741381 0.128342101,71.389815 0.128342101,67.8323222 L0.128342101,35.623243 C0.128342101,32.0657501 3.00305073,29.1814272 6.54868524,29.1814272 L6.54868524,19.5187034 C6.54868524,8.84622497 15.1728112,0.193255828 25.8097146,0.193255828 C36.4466182,0.193255828 45.0707441,8.84622497 45.0707441,19.5187034 L45.0707441,29.1814272 C48.6163785,29.1814272 51.4910872,32.0657501 51.4910872,35.623243 L51.4910872,67.8323222 C51.4910872,71.389815 48.6163785,74.2741381 45.0707441,74.2741381 Z M38.6504009,19.5187034 C38.6504009,12.4037178 32.9009837,6.63507168 25.8097146,6.63507168 C18.7184457,6.63507168 12.9690284,12.4037178 12.9690284,19.5187034 L12.9690284,29.1814272 L38.6504009,29.1814272 L38.6504009,19.5187034 Z M45.0707441,35.623243 L6.54868524,35.623243 L6.54868524,67.8323222 L45.0707441,67.8323222 L45.0707441,35.623243 Z M25.8097146,42.0650589 C29.3553491,42.0650589 32.2300578,44.9493818 32.2300578,48.5068746 C32.2300578,50.8855153 30.9299383,52.9388441 29.0198862,54.0548886 L29.0198862,58.1695984 C29.0198862,59.9475396 27.5817293,61.3905064 25.8097146,61.3905064 C24.0376999,61.3905064 22.599543,59.9475396 22.599543,58.1695984 L22.599543,54.0548886 C20.6878859,52.9388441 19.3893715,50.8839047 19.3893715,48.5068746 C19.3893715,44.9493818 22.2640802,42.0650589 25.8097146,42.0650589 Z" fill-rule="nonzero"></path>
            </g>
        </g>
    </g>
</svg>