<?xml version="1.0" encoding="UTF-8" standalone="no"?>
<!DOCTYPE svg PUBLIC "-//W3C//DTD SVG 1.1//EN" "http://www.w3.org/Graphics/SVG/1.1/DTD/svg11.dtd">
<svg width="100%" height="100%" viewBox="0 0 52 75" version="1.1" xmlns="http://www.w3.org/2000/svg" xmlns:xlink="http://www.w3.org/1999/xlink" xml:space="preserve" xmlns:serif="http://www.serif.com/" style="fill-rule:evenodd;clip-rule:evenodd;stroke-linejoin:round;stroke-miterlimit:1.41421;">
    <path id="lock" d="M45.071,74.274L6.549,74.274C3.003,74.274 0.128,71.39 0.128,67.832L0.128,35.623C0.128,32.066 3.003,29.181 6.549,29.181L6.549,19.519C6.549,8.846 15.173,0.193 25.81,0.193C36.447,0.193 45.071,8.846 45.071,19.519L45.071,29.181C48.616,29.181 51.491,32.066 51.491,35.623L51.491,67.832C51.491,71.39 48.616,74.274 45.071,74.274ZM38.65,19.519C38.65,12.404 32.901,6.635 25.81,6.635C18.718,6.635 12.969,12.404 12.969,19.519L12.969,29.181L38.65,29.181L38.65,19.519Z" style="fill:rgb(128,191,89);fill-rule:nonzero;"/>
    <path id="lock1" serif:id="lock" d="M25.81,42.065C29.355,42.065 32.23,44.949 32.23,48.507C32.23,50.886 30.93,52.939 29.02,54.055L29.02,58.17C29.02,59.948 27.582,61.391 25.81,61.391C24.038,61.391 22.6,59.948 22.6,58.17L22.6,54.055C20.688,52.939 19.389,50.884 19.389,48.507C19.389,44.949 22.264,42.065 25.81,42.065Z" style="fill:white;fill-rule:nonzero;"/>
</svg>
