<?xml version="1.0" encoding="UTF-8"?>
<svg width="75px" height="75px" viewBox="0 0 75 75" version="1.1" xmlns="http://www.w3.org/2000/svg" xmlns:xlink="http://www.w3.org/1999/xlink">
    <!-- Generator: Sketch 51.3 (57544) - http://www.bohemiancoding.com/sketch -->
    <title>Account Settings / icon-billing</title>
    <desc>Created with Sketch.</desc>
    <defs></defs>
    <g id="icons" stroke="none" stroke-width="1" fill="none" fill-rule="evenodd">
        <g id="Account-Settings-/-icon-billing" fill="#999999">
            <g id="Shape">
                <path d="M71.3697591,31.9500789 C68.9918835,31.0432033 65.605212,30.1363277 60.9935741,30.0296364 L60.9935741,24.375 L53.9320039,24.375 L53.9320039,30.4564014 C46.2939788,31.7366964 41.7543979,35.7909641 41.7543979,41.0188356 C41.7543979,46.4067439 46.7263198,49.1807166 53.7158333,51.6346153 C60.3450626,53.7684405 62.7229384,55.5288461 62.7229384,58.2494732 C62.7229384,60.9167544 60.200949,62.997234 55.0128564,62.997234 C50.4732756,62.997234 46.2219219,61.8236301 43.4117051,60.5966807 L41.25,66.5713909 C43.98816,67.7449948 48.6718545,68.8119073 53.2834924,68.9185986 L53.2834924,75 L60.3450626,75 L60.3450626,68.4918336 C68.4874856,67.3182296 73.2432369,62.9438884 73.2432369,57.5026344 C73.2432369,51.9546891 69.3521676,48.9673341 60.8494605,46.1400158 C55.1569701,44.0595364 52.058526,42.5658589 52.058526,40.1119599 C52.058526,38.0314806 54.5084586,35.8443098 59.3362669,35.8443098 C63.5155635,35.8443098 67.0463488,36.9645679 69.2080539,37.7647524 L71.3697591,31.9500789 Z M4.41176471,7.5 C1.97647058,7.5 0,5.82 0,3.75 C0,1.68 1.97647058,0 4.41176471,0 L70.5882352,0 C73.0257352,0 75,1.68 75,3.75 C75,5.82 73.0257352,7.5 70.5882352,7.5 L4.41176471,7.5 Z M5.15625,26.25 C2.31,26.25 0,24.571875 0,22.5 C0,20.428125 2.31,18.75 5.15625,18.75 L36.09375,18.75 C38.94,18.75 41.25,20.43 41.25,22.5 C41.25,24.57 38.94,26.25 36.09375,26.25 L5.15625,26.25 Z M4.82142857,37.5 L28.9285714,37.5 C31.59,37.5 33.75,39.18 33.75,41.248125 L33.75,41.251875 C33.75,43.321875 31.59,45 28.9285714,45 L4.82142857,45 C2.16,45 0,43.32 0,41.25 C0,39.18 2.16,37.5 4.82142857,37.5 Z M18.9583333,56.25 C21.9510416,56.25 24.375,57.928125 24.375,60 C24.375,62.07 21.9510416,63.75 18.9583333,63.75 L5.41666667,63.75 C2.42666666,63.75 0,62.07 0,60 C0,57.928125 2.42666666,56.25 5.41666667,56.25 L18.9583333,56.25 Z" fill-rule="nonzero"></path>
            </g>
        </g>
    </g>
</svg>