<?xml version="1.0" encoding="UTF-8"?>
<svg width="78px" height="53px" viewBox="0 0 78 53" version="1.1" xmlns="http://www.w3.org/2000/svg" xmlns:xlink="http://www.w3.org/1999/xlink">
    <!-- Generator: Sketch 51.3 (57544) - http://www.bohemiancoding.com/sketch -->
    <title>Account Settings / icon-cc-mc</title>
    <desc>Created with Sketch.</desc>
    <defs></defs>
    <g id="icons" stroke="none" stroke-width="1" fill="none" fill-rule="evenodd">
        <g id="Account-Settings-/-icon-cc-mc" transform="translate(2.000000, 2.000000)">
            <g>
                <path d="M0,44.7758621 L0,4.22413793 C0,1.85862069 1.86385256,0 4.23602853,0 L70.3180737,0 C72.6902497,0 74.5541022,1.85862069 74.5541022,4.22413793 L74.5541022,44.7758621 C74.5541022,47.1413793 72.6902497,49 70.3180737,49 L4.23602853,49 C1.86385256,49 0,47.1413793 0,44.7758621 Z" id="border" stroke="#CCCCCC" stroke-width="3" fill="#FDFDFD" fill-rule="nonzero"></path>
                <g id="mc" transform="translate(11.301724, 8.330000)" fill-rule="nonzero">
                    <path d="M27.1085943,27.2899046 C29.9260864,29.8197554 33.7087878,31.3461584 37.8247163,31.3461584 C46.6586801,31.3461584 53.815018,24.337667 53.815018,15.7156135 C53.815018,7.0667417 46.6609782,0.0582502988 37.8247163,0.0582502988 C33.7087878,0.0582502988 29.9237883,1.58912295 27.1085943,4.11226924 C23.877441,6.98405223 21.8344146,11.1229955 21.8344146,15.7133785 C21.8344146,20.3037616 23.8797391,24.4471746 27.1085943,27.2899046 Z" id="Shape" fill="#FCB131"></path>
                    <path d="M51.6869612,24.4181216 C51.6869612,24.1499395 51.9075805,23.9353938 52.1856527,23.9353938 C52.4913023,23.9353938 52.7119216,24.1499395 52.7119216,24.4181216 C52.7119216,24.7175915 52.4913023,24.9299024 52.1856527,24.9299024 C51.9075805,24.9299024 51.6869612,24.7175915 51.6869612,24.4181216 Z M52.1856527,24.8226295 C52.406272,24.8226295 52.5970158,24.6326672 52.5970158,24.4181216 C52.5970158,24.2035759 52.406272,24.0449015 52.1856527,24.0449015 C51.9903128,24.0449015 51.8018671,24.2035759 51.8018671,24.4181216 C51.8018671,24.6326672 51.9926109,24.8226295 52.1856527,24.8226295 Z M52.1281997,24.6617203 L52.0224864,24.6617203 L52.0224864,24.2035759 L52.2132301,24.2035759 C52.2431057,24.2035759 52.2982604,24.2035759 52.3258378,24.232629 C52.3786946,24.2594471 52.3786946,24.2840305 52.3786946,24.3399018 C52.3786946,24.395773 52.3511172,24.4471746 52.2959623,24.4471746 L52.406272,24.6639551 L52.270683,24.6639551 L52.2132301,24.4717579 L52.1281997,24.4717579 L52.1281997,24.6617203 L52.1281997,24.3935382 L52.1879509,24.3935382 L52.2431057,24.3935382 C52.2752793,24.3935382 52.2752793,24.3644852 52.2752793,24.3399018 C52.2752793,24.3108487 52.2752793,24.3108487 52.2431057,24.2862654 L52.1879509,24.2862654 L52.1281997,24.2862654 L52.1281997,24.395773 L52.1281997,24.6617203 Z" id="Shape" fill="#FCB131"></path>
                    <path d="M32.2701663,14.0528846 C32.2196077,13.4897022 32.1069999,12.9533381 31.9989884,12.3879209 L22.2227965,12.3879209 C22.3308079,11.8247385 22.4985705,11.2861396 22.664035,10.7497754 L31.5278743,10.7497754 C31.3348324,10.1843582 31.111915,9.62117588 30.8637184,9.08481173 L23.3511722,9.08481173 C23.6292444,8.52162942 23.9302978,7.95844708 24.2635248,7.41984809 L29.9237883,7.41984809 C29.5652819,6.85666575 29.1516208,6.29348341 28.7080841,5.78170262 L25.4769309,5.78170262 C25.9733242,5.19170207 26.5271706,4.62851972 27.1062962,4.11673895 C24.2635248,1.618176 20.5061027,0.06272 16.3625967,0.06272 C7.5539123,0.06272 0.372295039,7.07121141 0.372295039,15.7200831 C0.372295039,24.3421366 7.5539123,31.350628 16.3625967,31.350628 C20.5061027,31.350628 24.2635248,29.8219902 27.1062962,27.2943742 C27.6854218,26.7848283 28.2116907,26.2484642 28.7080841,25.6606985 L25.4769309,25.6606985 C25.0356923,25.1243344 24.6519066,24.5879702 24.2635248,23.9957348 L29.9237883,23.9957348 C30.2845928,23.4616055 30.5925404,22.9230065 30.8637184,22.3307711 L23.3511722,22.3307711 C23.1029754,21.794407 22.8547788,21.2580428 22.6617369,20.6926256 L31.5255762,20.6926256 C31.7209162,20.1562615 31.8588032,19.5930791 31.9966903,19.0276619 C32.1047018,18.4912978 32.2173096,17.9281155 32.2678681,17.3649332 C32.3276192,16.8263342 32.3551966,16.2899701 32.3551966,15.7245529 C32.3574947,15.1546659 32.3299173,14.5892487 32.2701663,14.0528846 Z" id="Shape" fill="#ED1C2E"></path>
                    <path d="M51.6869612,19.3427759 C51.6869612,19.0477757 51.9075805,18.8309951 52.1856527,18.8309951 C52.4913023,18.8309951 52.7119216,19.0477757 52.7119216,19.3427759 C52.7119216,19.6109579 52.4913023,19.8545567 52.1856527,19.8545567 C51.9075805,19.8545567 51.6869612,19.6131929 51.6869612,19.3427759 Z M52.1856527,19.7182308 C52.406272,19.7182308 52.5970158,19.5573216 52.5970158,19.3427759 C52.5970158,19.1282302 52.406272,18.967321 52.1856527,18.967321 C51.9903128,18.967321 51.8018671,19.1282302 51.8018671,19.3427759 C51.8018671,19.5573216 51.9926109,19.7182308 52.1856527,19.7182308 Z M52.1281997,19.5573216 L52.0224864,19.5573216 L52.0224864,19.1304651 L52.2132301,19.1304651 L52.3258378,19.1304651 C52.3786946,19.1572833 52.3786946,19.2086849 52.3786946,19.2645561 C52.3786946,19.2913744 52.3511172,19.3450108 52.2959623,19.371829 L52.406272,19.5595564 L52.270683,19.5595564 L52.2132301,19.3964123 L52.1281997,19.3964123 L52.1281997,19.5573216 L52.1281997,19.3159577 L52.1879509,19.3159577 C52.2132301,19.3159577 52.2431057,19.3159577 52.2431057,19.2891395 C52.2752793,19.2891395 52.2752793,19.2623213 52.2752793,19.2377379 C52.2752793,19.2377379 52.2752793,19.2086849 52.2431057,19.2086849 C52.2431057,19.1818667 52.2132301,19.2086849 52.1879509,19.2086849 L52.1281997,19.2086849 L52.1281997,19.3159577 L52.1281997,19.5573216 Z" id="Shape" fill="#FFFFFF"></path>
                    <path d="M21.6712483,20.2300116 C21.1449793,20.3663375 20.7611937,20.4467921 20.3728118,20.4467921 C19.5431914,20.4467921 19.0422018,19.9350113 19.0422018,19.0209575 C19.0422018,18.8332299 19.0743754,18.6432677 19.0996547,18.4287221 L19.2099644,17.8141381 L19.2926966,17.3001225 L20.0395848,12.8974668 L21.6988257,12.8974668 L21.5057838,13.8629223 L22.5560234,13.8629223 L22.3078268,15.4764844 L21.2575871,15.4764844 L20.8163485,18.1091384 C20.7887711,18.2454643 20.7887711,18.323684 20.7887711,18.3795553 C20.7887711,18.7237223 20.9519374,18.8578133 21.3678967,18.8578133 C21.5586405,18.8578133 21.7264031,18.8332299 21.8918675,18.8086466 L21.6712483,20.2300116 Z" id="Shape" fill="#003473"></path>
                    <path d="M27.023564,20.1786101 C26.4191591,20.3395193 25.8676109,20.4155042 25.2586097,20.4155042 C23.3787496,20.4155042 22.3032305,19.4522836 22.3032305,17.5437212 C22.3032305,15.3133403 23.5740896,13.7042479 25.3413419,13.7042479 C26.7500879,13.7042479 27.6624406,14.616067 27.6624406,16.0396668 C27.6624406,16.5223945 27.6095839,16.978304 27.4693988,17.6241758 L24.0176262,17.6241758 C23.9900488,17.7292138 23.9900488,17.785085 23.9900488,17.8387215 C23.9900488,18.5918661 24.5094234,18.967321 25.5068064,18.967321 C26.1433849,18.967321 26.6972313,18.8309951 27.3039343,18.5650479 L27.023564,20.1786101 Z M26.0054979,16.3369019 L26.0054979,16.0128486 C26.0054979,15.4764844 25.6998483,15.1792493 25.1758775,15.1792493 C24.6220311,15.1792493 24.2359474,15.5815224 24.0681848,16.3369019 L26.0054979,16.3369019 Z" id="Shape" fill="#003473"></path>
                    <polygon id="Shape" fill="#003473" points="8.41111014 20.3082314 6.69901258 20.3082314 7.69639559 14.2137938 5.45802912 20.3082314 4.26990235 20.3082314 4.13201531 14.2428469 3.08177559 20.3082314 1.39725546 20.3082314 2.75084667 12.3879209 5.26958348 12.3879209 5.32014207 17.2755391 7.00236409 12.3879209 9.76470138 12.3879209"></polygon>
                    <path d="M12.5844916,17.4386832 C12.4144309,17.4096302 12.3638722,17.4096302 12.2512645,17.4096302 C11.2561797,17.4096302 10.7620844,17.7873199 10.7620844,18.3795553 C10.7620844,18.7818284 11.010281,19.0500105 11.3963648,19.0500105 C12.2236871,19.0500105 12.5592122,18.3795553 12.5844916,17.4386832 Z M13.9656602,20.3082314 L12.4741819,20.3082314 L12.5017593,19.6355413 C12.1156756,20.1473221 11.5917048,20.4155042 10.6793522,20.4155042 C9.85202983,20.4155042 9.13731526,19.6936474 9.13731526,18.6432677 C9.13731526,18.3527371 9.18787388,18.0823202 9.27290422,17.8141381 C9.54867828,16.8196296 10.5690425,16.1983412 12.1455511,16.1759926 C12.3431892,16.1759926 12.6419445,16.1759926 12.9200167,16.200576 C12.9728734,15.9860304 12.9728734,15.9100455 12.9728734,15.7737195 C12.9728734,15.3468631 12.6143671,15.2105372 11.8123241,15.2105372 C11.3182288,15.2105372 10.7643825,15.2909918 10.3760006,15.4250828 L10.1301021,15.4809541 L10.0197924,15.5077723 L10.2702872,14.0573543 C11.067734,13.8182253 11.653754,13.7087176 12.2834382,13.7087176 C13.7726183,13.7087176 14.5746613,14.3814077 14.5746613,15.6150452 C14.5746613,15.9390985 14.6045369,16.1804624 14.4896309,16.8755009 L14.1058453,19.1863363 L14.0506905,19.5908443 L14.0162188,19.9081931 L13.9909395,20.1227388 L13.9656602,20.3082314 Z" id="Shape" fill="#003473"></path>
                    <path d="M35.3703268,13.9187936 C35.8644221,13.9187936 36.3079587,14.0528846 36.9146618,14.3478849 L37.2180133,12.6270499 C37.0525488,12.5465953 36.997394,12.5465953 36.7767747,12.4683755 L36.0873395,12.2806481 C35.8644221,12.2270117 35.590946,12.1957237 35.2852965,12.1957237 C34.4280986,12.1957237 33.9340034,12.2270117 33.4077344,12.522012 C33.1319603,12.7097394 32.773454,12.9511033 32.3873703,13.3801945 L32.1667509,13.3265582 L30.3994986,14.5356123 L30.4822309,13.8629223 L28.6575255,13.8629223 L27.5774103,20.3082314 L29.3147872,20.3082314 L29.9513657,16.844213 C29.9513657,16.844213 30.1995623,16.3614852 30.309872,16.1983412 C30.6408009,15.8005378 30.916575,15.8005378 31.2819757,15.8005378 L31.4152666,15.8005378 C31.3555155,16.1737578 31.3302362,16.5782658 31.3302362,17.0341753 C31.3302362,19.1304651 32.5459403,20.4467921 34.4235024,20.4467921 C34.8946165,20.4467921 35.3059795,20.3931557 35.942558,20.2300116 L36.2482077,18.4041387 C35.6920633,18.699139 35.197968,18.8332299 34.7797106,18.8332299 C33.7639427,18.8332299 33.1526434,18.0823202 33.1526434,16.9000843 C33.1572397,15.1546659 34.0695922,13.9187936 35.3703268,13.9187936 Z" id="Shape" fill="#003473"></path>
                    <path d="M50.0323166,12.3879209 L49.6462328,14.6406503 C49.2325717,14.0260664 48.7361783,13.7288313 48.0720223,13.7288313 C47.1596697,13.7288313 46.3024718,14.240612 45.7807991,15.2060675 L45.7807991,15.1814841 L44.6754047,14.5356123 L44.7857143,13.8629223 L42.9357297,13.8629223 L41.88549,20.3082314 L43.6021838,20.3082314 L44.1790113,16.844213 C44.1790113,16.844213 44.6179517,16.3614852 44.7328576,16.1983412 C45.0063335,15.8787575 45.2775115,15.8251211 45.502727,15.8005378 C45.3096851,16.3369019 45.1993754,16.978304 45.1993754,17.7046304 C45.1993754,19.3159577 46.0565733,20.3909209 47.3251341,20.3909209 C47.9594146,20.3909209 48.4558079,20.1763751 48.9223259,19.6668292 L48.848786,20.3082314 L50.4735552,20.3082314 L51.8018671,12.3879209 L50.0323166,12.3879209 Z M47.9065578,18.7818284 C47.3274322,18.7818284 47.0263789,18.354972 47.0263789,17.5191378 C47.0263789,16.2564473 47.5710328,15.3446283 48.377672,15.3446283 C48.984375,15.3446283 49.2877266,15.8027726 49.2877266,16.605084 C49.2877266,17.8945927 48.7338802,18.7818284 47.9065578,18.7818284 Z" id="Shape" fill="#003473"></path>
                    <path d="M39.9251957,17.4386832 C39.7597313,17.4096302 39.7045765,17.4096302 39.5896706,17.4096302 C38.5991819,17.4096302 38.1027885,17.7873199 38.1027885,18.3795553 C38.1027885,18.7818284 38.3486871,19.0500105 38.737069,19.0500105 C39.5643913,19.0500105 39.8953202,18.3795553 39.9251957,17.4386832 Z M41.3086625,20.3082314 L39.7873087,20.3082314 L39.8424635,19.6355413 C39.4563797,20.1473221 38.932409,20.4155042 38.0223544,20.4155042 C37.1628584,20.4155042 36.4205665,19.7182308 36.4205665,18.6432677 C36.4205665,17.1146299 37.6086933,16.1759926 39.4885534,16.1759926 C39.6769991,16.1759926 39.9826486,16.1759926 40.2308453,16.200576 C40.2860002,15.9860304 40.3135776,15.9100455 40.3135776,15.7737195 C40.3135776,15.3468631 39.9550713,15.2105372 39.1231527,15.2105372 C38.6566348,15.2105372 38.0752111,15.2909918 37.6914255,15.4250828 L37.4708062,15.4809541 L37.3604966,15.5077723 L37.6086933,14.0573543 C38.4084382,13.8182253 38.9875638,13.7087176 39.6241423,13.7087176 C41.1156206,13.7087176 41.8877881,14.3814077 41.8877881,15.6150452 C41.8877881,15.9390985 41.9429429,16.1804624 41.8050559,16.8755009 L41.4465495,19.1863363 L41.3913947,19.5908443 L41.3339417,19.9081931 L41.3086625,20.1227388 L41.3086625,20.3082314 Z" id="Shape" fill="#003473"></path>
                    <path d="M17.5851953,15.2351206 C17.9115279,15.2351206 18.3826421,15.2619388 18.8790354,15.3423934 L19.1249341,13.838339 C18.6308388,13.7847025 17.9666828,13.7042479 17.5851953,13.7042479 C15.6478822,13.7042479 15.0113036,14.7233397 15.0113036,15.9078105 C15.0113036,16.6855385 15.36981,17.2509557 16.307442,17.6778123 C16.9991753,18.0018656 17.1140812,18.0532671 17.1140812,18.3527371 C17.1140812,18.7505405 16.7486805,18.9941392 16.0891208,18.9941392 C15.56515,18.9941392 15.0733528,18.9159194 14.5172084,18.7237223 L14.3241666,20.2009585 L14.351744,20.2300116 L14.6826728,20.2814132 C14.7952806,20.3082314 14.9285715,20.3372844 15.1262096,20.3641026 C15.5421688,20.3909209 15.898377,20.4132693 16.1212944,20.4132693 C18.0540113,20.4132693 18.8537561,19.6914126 18.8537561,18.2678128 C18.8537561,17.3805771 18.4125176,16.8419781 17.5553197,16.4687581 C16.8107297,16.1424699 16.7256993,16.0910683 16.7256993,15.7983029 C16.7256993,15.5033026 17.0566283,15.2351206 17.5851953,15.2351206 Z" id="Shape" fill="#003473"></path>
                    <path d="M37.6868292,12.1219737 L37.3811797,13.8405738 C36.7744766,13.5433387 36.3309399,13.4092477 35.8391428,13.4092477 C34.5361102,13.4092477 33.6260556,14.6428852 33.6260556,16.3905383 C33.6260556,17.5995925 34.2373548,18.323684 35.2531228,18.323684 C35.6690821,18.323684 36.1631773,18.189593 36.7193218,17.921411 L36.4159703,19.7204656 C35.7793917,19.8813749 35.3680287,19.9573598 34.8969146,19.9573598 C33.0193526,19.9573598 31.8588032,18.6432677 31.8588032,16.5246293 C31.8588032,13.7042479 33.4605911,11.7174658 35.7518143,11.7174658 C36.057464,11.7174658 36.3309399,11.744284 36.5538573,11.8001552 L37.2432926,11.9588296 C37.46621,12.0392843 37.5167685,12.0661024 37.6868292,12.1219737 Z" id="Shape" fill="#FFFFFF"></path>
                    <path d="M32.1069999,13.29974 L31.9438335,13.29974 C31.3578136,13.29974 31.0337791,13.5701569 30.505212,14.3478849 L30.6706765,13.3556112 L29.0941678,13.3556112 L28.0186489,19.8009203 L29.7537276,19.8009203 C30.3949023,15.8497045 30.5603668,15.1792493 31.3876891,15.1792493 L31.502595,15.1792493 C31.6634632,14.3992864 31.8863806,13.8361041 32.1621547,13.3243233 L32.1069999,13.29974 Z" id="Shape" fill="#FFFFFF"></path>
                    <path d="M22.1124868,19.7182308 C21.6413727,19.87914 21.255289,19.9350113 20.8669071,19.9350113 C19.9867281,19.9350113 19.4834403,19.4522836 19.4834403,18.5091766 C19.4834403,18.3527371 19.515614,18.1337218 19.5431914,17.9459943 L19.6557991,17.2978877 L19.7362333,16.7905766 L20.4854196,12.3856861 L22.1952191,12.3856861 L21.9998791,13.3533763 L22.8869524,13.3533763 L22.6663331,14.9356505 L21.7792597,14.9356505 L21.3127419,17.621941 C21.2851645,17.726979 21.2851645,17.8096684 21.2851645,17.890123 C21.2851645,18.2119415 21.4552252,18.3482674 21.8642901,18.3482674 C22.057332,18.3482674 22.2250946,18.3482674 22.3331061,18.2923961 L22.1124868,19.7182308 Z" id="Shape" fill="#FFFFFF"></path>
                    <path d="M15.4548403,15.3960298 C15.4548403,16.1983412 15.8409241,16.7659932 16.7486805,17.1973194 C17.4702894,17.5191378 17.5851953,17.6264107 17.5851953,17.8945927 C17.5851953,18.2968658 17.2772475,18.4845933 16.5855141,18.4845933 C16.0569472,18.4845933 15.5904293,18.4041387 15.038881,18.2454643 L14.7906844,19.7204656 L14.8711184,19.745049 L15.17447,19.8031551 C15.2893759,19.8299733 15.4249648,19.8545567 15.6455841,19.8545567 C16.0316678,19.9081931 16.3625967,19.9081931 16.583216,19.9081931 C18.4056233,19.9081931 19.2582248,19.2355031 19.2582248,17.756032 C19.2582248,16.8710311 18.9043147,16.3614852 18.0471169,15.9569773 C17.3025268,15.6351588 17.2151984,15.5547042 17.2151984,15.2597039 C17.2151984,14.9110672 17.520848,14.7479231 18.0746943,14.7479231 C18.4079214,14.7479231 18.8767373,14.7747413 19.3202741,14.8283778 L19.5661726,13.3533763 C19.1226359,13.2706869 18.4332007,13.2170505 18.0471169,13.2170505 C16.1189963,13.2215202 15.4272629,14.2137938 15.4548403,15.3960298 Z" id="Shape" fill="#FFFFFF"></path>
                    <path d="M50.9147937,19.8031551 L49.2877266,19.8031551 L49.3681606,19.1841015 C48.8970466,19.6690641 48.4029513,19.8813749 47.7663727,19.8813749 C46.4955137,19.8813749 45.6681914,18.8332299 45.6681914,17.2241376 C45.6681914,15.0742113 46.9666278,13.2483384 48.4833853,13.2483384 C49.1751188,13.2483384 49.6761084,13.5411038 50.1449243,14.1333392 L50.5264119,11.8761401 L52.2431057,11.8761401 L50.9147937,19.8031551 Z M48.377672,18.2968658 C49.1751188,18.2968658 49.7289651,17.382812 49.7289651,16.1223563 C49.7289651,15.288757 49.4256135,14.8596656 48.8189105,14.8596656 C48.0444449,14.8596656 47.4676174,15.7424317 47.4676174,17.007357 C47.4653193,17.8633049 47.7663727,18.2968658 48.377672,18.2968658 Z" id="Shape" fill="#FFFFFF"></path>
                    <path d="M27.414244,19.6668292 C26.8029447,19.8545567 26.2582908,19.9350113 25.6194141,19.9350113 C23.6866973,19.9350113 22.6893143,18.9427376 22.6893143,17.0341753 C22.6893143,14.8328474 23.9670677,13.1947019 25.7044445,13.1947019 C27.1407679,13.1947019 28.0508225,14.1087559 28.0508225,15.5278859 C28.0508225,16.0150834 27.9956677,16.4732277 27.8302032,17.143683 L24.4060081,17.143683 C24.3761326,17.2263724 24.3761326,17.2777739 24.3761326,17.3314104 C24.3761326,18.084555 24.9024015,18.4600099 25.8928902,18.4600099 C26.5294687,18.4600099 27.083315,18.354972 27.690018,18.0555019 L27.414244,19.6668292 Z M26.4467365,15.8251211 L26.4467365,15.5010677 C26.4467365,14.9647037 26.1433849,14.6697034 25.6194141,14.6697034 C25.0655678,14.6697034 24.6817822,15.0719765 24.5117215,15.8251211 L26.4467365,15.8251211 Z" id="Shape" fill="#FFFFFF"></path>
                    <polygon id="Shape" fill="#FFFFFF" points="8.85464681 19.8031551 7.14254926 19.8031551 8.13763415 13.7042479 5.89926768 19.8031551 4.71114092 19.8031551 4.5778501 13.7534146 3.52071604 19.8031551 1.91892813 19.8031551 3.27481747 11.8761401 5.76138063 11.8761401 5.84411286 16.7928114 7.50105559 11.8761401 10.208238 11.8761401"></polygon>
                    <path d="M13.1337416,16.9269024 C12.9682772,16.9269024 12.8832468,16.9000843 12.7476579,16.9000843 C11.7824485,16.9000843 11.2814589,17.2487209 11.2814589,17.8945927 C11.2814589,18.2968658 11.5020782,18.5359948 11.8927582,18.5359948 C12.6097709,18.5359948 13.1038661,17.8945927 13.1337416,16.9269024 Z M14.4068988,19.8031551 L12.9705753,19.8031551 L13.0004509,19.1304651 C12.5615103,19.6668292 11.9754904,19.910428 11.1780436,19.910428 C10.2358154,19.910428 9.601535,19.2109197 9.601535,18.1627748 C9.601535,16.5805006 10.7046314,15.6664467 12.6396464,15.6664467 C12.8326883,15.6664467 13.0808849,15.6932649 13.3566591,15.7178483 C13.4118139,15.5033026 13.4118139,15.4206132 13.4118139,15.3133403 C13.4118139,14.8864839 13.1061642,14.7233397 12.3087174,14.7233397 C11.8100259,14.7233397 11.2584778,14.779211 10.872394,14.884249 L10.6241973,14.9647037 L10.4564347,14.9937567 L10.7046314,13.5411038 C11.5618292,13.3019748 12.1409549,13.2215202 12.7775334,13.2215202 C14.2644154,13.2215202 15.0710547,13.8629223 15.0710547,15.0987947 C15.0710547,15.4206132 15.038881,15.6642119 14.9262733,16.3905383 L14.5424877,18.6745556 L14.4850347,19.072359 L14.4574573,19.3986471 L14.432178,19.6355413 L14.4068988,19.8031551 Z" id="Shape" fill="#FFFFFF"></path>
                    <path d="M40.476744,16.9269024 C40.2837021,16.9269024 40.2009698,16.9000843 40.0906602,16.9000843 C39.0955753,16.9000843 38.60148,17.2487209 38.60148,17.8945927 C38.60148,18.2968658 38.8473786,18.5359948 39.2357604,18.5359948 C39.9251957,18.5359948 40.4491666,17.8945927 40.476744,16.9269024 Z M41.7476029,19.8031551 L40.3112795,19.8031551 L40.3388569,19.1304651 C39.8953202,19.6668292 39.3161946,19.9081931 38.5164497,19.9081931 C37.5765197,19.9081931 36.939941,19.2086849 36.939941,18.16054 C36.939941,16.5782658 38.0453356,15.6642119 39.9780524,15.6642119 C40.1756905,15.6642119 40.4215891,15.6910301 40.6674877,15.7156135 C40.7203444,15.5010677 40.752518,15.4183783 40.752518,15.3111055 C40.752518,14.884249 40.4468684,14.7211049 39.6471235,14.7211049 C39.1507301,14.7211049 38.5739026,14.7769762 38.1832227,14.8820142 L37.9626034,14.9624688 L37.7971389,14.989287 L38.0453356,13.5366341 C38.8979372,13.2975051 39.4839572,13.2170505 40.1159395,13.2170505 C41.6074178,13.2170505 42.3795853,13.8584526 42.3795853,15.094325 C42.3795853,15.4161434 42.3795853,15.6597422 42.2416982,16.3860686 L41.8808937,18.6700859 L41.8257389,19.0678893 L41.7728822,19.3941775 L41.7453048,19.6333065 L41.7453048,19.8031551 L41.7476029,19.8031551 Z" id="Shape" fill="#FFFFFF"></path>
                    <path d="M46.3875022,13.29974 L46.2220378,13.29974 C45.6452103,13.29974 45.3119832,13.5701569 44.7857143,14.3478849 L44.9534769,13.3556112 L43.3769683,13.3556112 L42.3244304,19.8009203 L44.0411242,19.8009203 C44.6731066,15.8497045 44.8385709,15.1792493 45.6681914,15.1792493 L45.7807991,15.1792493 C45.9439655,14.3992864 46.1645848,13.8361041 46.4403589,13.3243233 L46.3875022,13.29974 Z" id="Shape" fill="#FFFFFF"></path>
                </g>
            </g>
        </g>
    </g>
</svg>