<?xml version="1.0" encoding="UTF-8"?>
<svg width="79px" height="53px" viewBox="0 0 79 53" version="1.1" xmlns="http://www.w3.org/2000/svg" xmlns:xlink="http://www.w3.org/1999/xlink">
    <!-- Generator: Sketch 51.3 (57544) - http://www.bohemiancoding.com/sketch -->
    <title>Account Settings / icon-cc-amex</title>
    <desc>Created with Sketch.</desc>
    <defs>
        <radialGradient cx="17.9249714%" cy="17.2851366%" fx="17.9249714%" fy="17.2851366%" r="73.6635913%" gradientTransform="translate(0.179250,0.172851),scale(0.993067,1.000000),translate(-0.179250,-0.172851)" id="radialGradient-1">
            <stop stop-color="#68BFF4" offset="0%"></stop>
            <stop stop-color="#5CB2EF" offset="17.32%"></stop>
            <stop stop-color="#3D90E0" offset="49.22%"></stop>
            <stop stop-color="#0A5ACA" offset="91.88%"></stop>
            <stop stop-color="#004FC5" offset="100%"></stop>
        </radialGradient>
        <rect id="path-2" x="0.264979757" y="0.200422564" width="36.8421053" height="36.5866667"></rect>
    </defs>
    <g id="icons" stroke="none" stroke-width="1" fill="none" fill-rule="evenodd">
        <g id="Account-Settings-/-icon-cc-amex" transform="translate(2.000000, 2.000000)">
            <g>
                <path d="M0,44.7758621 L0,4.22413793 C0,1.85862069 1.87159709,0 4.25362977,0 L70.6102541,0 C72.9922867,0 74.8638839,1.85862069 74.8638839,4.22413793 L74.8638839,44.7758621 C74.8638839,47.1413793 72.9922867,49 70.6102541,49 L4.25362977,49 C1.87159709,49 0,47.1413793 0,44.7758621 Z" id="border" stroke="#CCCCCC" stroke-width="3" fill="#FDFDFD" fill-rule="nonzero"></path>
                <g id="amex" transform="translate(18.750000, 5.880000)">
                    <rect id="Rectangle-path" fill="url(#radialGradient-1)" fill-rule="nonzero" x="0.771052632" y="0.702986667" width="36.8421053" height="36.5866667"></rect>
                    <g id="Clipped" transform="translate(0.506073, 0.502564)">
                        <g id="Group-Clipped">
                            <mask id="mask-3" fill="white">
                                <use xlink:href="#path-2"></use>
                            </mask>
                            <g id="path-2"></g>
                            <g id="Group" mask="url(#mask-3)">
                                <g transform="translate(-1.724138, 9.456140)">
                                    <g transform="translate(0.310624, 0.494629)">
                                        <path d="M24.5442831,13.9604267 L24.5442831,12.5570667 C24.5442831,12.5570667 24.53902,12.43424 24.4758621,12.4237867 C24.3916516,12.4081067 24.2100726,12.4133333 24.2100726,12.4133333 L24.2100726,13.9604267 L22.8732305,13.9604267 L21.4127041,13.9604267 L21.4127041,12.3532267 C21.4127041,12.3532267 21.0153358,12.4917333 20.8048094,12.5257067 C20.4205989,12.5805867 19.6416516,12.56752 19.6416516,12.56752 L19.6416516,13.9604267 L16.2811253,13.9604267 L15.4442831,13.0509867 L14.5732305,13.9604267 L12.9758621,13.9604267 L10.5600726,13.9604267 L9.06533578,13.9604267 L9.06533578,7.96282667 L14.38902,7.96282667 L14.6521778,7.96282667 L15.4732305,8.86181333 L16.3363884,7.96282667 L19.9311253,7.96282667 C20.2258621,7.98896 20.5311253,7.99418667 20.8284936,8.036 C21.0758621,8.0752 21.307441,8.18234667 21.5205989,8.3104 L21.5205989,7.96021333 L24.2021778,7.96021333 C24.2021778,7.96021333 24.6969147,7.94976 24.93902,7.98112 C25.2337568,7.9968 25.5337568,8.02554667 25.8127041,8.11701333 C25.9705989,8.16666667 26.2627041,8.31301333 26.2627041,8.31301333 L26.2627041,7.96282667 L31.3416516,7.96282667 L31.3416516,8.32346667 C31.3416516,8.32346667 31.6311253,8.14314667 31.7969147,8.09349333 C32.1048094,7.99941333 32.4284936,7.98634667 32.7495463,7.96282667 C33.6337568,7.96544 35.407441,7.96282667 35.407441,7.96282667 L35.407441,8.32346667 C35.407441,8.32346667 35.7048094,8.1536 35.8758621,8.10656 C36.3416516,7.96544 36.8363884,7.96282667 37.3205989,7.96282667 L39.1205989,7.96282667 L39.1205989,13.70432 L38.6179673,13.70432 C38.1416516,13.9290667 37.6179673,13.97088 37.0863884,13.9604267 L35.3784936,13.9604267 L34.407441,13.9604267 L34.407441,13.6024 C34.407441,13.6024 34.0416516,13.9604267 33.307441,13.9604267 L24.5442831,13.9604267 Z" id="Shape" stroke="#FFFFFF" stroke-width="0.0022" fill="#FFFFFF" fill-rule="nonzero"></path>
                                        <g id="Shape">
                                            <path d="M34.0416516,0.569706667 L34.0416516,1.24133333 L33.6232305,0.569706667 L30.6811253,0.569706667 L30.6811253,1.26746667 L30.3179673,0.569706667 L26.9469147,0.569706667 C26.5863884,0.567093333 26.2179673,0.58016 25.857441,0.582773333 C25.6021778,0.61936 25.3469147,0.637653333 25.1021778,0.71344 C24.907441,0.755253333 24.5653358,0.91728 24.5653358,0.91728 L24.5653358,0.569706667 L24.057441,0.569706667 L22.2021778,0.569706667 L21.8179673,0.569706667 L21.8179673,0.90944 C21.8179673,0.90944 21.3758621,0.57232 20.7627041,0.569706667 C20.3153358,0.567093333 19.3995463,0.569706667 19.3995463,0.569706667 L16.9521778,0.569706667 L14.4811253,0.569706667 L11.3548094,0.569706667 L10.5942831,0.569706667 L9.89691474,2.10896 L9.22586207,0.569706667 L8.93638836,0.569706667 L6.57849365,0.569706667 L6.04165154,0.569706667 L6.03112522,1.23349333 L5.6969147,0.569706667 L5.22059891,0.569706667 L2.98901997,0.569706667 L1.74954628,3.39994667 L0.360072595,6.55685333 L1.74954628,6.55685333 L3.50744102,6.55685333 L3.90217786,5.60037333 L4.80217786,5.6056 L5.20217786,6.55685333 L5.75217786,6.55685333 L8.46270414,6.55685333 L8.68638836,6.55685333 L8.68638836,5.84602667 L8.99691474,6.55424 L9.4942831,6.55424 L10.8127041,6.55424 L11.1153358,5.87477333 L11.1153358,6.55424 L15.357441,6.55424 L19.7732305,6.55424 L19.7732305,5.65002667 L19.7732305,4.98624 C19.7732305,4.98624 19.9258621,4.98362667 19.98902,5.00192 C20.1048094,5.03589333 20.08902,5.15349333 20.08902,5.15349333 L20.08902,6.55685333 L22.5521778,6.55685333 L24.5679673,6.55685333 L24.5679673,6.19882667 C24.5679673,6.19882667 24.9232305,6.36085333 25.1179673,6.41312 C25.6521778,6.56469333 26.7679673,6.55685333 26.7679673,6.55685333 L28.1363884,6.55685333 L28.5416516,5.59514667 L29.4153358,5.59514667 L29.8337568,6.55685333 L33.4363884,6.55685333 L33.4363884,5.64741333 L34.0205989,6.55685333 L36.8995463,6.55685333 L36.8995463,0.569706667 L34.0416516,0.569706667 Z" fill="#FFFFFF" fill-rule="nonzero"></path>
                                            <path d="M34.0416516,0.569706667 L34.0416516,1.24133333 L33.6232305,0.569706667 L30.6811253,0.569706667 L30.6811253,1.26746667 L30.3179673,0.569706667 L26.9469147,0.569706667 C26.5863884,0.567093333 26.2179673,0.58016 25.857441,0.582773333 C25.6021778,0.61936 25.3469147,0.637653333 25.1021778,0.71344 C24.907441,0.755253333 24.5653358,0.91728 24.5653358,0.91728 L24.5653358,0.569706667 L24.057441,0.569706667 L22.2021778,0.569706667 L21.8179673,0.569706667 L21.8179673,0.90944 C21.8179673,0.90944 21.3758621,0.57232 20.7627041,0.569706667 C20.3153358,0.567093333 19.3995463,0.569706667 19.3995463,0.569706667 L16.9521778,0.569706667 L14.4811253,0.569706667 L11.3548094,0.569706667 L10.5942831,0.569706667 L9.89691474,2.10896 L9.22586207,0.569706667 L8.93638836,0.569706667 L6.57849365,0.569706667 L6.04165154,0.569706667 L6.03112522,1.23349333 L5.6969147,0.569706667 L5.22059891,0.569706667 L2.98901997,0.569706667 L1.74954628,3.39994667 L0.360072595,6.55685333 L1.74954628,6.55685333 L3.50744102,6.55685333 L3.90217786,5.60037333 L4.80217786,5.6056 L5.20217786,6.55685333 L5.75217786,6.55685333 L8.46270414,6.55685333 L8.68638836,6.55685333 L8.68638836,5.84602667 L8.99691474,6.55424 L9.4942831,6.55424 L10.8127041,6.55424 L11.1153358,5.87477333 L11.1153358,6.55424 L15.357441,6.55424 L19.7732305,6.55424 L19.7732305,5.65002667 L19.7732305,4.98624 C19.7732305,4.98624 19.9258621,4.98362667 19.98902,5.00192 C20.1048094,5.03589333 20.08902,5.15349333 20.08902,5.15349333 L20.08902,6.55685333 L22.5521778,6.55685333 L24.5679673,6.55685333 L24.5679673,6.19882667 C24.5679673,6.19882667 24.9232305,6.36085333 25.1179673,6.41312 C25.6521778,6.56469333 26.7679673,6.55685333 26.7679673,6.55685333 L28.1363884,6.55685333 L28.5416516,5.59514667 L29.4153358,5.59514667 L29.8337568,6.55685333 L33.4363884,6.55685333 L33.4363884,5.64741333 L34.0205989,6.55685333 L36.8995463,6.55685333 L36.8995463,0.569706667 L34.0416516,0.569706667 Z" stroke="#FFFFFF" stroke-width="0.0022"></path>
                                        </g>
                                    </g>
                                </g>
                            </g>
                        </g>
                    </g>
                    <g id="Group" transform="translate(0.000000, 11.175439)" fill="#0075D2" fill-rule="nonzero">
                        <g id="Shape" transform="translate(0.000000, 0.137544)">
                            <polygon points="12.7026316 0.556777544 16.1710527 0.556777544 16.1710527 1.45576421 13.7789473 1.45837754 13.7789473 2.22147088 15.1421053 2.22931088 16.1131579 2.22931088 16.1131579 2.78333754 16.1157895 3.12568421 13.9026316 3.12568421 13.768421 3.13875088 13.7578947 3.95411088 16.1736842 3.95933754 16.1736842 4.86355088 13.6105263 4.86355088 12.7026316 4.86355088 12.7026316 0.562004211"></polygon>
                            <polyline points="21.6578947 4.86355088 21.6552632 0.556777544 21.6552632 0.562004211 22.7394737 0.556777544 22.7394737 4.86355088"></polyline>
                            <path d="M11.9447368,0.556777544 L10.2289473,0.556777544 L9.92105267,1.28067088 L8.96842103,3.47848421 L8.57894737,2.62915088 L7.62105263,0.556777544 L5.92105263,0.556777544 L5.91842105,4.61267088 L5.8368421,4.42712421 L4.55263158,1.47144421 L4.16842105,0.559390877 L2.62105263,0.559390877 L0.765789473,4.86355088 L1.89210527,4.86355088 L1.93947368,4.76947088 L2.29736842,3.91491088 L2.7368421,3.91491088 L4.2368421,3.91491088 L4.4631579,3.91491088 L4.83947368,4.86355088 L5.09210527,4.86355088 L6.94736842,4.86355088 L6.94736842,2.37304421 L6.94736842,1.49757754 L7.89473684,3.59869754 L8.47105263,4.86355088 L8.92368422,4.86355088 L9.38421052,4.86355088 L10.2447368,2.92707088 L10.8763158,1.57859088 L10.8763158,2.07773754 L10.8763158,3.07341754 L10.8763158,4.86355088 L11.4263158,4.86355088 L11.9473684,4.86355088 L11.9447368,0.556777544 Z M2.67368421,2.99501754 L2.73421053,2.84344421 L3.36578947,1.34600421 L3.77894737,2.29464421 L4.05789473,2.99501754 L2.67368421,2.99501754 Z"></path>
                            <path d="M29.4447368,4.86355088 L29.0605263,3.91752421 L28.8473684,3.91752421 L27.1078947,3.91752421 L26.8868421,3.91752421 L26.5157895,4.86355088 C26.5157895,4.86355088 25.5342105,4.85571088 25.0421053,4.86355088 C24.7710527,4.84264421 24.5,4.79299088 24.2473684,4.68323088 C23.881579,4.55779088 23.5921053,4.25725754 23.4394737,3.90184421 C23.2894737,3.63005754 23.2605263,3.31645754 23.2210527,3.01331088 C23.218421,2.84344421 23.2131579,2.66835088 23.2289473,2.50109754 C23.2710527,2.23192421 23.2921053,1.95491088 23.3921053,1.70141754 C23.4973684,1.38259088 23.7052632,1.10557754 23.9736842,0.901737544 C24.0947368,0.812884211 24.2342105,0.768457544 24.368421,0.708350877 C24.7894737,0.556777544 25.25,0.554164211 25.6921053,0.556777544 L26.381579,0.556777544 L26.381579,1.48712421 C26.381579,1.48712421 25.5657895,1.47928421 25.1631579,1.50019088 C24.95,1.54461754 24.7157895,1.60733754 24.5736842,1.78504421 C24.4973684,1.89480421 24.418421,2.01501754 24.3763158,2.14568421 C24.281579,2.52461754 24.281579,2.92445754 24.368421,3.30600421 C24.4447368,3.53336421 24.5736842,3.79469754 24.8263158,3.87048421 C25.1394737,3.95149754 25.4526316,3.96456421 25.7710527,3.94888421 C25.8473684,3.73720421 26.0342105,3.32429754 26.0342105,3.32429754 L27.231579,0.556777544 L28.7842105,0.556777544 L30.5157895,4.56301754 L30.5263158,3.33736421 L30.5263158,0.556777544 L32.1552632,0.556777544 L32.3026316,0.841630877 L33.0131579,2.01240421 L33.2210527,2.36259088 L33.9210527,3.49155088 L33.9236842,0.556777544 L35.0052632,0.556777544 L35.0052632,4.86355088 L33.5368421,4.87400421 L31.5710527,1.66744421 L31.5578947,4.86355088 M28.668421,2.98456421 L28.5342105,2.63699088 L28.3605263,2.21101754 L27.9894737,1.34339088 L27.8026316,1.76675088 L27.4368421,2.64221754 L27.3105263,2.98195088"></path>
                            <path d="M19.9763158,4.86355088 C19.9763158,4.86355088 19.9789473,4.31997754 19.968421,4.04296421 C19.9631579,3.91491088 19.9447368,3.80776421 19.9157895,3.69277754 C19.8868421,3.58040421 19.8236842,3.52813754 19.7526316,3.47064421 C19.5447368,3.32691088 19.2763158,3.31123088 19.031579,3.30861754 C18.6710527,3.30339088 17.931579,3.30600421 17.931579,3.30600421 L17.931579,3.48632421 L17.931579,4.86355088 L17.3210527,4.86355088 L16.8868421,4.86355088 L16.8868421,0.556777544 L16.8868421,0.559390877 C16.8868421,0.559390877 18.668421,0.559390877 19.5631579,0.556777544 C19.8394737,0.554164211 20.1210527,0.588137544 20.381579,0.684830877 C20.5973684,0.784137544 20.8131579,0.917417544 20.931579,1.13171088 C21.0947368,1.42963088 21.0947368,1.79027088 21.0263158,2.11432421 C20.931579,2.44099088 20.6789473,2.69971088 20.3921053,2.86435088 C20.481579,2.93491088 20.581579,2.98195088 20.6736842,3.04989754 C20.831579,3.17011088 20.9552632,3.34259088 20.9947368,3.54120421 C21.0526316,3.98285754 21.0289473,4.86355088 21.0289473,4.86355088 M17.931579,2.40701754 L18.0868421,2.40701754 L19.0894737,2.40701754 C19.3026316,2.40963088 19.5263158,2.42792421 19.7157895,2.32077754 C19.9657895,2.15613754 19.9921053,1.72755088 19.731579,1.55768421 C19.618421,1.50019088 19.4842105,1.47144421 19.3552632,1.46360421 C18.9552632,1.44531088 18.1473684,1.45315088 18.1473684,1.45315088 L17.931579,1.45315088"></path>
                        </g>
                        <g id="Shape" transform="translate(8.756806, 7.977544)">
                            <polyline points="17.31951 0.128190877 17.31951 0.128190877 20.7931942 0.128190877 20.7931942 1.02979088 18.3800363 1.02979088 18.3800363 1.79549754 20.7300363 1.79549754 20.7300363 2.69709754 18.3800363 2.69709754 18.3800363 3.54643088 20.7931942 3.54643088 20.7931942 4.44803088 17.3221416 4.44803088"></polyline>
                            <path d="M23.0668784,1.05592421 C22.8826678,1.05853754 22.6826678,1.05331088 22.51951,1.16045754 C22.3800363,1.27805754 22.3326678,1.51587088 22.4642468,1.65960421 C22.5089837,1.73800421 22.6089837,1.75891088 22.687931,1.78765754 C23.2221416,1.82947088 23.76951,1.77197754 24.287931,1.92616421 C24.4826678,1.98104421 24.66951,2.08035088 24.8116153,2.22147088 C25.0089837,2.47235088 25.0774047,2.79379088 25.06951,3.11000421 C25.0484573,3.38179088 25.0168784,3.66141754 24.8642468,3.89661754 C24.701089,4.10045754 24.4826678,4.27032421 24.2326678,4.34611088 C23.9905626,4.41667088 23.9168784,4.45325754 23.4826678,4.45325754 C22.787931,4.44803088 21.3958258,4.44803088 21.3958258,4.44803088 L21.3958258,3.52029754 C21.3958258,3.52029754 22.8300363,3.52029754 23.5431942,3.51507088 C23.6774047,3.51507088 23.8247731,3.46803088 23.8984573,3.34781754 C23.96951,3.26680421 23.9589837,3.14920421 23.9537205,3.05251088 C23.9405626,2.91400421 23.801089,2.83299088 23.687931,2.79117754 C23.4721416,2.77027088 23.2563521,2.74936421 23.0405626,2.75459088 C22.7168784,2.75981754 22.3984573,2.69971088 22.0905626,2.61085754 C21.8431942,2.54029754 21.6116153,2.39656421 21.4721416,2.18227088 C21.2116153,1.69880421 21.2168784,1.05853754 21.5668784,0.622110877 C21.8221416,0.311124211 22.2300363,0.125577544 22.6300363,0.130804211 L24.8668784,0.130804211 C24.8668784,0.394750877 24.8616153,1.05853754 24.8616153,1.05853754"></path>
                            <path d="M28.8958258,0.128190877 L28.8958258,1.05331088 L26.9300363,1.05331088 C26.7800363,1.05331088 26.6274047,1.10819088 26.51951,1.20488421 C26.4274047,1.29635088 26.4221416,1.43485754 26.4642468,1.54984421 C26.487931,1.70403088 26.6484573,1.76675088 26.7826678,1.78765754 C27.001089,1.79288421 27.2142468,1.82947088 27.4300363,1.81901754 C27.6300363,1.80856421 27.8247731,1.83992421 28.0247731,1.85560421 C28.3458258,1.90264421 28.6852995,2.00979088 28.8931942,2.26851088 C29.0563521,2.49325754 29.1274047,2.77288421 29.1116153,3.04989754 C29.1274047,3.32168421 29.0774047,3.60131088 28.9352995,3.84173754 C28.8168784,4.09784421 28.5563521,4.25464421 28.2905626,4.33565754 C28.06951,4.40099088 27.8484573,4.44803088 27.6116153,4.44803088 L25.4616153,4.44803088 L25.4616153,3.52029754 L27.6116153,3.52029754 C27.7589837,3.52029754 27.8931942,3.43928421 27.9616153,3.31123088 C28.0800363,3.14920421 27.987931,2.89832421 27.8063521,2.81992421 C27.7300363,2.77288421 27.637931,2.78333754 27.5563521,2.77288421 C27.301089,2.73629754 27.0484573,2.76765754 26.7931942,2.74152421 C26.4984573,2.69448421 26.1905626,2.66051088 25.91951,2.52723088 C25.6458258,2.40963088 25.4721416,2.14045754 25.3852995,1.86344421 C25.3300363,1.58120421 25.3089837,1.27805754 25.401089,1.00104421 C25.4905626,0.724030877 25.6852995,0.478377544 25.9405626,0.337257544 C26.1747731,0.196137544 26.4537205,0.128190877 26.7247731,0.125577544"></path>
                            <path d="M5.69582577,3.06035088 L5.04845735,3.73981754 L4.36950998,4.44803088 L2.66950998,4.44803088 L0.266878405,4.44803088 L0.266878405,0.128190877 L4.44056261,0.128190877 L5.72214156,1.52371088 L7.06950998,0.128190877 L10.2168784,0.128190877 C10.4616153,0.128190877 10.7089837,0.130804211 10.9484573,0.183070877 C11.3089837,0.248404211 11.6616153,0.420884211 11.8800363,0.721417544 C12.0563521,1.04547088 12.1431942,1.42963088 12.0774047,1.79288421 C12.0589837,2.03853754 11.9774047,2.28419088 11.8221416,2.48280421 C11.6984573,2.61085754 11.5616153,2.73891088 11.3931942,2.81469754 C11.1326678,2.93229754 10.851089,2.98717754 10.5721416,3.00808421 C10.0537205,3.02376421 9.00635207,3.02376421 9.00635207,3.02376421 L9.00635207,4.44803088 L6.97740472,4.44803088 L5.69582577,3.06035088 Z M6.93793103,1.71971088 L6.39056261,2.31555088 L7.71161524,3.78163088 L7.93529948,4.03773754 L7.93529948,3.72413754 L7.93529948,3.16749754 L7.93529948,0.650857544 L6.93793103,1.71971088 Z M1.31161524,1.03763088 L1.31161524,1.79549754 L3.57477314,1.79549754 L3.57477314,2.68925754 L1.31161524,2.68925754 L1.31161524,3.54643088 L3.84582577,3.54120421 L4.26161524,3.10739088 L5.02214156,2.29203088 L3.87740472,1.04024421 L3.76161524,1.04024421 L1.31424683,1.04024421 L1.31161524,1.04024421 L1.31161524,1.03763088 Z M9.00635207,1.03501754 L9.00635207,2.11171088 C9.00635207,2.11171088 9.63793103,2.11171088 9.95108897,2.11693754 C10.1563521,2.11171088 10.3668784,2.13784421 10.5721416,2.09080421 C10.6958258,2.04899088 10.8274047,1.98888421 10.8826678,1.86605754 C10.9774047,1.72493754 10.9668784,1.54723088 10.9458258,1.38259088 C10.8958258,1.21272421 10.71951,1.04547088 10.537931,1.04024421 C10.4116153,1.02717754 10.2826678,1.02195088 10.1537205,1.02717754 C9.77214155,1.03501754 9.00635207,1.03501754 9.00635207,1.03501754 Z"></path>
                            <path d="M12.5747731,0.128190877 L15.0774047,0.128190877 C15.0774047,0.128190877 15.3116153,0.122964211 15.4616153,0.130804211 C15.8774047,0.143870877 16.3563521,0.347710877 16.6037205,0.684830877 C16.7668784,0.933097544 16.7800363,1.24931088 16.737931,1.53155088 C16.6905626,1.92355088 16.401089,2.25544421 16.051089,2.43576421 C16.2037205,2.55336421 16.387931,2.61347088 16.5116153,2.76765754 C16.6563521,2.94013754 16.6747731,3.18056421 16.6958258,3.39485754 C16.7063521,3.74765754 16.6958258,4.44541754 16.6958258,4.44541754 L15.6484573,4.44541754 C15.6484573,4.44541754 15.6537205,3.78685754 15.637931,3.45496421 C15.61951,3.24589754 15.5089837,3.01592421 15.2931942,2.94536421 C15.0063521,2.85128421 14.6984573,2.88264421 14.4037205,2.87741754 C14.1458258,2.86696421 13.637931,2.88787088 13.637931,2.88787088 L13.637931,4.45064421 L12.5774047,4.45064421 C12.5747731,4.44803088 12.56951,1.57075088 12.5747731,0.128190877 Z M13.637931,1.03501754 L13.637931,1.98365754 C13.637931,1.98365754 14.61951,2.00979088 15.1089837,1.98365754 C15.2589837,1.96797754 15.4274047,1.91832421 15.5142468,1.77981754 C15.6037205,1.66221754 15.5931942,1.50019088 15.5774047,1.35645754 C15.5484573,1.18397754 15.3747731,1.10035088 15.2116153,1.07421754 C15.0589837,1.05069754 14.9063521,1.04024421 14.7563521,1.02717754 C14.3774047,1.02717754 13.6300363,1.03240421 13.6300363,1.03240421 L13.637931,1.03240421 L13.637931,1.03501754 Z"></path>
                        </g>
                    </g>
                </g>
            </g>
        </g>
    </g>
</svg>