<?xml version="1.0" encoding="UTF-8"?>
<svg width="83px" height="75px" viewBox="0 0 83 75" version="1.1" xmlns="http://www.w3.org/2000/svg" xmlns:xlink="http://www.w3.org/1999/xlink">
    <!-- Generator: Sketch 51.3 (57544) - http://www.bohemiancoding.com/sketch -->
    <title>Account Settings / icon-nav-lawyer</title>
    <desc>Created with Sketch.</desc>
    <defs></defs>
    <g id="icons" stroke="none" stroke-width="1" fill="none" fill-rule="evenodd">
        <g id="Account-Settings-/-icon-nav-lawyer" fill="#999999">
            <g id="Shape">
                <path d="M74.7,75 L8.3,75 C3.716325,75 0,71.26875 0,66.6666667 L0,20.8333333 C0,16.23125 3.716325,12.5 8.3,12.5 L24.9,12.5 L24.9,4.16666667 C24.9,1.86666667 26.7592,0 29.05,0 L53.95,0 C56.2408,0 58.1,1.86666667 58.1,4.16666667 L58.1,12.5 L74.7,12.5 C79.283675,12.5 83,16.23125 83,20.8333333 L83,66.6666667 C83,71.26875 79.283675,75 74.7,75 Z M49.8,8.33333333 L33.2,8.33333333 L33.2,12.5 L49.8,12.5 L49.8,8.33333333 Z M74.7,41.6666667 L49.8,41.6666667 L49.8,33.3333333 L74.7,33.3333333 L74.7,20.8333333 L8.3,20.8333333 L8.3,33.3333333 L33.2,33.3333333 L33.2,41.6666667 L8.3,41.6666667 L8.3,66.6666667 L74.7,66.6666667 L74.7,41.6666667 Z M41.5,29.1666667 C43.792875,29.1666667 45.65,31.0333333 45.65,33.3333333 L45.65,41.6666667 C45.65,43.9666667 43.792875,45.8333333 41.5,45.8333333 C39.2092,45.8333333 37.35,43.9666667 37.35,41.6666667 L37.35,33.3333333 C37.35,31.0333333 39.2092,29.1666667 41.5,29.1666667 Z" fill-rule="nonzero"></path>
            </g>
        </g>
    </g>
</svg>