<?xml version="1.0" encoding="UTF-8"?>
<svg width="79px" height="51px" viewBox="0 0 79 51" version="1.1" xmlns="http://www.w3.org/2000/svg" xmlns:xlink="http://www.w3.org/1999/xlink">
    <!-- Generator: Sketch 51.3 (57544) - http://www.bohemiancoding.com/sketch -->
    <title>Account Settings / icon-cc-csc</title>
    <desc>Created with Sketch.</desc>
    <defs></defs>
    <g id="icons" stroke="none" stroke-width="1" fill="none" fill-rule="evenodd">
        <g id="Account-Settings-/-icon-cc-csc" transform="translate(2.000000, 1.000000)">
            <g>
                <path d="M4.25165118,47.8701236 C1.87072652,47.8701236 0,46.0832914 0,43.8091414 L0,4.82371363 C0,2.54956367 1.87072652,0.762731565 4.25165118,0.762731565 L70.5774097,0.762731565 C72.9583343,0.762731565 74.8290608,2.54956367 74.8290608,4.82371363 L74.8290608,43.8091414 C74.8290608,46.0832914 72.9583343,47.8701236 70.5774097,47.8701236 L4.25165118,47.8701236 Z" id="Shape-Copy" stroke="#CCCCCC" stroke-width="3" fill="#FDFDFD" fill-rule="nonzero"></path>
                <rect id="Rectangle-91-Copy" fill="#CCCCCC" fill-rule="nonzero" x="0" y="5.63591004" width="74.8290608" height="8.12196413"></rect>
                <rect id="Rectangle-97" stroke="#CCCCCC" stroke-width="2" x="5.10198142" y="18.7934919" width="44.8974365" height="7.79708557"></rect>
                <g id="123" transform="translate(52.550409, 16.356903)">
                    <g id="123-+-Oval-28">
                        <ellipse id="Oval-28" stroke="#D0011B" cx="9.09853353" cy="6.33513202" rx="8.75840147" ry="6.33513202"></ellipse>
                        <path d="M4.86656284,8.77172126 L4.34191573,8.77172126 L4.34191573,5.54847538 C4.34191573,5.28038577 4.35055181,5.02673556 4.36782423,4.78751714 C4.32248413,4.83082392 4.27174716,4.87619225 4.21561179,4.92362349 C4.15947643,4.97105473 3.90255305,5.17211892 3.44483394,5.52682209 L3.15984045,5.17418291 L4.4131641,4.24927839 L4.86656284,4.24927839 L4.86656284,8.77172126 Z M10.497991,8.77172126 L7.38573259,8.77172126 L7.38573259,8.32937562 L8.63257914,7.13225839 C9.01257233,6.76518184 9.26301871,6.50328285 9.3839256,6.34655354 C9.5048325,6.18982423 9.59551138,6.03722166 9.65596483,5.88874126 C9.71641828,5.74026086 9.74664457,5.58044061 9.74664457,5.4092757 C9.74664457,5.16799505 9.6699994,4.9767263 9.51670664,4.83546369 C9.36341397,4.69420109 9.15075043,4.62357085 8.87870983,4.62357085 C8.68223612,4.62357085 8.49602061,4.65450381 8.32005784,4.71637064 C8.14409507,4.77823747 7.948164,4.8906272 7.73225877,5.05354319 L7.44726527,4.70399733 C7.88339385,4.35754307 8.35837826,4.18431854 8.87223276,4.18431854 C9.3169975,4.18431854 9.66567922,4.29309942 9.91828836,4.51066444 C10.1708975,4.72822947 10.2972002,5.02054587 10.2972002,5.38762242 C10.2972002,5.67427208 10.2129984,5.95782414 10.0445923,6.23828712 C9.87618621,6.51875009 9.56096931,6.87344795 9.09893207,7.30239133 L8.06259213,8.27060242 L8.06259213,8.29534903 L10.497991,8.29534903 L10.497991,8.77172126 Z M14.8307558,5.31338259 C14.8307558,5.60209448 14.7460142,5.83821602 14.5765286,6.02175429 C14.407043,6.20529255 14.1668521,6.32799327 13.8559484,6.38986011 L13.8559484,6.41460671 C14.2359417,6.45997572 14.5176938,6.57545875 14.7012133,6.76105924 C14.8847328,6.94665975 14.9764911,7.18999897 14.9764911,7.49108422 C14.9764911,7.92208983 14.8199622,8.25358797 14.5068996,8.48558859 C14.1938369,8.71758926 13.7490788,8.83358777 13.1726118,8.83358777 C12.9221617,8.83358777 12.6927659,8.81554354 12.4844173,8.77945457 C12.2760687,8.7433656 12.0736606,8.67995306 11.8771868,8.58921506 L11.8771868,8.10046948 C12.0822968,8.19739419 12.3008976,8.27111772 12.5329957,8.32164231 C12.7650939,8.37216688 12.9847741,8.39742879 13.1920432,8.39742879 C14.0103241,8.39742879 14.4194584,8.09119257 14.4194584,7.47871092 C14.4194584,6.93015833 13.9682232,6.65588615 13.0657392,6.65588615 L12.5993863,6.65588615 L12.5993863,6.21354051 L13.0722164,6.21354051 C13.4414143,6.21354051 13.7339616,6.13569258 13.9498668,5.97999438 C14.1657721,5.82429619 14.273723,5.60828107 14.273723,5.33194255 C14.273723,5.11128417 14.1943791,4.93805964 14.0356887,4.81226375 C13.8769984,4.68646785 13.6616361,4.62357085 13.3895955,4.62357085 C13.1823265,4.62357085 12.9869352,4.65037941 12.8034157,4.70399733 C12.6198962,4.75761525 12.4104713,4.8566007 12.1751346,5.00095665 L11.9030953,4.65450411 C12.0974101,4.50808594 12.3214084,4.39311847 12.5750971,4.30959825 C12.8287857,4.22607802 13.0959644,4.18431854 13.3766412,4.18431854 C13.8365194,4.18431854 14.1938372,4.28485063 14.4486054,4.48591784 C14.7033736,4.68698505 14.8307558,4.96280387 14.8307558,5.31338259 Z" id="123" fill="#000000" fill-rule="nonzero"></path>
                    </g>
                </g>
                <polygon id="Rectangle-98" fill="#D0011B" fill-rule="nonzero" points="39.0890052 44.3203287 35.6751135 40.6988515 44.7747401 32.8729486 41.7022372 29.6136188 53.8119403 28.3794877 51.2611347 39.7537555 48.1886318 36.4944257"></polygon>
            </g>
        </g>
    </g>
</svg>