<?xml version="1.0" encoding="UTF-8"?>
<svg width="45px" height="75px" viewBox="0 0 45 75" version="1.1" xmlns="http://www.w3.org/2000/svg" xmlns:xlink="http://www.w3.org/1999/xlink">
    <!-- Generator: Sketch 51.3 (57544) - http://www.bohemiancoding.com/sketch -->
    <title>Account Settings / icon-mobile-phone</title>
    <desc>Created with Sketch.</desc>
    <defs></defs>
    <g id="icons" stroke="none" stroke-width="1" fill="none" fill-rule="evenodd">
        <g id="Account-Settings-/-icon-mobile-phone" fill="#999999">
            <g id="Shape">
                <path d="M37.5,75 L7.5,75 C3.358125,75 0,71.641875 0,67.5 L0,7.5 C0,3.358125 3.358125,0 7.5,0 L37.5,0 C41.641875,0 45,3.358125 45,7.5 L45,67.5 C45,71.641875 41.641875,75 37.5,75 Z M22.5,71.25 C24.57,71.25 26.25,69.57 26.25,67.5 C26.25,65.43 24.57,63.75 22.5,63.75 C20.43,63.75 18.75,65.43 18.75,67.5 C18.75,69.57 20.43,71.25 22.5,71.25 Z M37.5,7.5 L7.5,7.5 L7.5,60 L37.5,60 L37.5,7.5 Z" fill-rule="nonzero"></path>
            </g>
        </g>
    </g>
</svg>