<?xml version="1.0" encoding="UTF-8"?>
<svg width="79px" height="52px" viewBox="0 0 79 52" version="1.1" xmlns="http://www.w3.org/2000/svg" xmlns:xlink="http://www.w3.org/1999/xlink">
    <!-- Generator: Sketch 51.3 (57544) - http://www.bohemiancoding.com/sketch -->
    <title>Account Settings / icon-cc-discover</title>
    <desc>Created with Sketch.</desc>
    <defs>
        <radialGradient cx="49.9887561%" cy="50.0143781%" fx="49.9887561%" fy="50.0143781%" r="50.516576%" gradientTransform="translate(0.499888,0.500144),scale(0.978729,1.000000),translate(-0.499888,-0.500144)" id="radialGradient-1">
            <stop stop-color="#FFEEE0" offset="0.56%"></stop>
            <stop stop-color="#FEE9D7" offset="10.96%"></stop>
            <stop stop-color="#FDDBBF" offset="27.93%"></stop>
            <stop stop-color="#FBC597" offset="49.35%"></stop>
            <stop stop-color="#F8A560" offset="74.4%"></stop>
            <stop stop-color="#F48120" offset="100%"></stop>
        </radialGradient>
    </defs>
    <g id="icons" stroke="none" stroke-width="1" fill="none" fill-rule="evenodd">
        <g id="Account-Settings-/-icon-cc-discover" transform="translate(2.000000, 2.000000)">
            <g>
                <path d="M4.25362977,48.3552632 C1.87159709,48.3552632 0,46.521098 0,44.186706 L0,4.16855717 C0,1.83416515 1.87159709,0 4.25362977,0 L70.6102541,0 C72.9922867,0 74.8638839,1.83416515 74.8638839,4.16855717 L74.8638839,44.186706 C74.8638839,46.521098 72.9922867,48.3552632 70.6102541,48.3552632 L4.25362977,48.3552632 Z" id="border" stroke="#CCCCCC" stroke-width="3" fill="#FDFDFD" fill-rule="nonzero"></path>
                <g id="discover" transform="translate(5.921053, 18.858553)" fill-rule="nonzero">
                    <path d="M33.7306161,0.193113337 C30.7511777,0.193113337 28.3352121,2.52260616 28.3352121,5.39807387 C28.3352121,8.45553319 30.6466625,10.7410447 33.7306161,10.7410447 C36.7358047,10.7410447 39.1123878,8.42520126 39.1123878,5.45722114 C39.110873,2.50895679 36.7539812,0.193113337 33.7306161,0.193113337 Z" id="Shape" fill="url(#radialGradient-1)"></path>
                    <path d="M3.10162522,0.384204545 L0.199437077,0.384204545 L0.199437077,10.5120386 L3.0849634,10.5120386 C4.6163372,10.5120386 5.72359166,10.1510885 6.69603674,9.34425899 C7.84721784,8.38728633 8.53035295,6.94500269 8.53035295,5.45267135 C8.53035295,2.46345888 6.29918221,0.384204545 3.10162522,0.384204545 Z M5.40701685,7.99145455 C4.78447023,8.55411199 3.98167288,8.79676747 2.70477069,8.79676747 L2.17462149,8.79676747 L2.17462149,2.09947563 L2.70477069,2.09947563 C3.98167288,2.09947563 4.75266128,2.32696516 5.40701685,2.91843795 C6.08863724,3.5265933 6.49609477,4.46688337 6.49609477,5.43902198 C6.49609477,6.41267719 6.09015196,7.38633238 5.40701685,7.99145455 Z" id="Shape" fill="#001722"></path>
                    <rect id="Rectangle-path" fill="#001722" x="9.44069483" y="0.384204545" width="1.97064028" height="10.1278341"></rect>
                    <path d="M16.2402369,4.26820918 C15.0542174,3.82839608 14.704319,3.53872607 14.704319,2.99426779 C14.704319,2.3557805 15.3253509,1.8704695 16.1781337,1.8704695 C16.7703861,1.8704695 17.2535792,2.113125 17.770096,2.68943182 L18.8031296,1.33966058 C17.9533761,0.593494916 16.9370044,0.214345694 15.82975,0.214345694 C14.0393604,0.214345694 12.6746049,1.46098834 12.6746049,3.11407895 C12.6746049,4.51238128 13.310784,5.22518182 15.161762,5.89551765 C15.9372945,6.16698849 16.3296049,6.34898012 16.5265175,6.47182446 C16.9218573,6.72964594 17.1202846,7.09211259 17.1202846,7.51827632 C17.1202846,8.33875523 16.465929,8.94539401 15.5843666,8.94539401 C14.6452452,8.94539401 13.8863745,8.47373235 13.4319609,7.59410616 L12.1580881,8.82558282 C13.0669153,10.1586715 14.1590227,10.7531775 15.6631316,10.7531775 C17.7110222,10.7531775 19.1499986,9.38520709 19.1499986,7.4272805 C19.1499986,5.8196878 18.4835253,5.09020469 16.2402369,4.26820918 Z" id="Shape" fill="#001722"></path>
                    <path d="M19.7725453,5.45267135 C19.7725453,8.43126765 22.1097459,10.7425613 25.1134197,10.7425613 C25.9616584,10.7425613 26.6902348,10.5742191 27.5869443,10.1495719 L27.5869443,7.82462889 C26.7962647,8.61477588 26.0994972,8.93174459 25.2043024,8.93174459 C23.2170003,8.93174459 21.8052887,7.48946097 21.8052887,5.43750538 C21.8052887,3.49474477 23.2624416,1.96146531 25.1149344,1.96146531 C26.0540558,1.96146531 26.7689998,2.29511663 27.5884591,3.10042958 L27.5884591,0.775486543 C26.7235585,0.337190042 26.0101291,0.155198415 25.158861,0.155198415 C22.1688196,0.155198415 19.7725453,2.50895679 19.7725453,5.45267135 Z" id="Shape" fill="#001722"></path>
                    <polygon id="Shape" fill="#001722" points="43.576244 7.18765819 40.8739978 0.384204545 38.7200773 0.384204545 43.0127711 10.7728933 44.0776136 10.7728933 48.4460429 0.384204545 46.3072697 0.384204545"></polygon>
                    <polygon id="Shape" fill="#001722" points="49.3427524 10.5120386 54.9396132 10.5120386 54.9396132 8.79676747 51.3149074 8.79676747 51.3149074 6.0623433 54.8017744 6.0623433 54.8017744 4.34707222 51.3149074 4.34707222 51.3149074 2.09947563 54.9396132 2.09947563 54.9396132 0.384204545 49.3427524 0.384204545"></polygon>
                    <path d="M62.7509828,3.37341702 C62.7509828,1.47615431 61.4483306,0.384204545 59.1732332,0.384204545 L56.2437803,0.384204545 L56.2437803,10.5120386 L58.2174499,10.5120386 L58.2174499,6.44300912 L58.4764657,6.44300912 L61.2059766,10.5120386 L63.6325453,10.5120386 L60.4455912,6.24736812 C61.9330384,5.94101555 62.7509828,4.92337903 62.7509828,3.37341702 Z M58.790011,5.04622338 L58.2159352,5.04622338 L58.2159352,1.97663128 L58.82182,1.97663128 C60.0517661,1.97663128 60.7197541,2.49530742 60.7197541,3.48109539 C60.7212688,4.49721531 60.0532809,5.04622338 58.790011,5.04622338 Z" id="Shape" fill="#001722"></path>
                </g>
            </g>
        </g>
    </g>
</svg>