<?xml version="1.0" encoding="UTF-8"?>
<svg width="84px" height="75px" viewBox="0 0 84 75" version="1.1" xmlns="http://www.w3.org/2000/svg" xmlns:xlink="http://www.w3.org/1999/xlink">
    <!-- Generator: Sketch 51.3 (57544) - http://www.bohemiancoding.com/sketch -->
    <title>Account Settings / img-home-mediumgray</title>
    <desc>Created with Sketch.</desc>
    <defs></defs>
    <g id="icons" stroke="none" stroke-width="1" fill="none" fill-rule="evenodd">
        <g id="Account-Settings-/-img-home-mediumgray" fill="#999999">
            <g id="Shape">
                <path d="M81.0707801,44.6410856 L73.1731281,44.6826306 L73.1731281,66.6638607 C73.1731281,71.0339928 69.6369544,74.5771828 65.275476,74.5771828 L17.8895635,74.5771828 C13.5280851,74.5771828 9.99191145,71.0339928 9.99191145,66.6638607 L9.99191145,44.8804636 L2.0942594,44.8943119 C-0.0854925702,44.8982686 -0.656097933,43.5985054 0.822737418,41.9921011 L36.5082783,3.23660652 C39.465949,0.0237977747 44.2519261,0.0317110967 47.1977503,3.25441148 L82.3521742,41.7032648 C83.8250862,43.3136258 83.250532,44.6292157 81.0707801,44.6410856 Z M44.4039559,12.2498802 C42.9547368,10.6157792 40.6012365,10.6118227 39.1480685,12.2399887 L17.8895635,36.0393046 L17.8895635,66.6638607 L33.6848677,66.6638607 L33.6848677,46.8805557 C33.6848677,44.6964789 35.4539417,42.9238948 37.6336937,42.9238948 L45.5313458,42.9238948 C47.7110978,42.9238948 49.4801718,44.6964789 49.4801718,46.8805557 L49.4801718,66.6638607 L65.275476,66.6638607 L65.275476,35.7801433 L44.4039559,12.2498802 Z" fill-rule="nonzero"></path>
            </g>
        </g>
    </g>
</svg>