<?xml version="1.0" encoding="UTF-8"?>
<svg width="94px" height="75px" viewBox="0 0 94 75" version="1.1" xmlns="http://www.w3.org/2000/svg" xmlns:xlink="http://www.w3.org/1999/xlink">
    <!-- Generator: Sketch 51.3 (57544) - http://www.bohemiancoding.com/sketch -->
    <title>Account Settings / user-email</title>
    <desc>Created with Sketch.</desc>
    <defs></defs>
    <g id="icons" stroke="none" stroke-width="1" fill="none" fill-rule="evenodd">
        <g id="Account-Settings-/-user-email" fill="#999999">
            <g id="Shape">
                <path d="M84.6,75 L9.4,75 C4.20885,75 0,70.8023438 0,65.625 L0,9.375 C0,4.19765625 4.20885,0 9.4,0 L84.6,0 C89.79115,0 94,4.19765625 94,9.375 L94,65.625 C94,70.8023438 89.79115,75 84.6,75 Z M84.6,65.625 L84.6,10.8445312 L53.6458,41.7164062 C49.9751,45.3773437 43.94265,45.459375 40.1709,41.9015625 L9.4,12.8578125 L9.4,65.625 L84.6,65.625 Z M74.72765,9.375 L17.37825,9.375 L46.8449,37.1835938 L74.72765,9.375 Z" fill-rule="nonzero"></path>
            </g>
        </g>
    </g>
</svg>