<?xml version="1.0" encoding="UTF-8"?>
<svg width="87px" height="75px" viewBox="0 0 87 75" version="1.1" xmlns="http://www.w3.org/2000/svg" xmlns:xlink="http://www.w3.org/1999/xlink">
    <!-- Generator: Sketch 51.3 (57544) - http://www.bohemiancoding.com/sketch -->
    <title>Actions / addconvo</title>
    <desc>Created with Sketch.</desc>
    <defs></defs>
    <g id="icons" stroke="none" stroke-width="1" fill="none" fill-rule="evenodd">
        <g id="Actions-/-addconvo" fill="#999999">
            <g id="Shape-Copy-15">
                <path d="M83.0454545,59.2105263 L75.1363636,59.2105263 L75.1363636,67.1052632 C75.1363636,69.2842105 73.3647273,71.0526316 71.1818182,71.0526316 C68.9989091,71.0526316 67.2272727,69.2842105 67.2272727,67.1052632 L67.2272727,59.2105263 L59.3181818,59.2105263 C57.1352727,59.2105263 55.3636364,57.4421053 55.3636364,55.2631579 C55.3636364,53.0842105 57.1352727,51.3157895 59.3181818,51.3157895 L67.2272727,51.3157895 L67.2272727,43.4210526 C67.2272727,41.2421053 68.9989091,39.4736842 71.1818182,39.4736842 C73.3647273,39.4736842 75.1363636,41.2421053 75.1363636,43.4210526 L75.1363636,51.3157895 L83.0454545,51.3157895 C85.2283636,51.3157895 87,53.0822368 87,55.2631579 C87,57.4440789 85.2283636,59.2105263 83.0454545,59.2105263 Z M63.0631364,47.3684211 C63.1303636,47.3131579 63.2055,47.2638158 63.2727273,47.2065789 L63.2727273,47.3684211 L63.0631364,47.3684211 Z M71.1818182,35.5263158 C71.0157273,35.5263158 70.8595227,35.5657895 70.6973864,35.5756579 C70.9939773,34.2730263 71.1818182,32.9447368 71.1818182,31.5789474 C71.1818182,18.4993421 57.0166364,7.89473684 39.5454545,7.89473684 C22.0722955,7.89473684 7.90909091,18.4993421 7.90909091,31.5789474 C7.90909091,44.6585526 22.0742727,55.2631579 39.5454545,55.2631579 C43.8440455,55.2631579 47.9172273,54.5901316 51.6483409,53.4236842 C51.504,54.0177632 51.4090909,54.6276316 51.4090909,55.2631579 C51.4090909,57.5131579 52.3621364,59.5322368 53.8767273,60.9710526 C49.4318182,62.3664474 44.6112273,63.1578947 39.5454545,63.1578947 C37.2992727,63.1578947 35.1124091,62.9743421 32.9670682,62.6861842 L24.6882273,72.7638158 C21.9734318,76.1782895 19.7727273,75.4125 19.7727273,71.0526316 L19.7727273,58.8986842 C7.96247727,53.4355263 0,43.2611842 0,31.5789474 C0,14.1394737 17.7045,0 39.5454545,0 C61.3864091,0 79.0909091,14.1394737 79.0909091,31.5789474 C79.0909091,34.2276316 78.6381136,36.7855263 77.8689545,39.2427632 C76.4690455,37.0184211 74.0073409,35.5263158 71.1818182,35.5263158 Z" fill-rule="nonzero"></path>
            </g>
        </g>
    </g>
</svg>