<?xml version="1.0" encoding="UTF-8"?>
<svg width="79px" height="75px" viewBox="0 0 79 75" version="1.1" xmlns="http://www.w3.org/2000/svg" xmlns:xlink="http://www.w3.org/1999/xlink">
    <!-- Generator: Sketch 51.3 (57544) - http://www.bohemiancoding.com/sketch -->
    <title>Actions / addtenant</title>
    <desc>Created with Sketch.</desc>
    <defs></defs>
    <g id="icons" stroke="none" stroke-width="1" fill="none" fill-rule="evenodd">
        <g id="Actions-/-addtenant" fill="#999999">
            <g id="Shape-Copy-17">
                <path d="M75.2380952,63.75 L67.7142857,63.75 L67.7142857,71.25 C67.7142857,73.32 66.0289524,75 63.952381,75 C61.8758095,75 60.1904762,73.32 60.1904762,71.25 L60.1904762,63.75 L52.6666667,63.75 C50.5900952,63.75 48.9047619,62.07 48.9047619,60 C48.9047619,57.93 50.5900952,56.25 52.6666667,56.25 L60.1904762,56.25 L60.1904762,48.75 C60.1904762,46.68 61.8739286,45 63.952381,45 C66.0308333,45 67.7142857,46.68 67.7142857,48.75 L67.7142857,56.25 L75.2380952,56.25 C77.3165476,56.25 79,57.928125 79,60 C79,62.071875 77.3146667,63.75 75.2380952,63.75 Z M56.4285714,48.751875 L56.4285714,51.9375 C51.150619,47.7975 44.6538095,45 37.6190476,45 C23.3219286,45 11.2217619,56.518125 7.13069048,67.5 L0,67.5 C0,55.074375 16.8420476,37.5 37.6190476,37.5 C45.3422381,37.5 52.5161905,39.93375 58.4882143,43.621875 C57.2204524,44.964375 56.4285714,46.7625 56.4285714,48.751875 Z M18.8095238,18.75 C18.8095238,8.39625 27.2305476,0 37.6190476,0 C48.0075476,0 56.4285714,8.39625 56.4285714,18.75 C56.4285714,29.105625 48.0075476,37.5 37.6190476,37.5 C27.2305476,37.5 18.8095238,29.105625 18.8095238,18.75 Z M37.6190476,30 C43.8525238,30 48.9047619,24.961875 48.9047619,18.75 C48.9047619,12.538125 43.8525238,7.5 37.6190476,7.5 C31.3855714,7.5 26.3333333,12.53625 26.3333333,18.75 C26.3333333,24.96375 31.3855714,30 37.6190476,30 Z" fill-rule="nonzero"></path>
            </g>
        </g>
    </g>
</svg>