<?xml version="1.0" encoding="UTF-8"?>
<svg width="75px" height="74px" viewBox="0 0 75 74" version="1.1" xmlns="http://www.w3.org/2000/svg" xmlns:xlink="http://www.w3.org/1999/xlink">
    <!-- Generator: Sketch 51.3 (57544) - http://www.bohemiancoding.com/sketch -->
    <title>Actions / cancelsig</title>
    <desc>Created with Sketch.</desc>
    <defs></defs>
    <g id="icons" stroke="none" stroke-width="1" fill="none" fill-rule="evenodd">
        <g id="cancelsig" fill="#999999">
            <g id="Actions-/-cancelsig">
                <path d="M72.9891768,56.403124 L67.8141768,61.5762948 L72.9891768,66.7512948 C74.4178354,68.1799533 74.4178354,70.495807 72.9891768,71.9244655 C71.5605183,73.353124 69.2428354,73.353124 67.8141768,71.9244655 L62.6391768,66.7512948 L57.4641768,71.9244655 C56.0355183,73.353124 53.7196646,73.353124 52.2910061,71.9244655 C50.8623476,70.495807 50.8623476,68.1799533 52.2910061,66.7512948 L57.4678354,61.5762948 L52.2928354,56.4012948 C50.8641768,54.9726362 50.8641768,52.6567826 52.2928354,51.228124 C53.7214939,49.7994655 56.0373476,49.7994655 57.4660061,51.228124 L62.6410061,56.403124 L67.8160061,51.228124 C69.2446646,49.7994655 71.5605183,49.7994655 72.9910061,51.228124 C74.4178354,52.6586118 74.4178354,54.9744655 72.9891768,56.403124 Z" id="Shape-Copy-17" fill-rule="nonzero"></path>
                <path d="M71.1420732,15.8423009 L29.7493902,57.2349838 C27.7536585,59.2307155 24.9,59.7996179 22.3810976,59.0075448 L15.5213415,68.8764472 L0,74.0496179 L5.175,58.5282765 L15.0439024,51.6685204 C14.25,49.1496179 14.8207317,46.2959594 16.8146341,44.3002277 L40.097561,21.0173009 L37.5109756,18.4307155 L54.5469512,1.39291062 L57.1335366,3.97949599 L53.3304878,7.78437404 L58.2054878,2.90937404 C61.0628049,0.0520569638 65.6963415,0.0520569638 68.5536585,2.90937404 L71.1402439,5.49595941 C73.9993902,8.35327648 73.9993902,12.9849838 71.1420732,15.8423009 Z M13.4707317,59.8215691 L10.125,61.3362033 L7.74512195,66.4892521 L12.7115854,63.9227887 L14.2280488,60.5788862 L13.4707317,59.8215691 Z M45.272561,26.1923009 L21.9896341,49.4733984 L24.5762195,52.0599838 L47.8591463,28.777057 L45.272561,26.1923009 Z M63.3804878,8.08254477 L47.8591463,23.6038862 L50.4457317,26.1904716 L65.9670732,10.6673009 L63.3804878,8.08254477 Z" id="Shape-Copy-16" fill-rule="nonzero"></path>
            </g>
        </g>
    </g>
</svg>