<?xml version="1.0" encoding="UTF-8"?>
<svg width="74px" height="74px" viewBox="0 0 74 74" version="1.1" xmlns="http://www.w3.org/2000/svg" xmlns:xlink="http://www.w3.org/1999/xlink">
    <!-- Generator: Sketch 51.3 (57544) - http://www.bohemiancoding.com/sketch -->
    <title>Actions / circlearrow_up_drkgrey</title>
    <desc>Created with Sketch.</desc>
    <defs></defs>
    <g id="icons" stroke="none" stroke-width="1" fill="none" fill-rule="evenodd">
        <g id="Actions-/-circlearrow_up_drkgrey" fill="#999999">
            <g id="Shape">
                <path d="M54.8835366,68.2756098 C37.3847561,78.3786585 15.0109756,72.3841463 4.90792683,54.8853659 C-5.19512195,37.3865854 0.801219512,15.0109756 18.2981707,4.90792683 C35.7969512,-5.19329268 58.172561,0.801219512 68.2756098,18.3 C78.3786585,35.7969512 72.3823171,58.172561 54.8835366,68.2756098 Z M61.9390244,21.9567073 C53.8573171,7.95914634 35.9560976,3.16280488 21.9567073,11.2445122 C7.95914634,19.3262195 3.16280488,37.227439 11.2445122,51.225 C19.3262195,65.2243902 37.227439,70.0189024 51.225,61.9371951 C65.2243902,53.8554878 70.0207317,35.9560976 61.9390244,21.9567073 Z M43.725,49.527439 C42.2963415,50.9560976 39.9786585,50.9560976 38.55,49.527439 L28.2018293,39.1792683 C26.7731707,37.7506098 26.7731707,35.4347561 28.2018293,34.0060976 L38.55,23.6579268 C39.9786585,22.2292683 42.2945122,22.2292683 43.725,23.6579268 C45.1536585,25.0865854 45.1536585,27.402439 43.725,28.8310976 L35.9634146,36.5926829 L43.725,44.3542683 C45.1536585,45.7810976 45.1536585,48.0969512 43.725,49.527439 Z" fill-rule="nonzero"></path>
            </g>
        </g>
    </g>
</svg>