<?xml version="1.0" encoding="UTF-8"?>
<svg width="72px" height="73px" viewBox="0 0 72 73" version="1.1" xmlns="http://www.w3.org/2000/svg" xmlns:xlink="http://www.w3.org/1999/xlink">
    <!-- Generator: Sketch 51.3 (57544) - http://www.bohemiancoding.com/sketch -->
    <title>Actions / copy</title>
    <desc>Created with Sketch.</desc>
    <defs></defs>
    <g id="icons" stroke="none" stroke-width="1" fill="none" fill-rule="evenodd">
        <g id="Actions-/-copy" transform="translate(-1.000000, -2.000000)" fill="#999999">
            <g id="Shape-Copy-7">
                <path d="M65.6611673,74.5971678 L29.7916022,74.5971678 C25.8298087,74.5971678 22.6176891,71.3850483 22.6176891,67.4232548 L22.6176891,53.0754287 L8.26986303,53.0754287 C4.30806955,53.0754287 1.09595,49.8633091 1.09595,45.9015157 L1.09595,10.0319506 C1.09595,6.07015709 4.30806955,2.85803753 8.26986303,2.85803753 L44.1394282,2.85803753 C48.1012216,2.85803753 51.3133412,6.07015709 51.3133412,10.0319506 L51.3133412,24.3797767 L65.6611673,24.3797767 C69.6229608,24.3797767 72.8350803,27.5918962 72.8350803,31.5536897 L72.8350803,67.4232548 C72.8350803,71.3850483 69.6229608,74.5971678 65.6611673,74.5971678 Z M44.1394282,10.0319506 L8.26986303,10.0319506 L8.26986303,45.9015157 L22.6176891,45.9015157 L22.6176891,31.5536897 C22.6176891,27.5918962 25.8298087,24.3797767 29.7916022,24.3797767 L44.1394282,24.3797767 L44.1394282,10.0319506 Z M65.6611673,31.5536897 L29.7916022,31.5536897 L29.7916022,67.4232548 L65.6611673,67.4232548 L65.6611673,31.5536897 Z" fill-rule="nonzero"></path>
            </g>
        </g>
    </g>
</svg>