<?xml version="1.0" encoding="UTF-8"?>
<svg width="68px" height="75px" viewBox="0 0 68 75" version="1.1" xmlns="http://www.w3.org/2000/svg" xmlns:xlink="http://www.w3.org/1999/xlink">
    <!-- Generator: Sketch 51.3 (57544) - http://www.bohemiancoding.com/sketch -->
    <title>Actions / iconDelete</title>
    <desc>Created with Sketch.</desc>
    <defs></defs>
    <g id="icons" stroke="none" stroke-width="1" fill="none" fill-rule="evenodd">
        <g id="iconDelete" fill="#999999">
            <g>
                <path d="M64.2222222,15 L64.2222222,67.5 C64.2222222,71.641875 60.8392222,75 56.6666667,75 L11.3333333,75 C7.16077778,75 3.77777778,71.641875 3.77777778,67.5 L3.77777778,15 C1.69244444,15 0,13.32 0,11.25 C0,9.18 1.69244444,7.5 3.77777778,7.5 L15.1111111,7.5 L15.1111111,3.75 C15.1111111,1.68 16.8035556,0 18.8888889,0 L49.1111111,0 C51.1964444,0 52.8888889,1.68 52.8888889,3.75 L52.8888889,7.5 L64.2222222,7.5 C66.3075556,7.5 68,9.18 68,11.25 C68,13.32 66.3094444,15 64.2222222,15 Z M56.6666667,15 L11.3333333,15 L11.3333333,67.5 L56.6666667,67.5 L56.6666667,15 Z M22.6666667,22.5 C24.752,22.5 26.4444444,24.18 26.4444444,26.25 L26.4444444,56.25 C26.4444444,58.32 24.752,60 22.6666667,60 C20.5794444,60 18.8888889,58.32 18.8888889,56.25 L18.8888889,26.25 C18.8888889,24.18 20.5813333,22.5 22.6666667,22.5 Z M34,22.5 C36.0853333,22.5 37.7777778,24.18 37.7777778,26.25 L37.7777778,56.25 C37.7777778,58.32 36.0853333,60 34,60 C31.9146667,60 30.2222222,58.32 30.2222222,56.25 L30.2222222,26.25 C30.2222222,24.18 31.9146667,22.5 34,22.5 Z M45.3333333,22.5 C47.4186667,22.5 49.1111111,24.18 49.1111111,26.25 L49.1111111,56.25 C49.1111111,58.32 47.4186667,60 45.3333333,60 C43.248,60 41.5555556,58.32 41.5555556,56.25 L41.5555556,26.25 C41.5555556,24.18 43.248,22.5 45.3333333,22.5 Z" fill-rule="nonzero"></path>
            </g>
        </g>
    </g>
</svg>