<?xml version="1.0" encoding="UTF-8"?>
<svg width="89px" height="75px" viewBox="0 0 89 75" version="1.1" xmlns="http://www.w3.org/2000/svg" xmlns:xlink="http://www.w3.org/1999/xlink">
    <!-- Generator: Sketch 51.3 (57544) - http://www.bohemiancoding.com/sketch -->
    <title>Actions / iconDownload</title>
    <desc>Created with Sketch.</desc>
    <defs></defs>
    <g id="icons" stroke="none" stroke-width="1" fill="none" fill-rule="evenodd">
        <g id="Actions-/-iconDownload" fill="#999999">
            <g id="iconDownload">
                <path d="M88.3049334,48.105828 C88.3049334,59.0443186 79.3925976,67.9120263 68.3970487,67.9120263 C67.0846014,67.9120263 65.8199462,67.7435896 64.5791681,67.4998513 L72.360311,59.6784342 L72.0416592,59.357413 C76.8413778,57.8157199 80.338601,53.3868204 80.338601,48.0979014 C80.338601,41.5348069 74.9911843,36.2141822 68.3930755,36.2141822 C67.7836222,36.2141822 67.2000895,36.3053366 66.614589,36.3925271 C67.7477876,33.9075874 68.4030274,31.1610753 68.4030274,28.2540524 C68.4030274,17.3096169 59.4866805,8.4379459 48.4871584,8.4379459 C40.9390351,8.4379459 34.3727876,12.6171628 30.9950635,18.7779904 C30.2223301,18.5302889 29.4137242,18.3598706 28.5573642,18.3598706 C24.1619296,18.3598706 20.5969726,21.9128985 20.5969726,26.2962211 C20.5969726,28.7177494 21.7082995,30.8578886 23.4210576,32.3143728 C23.1362727,32.296538 22.8673807,32.2291634 22.5786227,32.2291634 C14.8871231,32.2291634 8.65144707,38.4415128 8.65144707,46.1063826 C8.65144707,51.9025937 12.2223829,56.858602 17.28895,58.9353302 L16.5918969,59.6368205 L24.6976703,67.7832218 C23.9966061,67.8505964 23.2955797,67.9159895 22.5786227,67.9159895 C10.4936562,67.9159895 0.695066539,58.1506122 0.695066539,46.1063826 C0.695066539,37.6250892 5.56448661,30.297093 12.6625015,26.6965065 C12.6585283,26.5637385 12.6425976,26.4329523 12.6425976,26.3001842 C12.6425976,18.0210152 19.0017082,11.2320171 27.1134602,10.5008024 C32.2198731,4.39942331 39.8874955,0.505558471 48.4931371,0.505558471 C63.892067,0.505558471 76.3753386,12.9262942 76.3753386,28.2481078 C76.3753386,28.8148484 76.3335253,29.3716808 76.2996584,29.9285133 C83.3618386,32.9722673 88.3049334,39.9614081 88.3049334,48.105828 Z M30.4035466,56.8189699 C30.4015788,56.8209514 30.4015788,56.822933 30.3995733,56.8249149 C30.3995733,56.8268965 30.3975678,56.8268965 30.3956001,56.8268965 L30.4035466,56.8189699 Z M36.0278017,56.8268965 L40.5128416,61.2894834 L40.5128416,44.1287353 C40.5128416,41.9410373 42.2953013,40.1655139 44.4960079,40.1655139 C46.6947468,40.1655139 48.4791741,41.9390554 48.4791741,44.1287353 L48.4791741,61.2538144 L52.9104811,56.8447308 C54.4658999,55.297093 56.9872638,55.297093 58.5446503,56.8447308 C60.1001069,58.3923686 60.1001069,60.9010878 58.5446503,62.4507075 L47.3041622,73.634918 C45.7487434,75.1825557 43.2273795,75.1825557 41.6699551,73.634918 L30.4035466,62.4249465 C28.8501333,60.8773083 28.8481278,58.3725527 30.3995733,56.8249149 C31.9549921,55.2812402 34.4723829,55.2832218 36.0278017,56.8268965 Z" fill-rule="nonzero"></path>
            </g>
        </g>
    </g>
</svg>