<?xml version="1.0" encoding="UTF-8"?>
<svg width="76px" height="75px" viewBox="0 0 76 75" version="1.1" xmlns="http://www.w3.org/2000/svg" xmlns:xlink="http://www.w3.org/1999/xlink">
    <!-- Generator: Sketch 51.3 (57544) - http://www.bohemiancoding.com/sketch -->
    <title>Actions / img-search</title>
    <desc>Created with Sketch.</desc>
    <defs></defs>
    <g id="icons" stroke="none" stroke-width="1" fill="none" fill-rule="evenodd">
        <g id="Actions-/-img-search" fill="#999999">
            <g id="Shape">
                <path d="M73.0442699,62.1963718 C75.9824673,65.1267786 75.9824673,69.8739253 73.0442699,72.8024572 C70.1060728,75.730989 65.341378,75.730989 62.4031809,72.8024572 L49.1022899,59.5453192 C48.9273524,59.3709572 48.8238947,59.1965951 48.6809351,59.0222331 C48.4401609,59.1703471 48.2200783,59.3372096 47.973661,59.4796991 C32.678859,68.2802938 13.121602,63.0588076 4.29196233,47.8143175 C-4.54143948,32.5698273 0.69916049,13.0769034 15.9939625,4.27630857 C31.2887645,-4.52616114 50.8460214,0.697200013 59.6756611,15.9416902 C65.7458033,26.4184103 65.1664405,38.9031059 59.2467822,48.5436382 C59.4123144,48.6786281 59.5759656,48.7761209 59.7414978,48.9392337 L73.0442699,62.1963718 Z M53.1597106,19.691411 C46.406748,8.03352885 31.4505346,4.04007616 19.7560587,10.7708251 C8.06158269,17.501574 4.05306922,32.4067145 10.8060319,44.0645966 C17.5589945,55.7224787 32.5152078,59.7159314 44.2096838,52.9851825 C55.9041598,46.2544336 59.9126732,31.3492931 53.1597106,19.691411 Z" fill-rule="nonzero"></path>
            </g>
        </g>
    </g>
</svg>