<?xml version="1.0" encoding="UTF-8"?>
<svg width="75px" height="75px" viewBox="0 0 75 75" version="1.1" xmlns="http://www.w3.org/2000/svg" xmlns:xlink="http://www.w3.org/1999/xlink">
    <!-- Generator: Sketch 51.3 (57544) - http://www.bohemiancoding.com/sketch -->
    <title>Actions / img-radio-off</title>
    <desc>Created with Sketch.</desc>
    <defs></defs>
    <g id="icons" stroke="none" stroke-width="1" fill="none" fill-rule="evenodd">
        <g id="Actions-/-img-radio-off">
            <g id="Shape">
                <path d="M37.5,73.5 C17.64975,73.5 1.5,57.35025 1.5,37.5 C1.5,17.64975 17.64975,1.5 37.5,1.5 C57.35025,1.5 73.5,17.64975 73.5,37.5 C73.5,57.35025 57.35025,73.5 37.5,73.5 Z" fill="#FFFFFF" fill-rule="nonzero"></path>
                <path d="M37.5,3 C56.523,3 72,18.477 72,37.5 C72,56.523 56.523,72 37.5,72 C18.477,72 3,56.523 3,37.5 C3,18.477 18.477,3 37.5,3 Z M37.5,0 C16.7895,0 0,16.7895 0,37.5 C0,58.2105 16.7895,75 37.5,75 C58.2105,75 75,58.2105 75,37.5 C75,16.7895 58.2105,0 37.5,0 Z" fill="#CCCCCC" fill-rule="nonzero"></path>
            </g>
        </g>
    </g>
</svg>