<?xml version="1.0" encoding="UTF-8"?>
<svg width="66px" height="75px" viewBox="0 0 66 75" version="1.1" xmlns="http://www.w3.org/2000/svg" xmlns:xlink="http://www.w3.org/1999/xlink">
    <!-- Generator: Sketch 51.3 (57544) - http://www.bohemiancoding.com/sketch -->
    <title>Actions / img-update-preview</title>
    <desc>Created with Sketch.</desc>
    <defs></defs>
    <g id="icons" stroke="none" stroke-width="1" fill="none" fill-rule="evenodd">
        <g id="Actions-/-img-update-preview" fill="#999999">
            <g id="Shape">
                <path d="M65.5836706,42.1679802 C65.5803914,60.3000794 50.9011263,74.9991631 32.7918353,74.9991631 C14.6809047,74.9991631 0,60.2984376 0,42.1630548 C0,26.2605273 11.2902289,13.0045902 26.2810164,9.9787428 L26.2482245,2.77285877 C26.2400266,0.960305577 27.5057914,0.223134935 29.0748808,1.12941154 L46.3315841,11.0869615 C47.9006734,11.9932381 47.8973942,13.4544449 46.3250257,14.3525125 L29.2011294,24.1327475 C27.6287609,25.0308151 26.3466001,24.2903608 26.3384021,22.4761658 L26.3121686,16.7347722 C14.9629144,19.6292752 6.55836706,29.90041 6.55836706,42.1646966 C6.55836706,56.6716894 18.3027629,68.4335835 32.7918353,68.4335835 C47.2792681,68.4335835 59.0253035,56.6716894 59.0253035,42.1646966 C59.0253035,40.3521434 60.4943777,38.8810857 62.3044871,38.8810857 C64.1145964,38.8810857 65.5836706,40.3521434 65.5836706,42.1646966 L65.5836706,42.1679802 Z" fill-rule="nonzero"></path>
            </g>
        </g>
    </g>
</svg>