<?xml version="1.0" encoding="UTF-8"?>
<svg width="75px" height="75px" viewBox="0 0 75 75" version="1.1" xmlns="http://www.w3.org/2000/svg" xmlns:xlink="http://www.w3.org/1999/xlink">
    <!-- Generator: Sketch 51.3 (57544) - http://www.bohemiancoding.com/sketch -->
    <title>Actions / img-save-later</title>
    <desc>Created with Sketch.</desc>
    <defs></defs>
    <g id="icons" stroke="none" stroke-width="1" fill="none" fill-rule="evenodd">
        <g id="Actions-/-img-save-later" fill="#999999">
            <g id="Shape">
                <path d="M37.5,75 C16.790625,75 0,58.209375 0,37.5 C0,16.78875 16.790625,0 37.5,0 C58.21125,0 75,16.78875 75,37.5 C75,58.209375 58.21125,75 37.5,75 Z M37.5,7.5 C20.9325,7.5 7.5,20.9325 7.5,37.5 C7.5,54.0675 20.930625,67.5 37.5,67.5 C54.069375,67.5 67.5,54.0675 67.5,37.5 C67.5,20.9325 54.069375,7.5 37.5,7.5 Z M42.7634133,38.4379471 C42.7634133,40.5088862 41.0849185,42.1873809 39.0126538,42.1887067 L26.2104855,42.1887067 C24.1395465,42.1887067 22.4610518,40.510212 22.4597259,38.4379471 C22.4597259,36.3670082 24.1382206,34.6885135 26.2091597,34.6885135 L35.2645459,34.6885135 L35.2645459,18.5903437 C35.2645459,16.5194047 36.9430405,14.84091 39.0153054,14.8395842 C41.0862444,14.8395842 42.7647391,16.5180789 42.7647391,18.5890179 L42.7634133,38.4379471 Z" fill-rule="nonzero"></path>
            </g>
        </g>
    </g>
</svg>