<?xml version="1.0" encoding="UTF-8"?>
<svg width="75px" height="75px" viewBox="0 0 75 75" version="1.1" xmlns="http://www.w3.org/2000/svg" xmlns:xlink="http://www.w3.org/1999/xlink">
    <!-- Generator: Sketch 51.3 (57544) - http://www.bohemiancoding.com/sketch -->
    <title>Actions / img-edit</title>
    <desc>Created with Sketch.</desc>
    <defs></defs>
    <g id="icons" stroke="none" stroke-width="1" fill="none" fill-rule="evenodd">
        <g id="Actions-/-img-edit" fill="#999999">
            <g id="Shape">
                <path d="M72.8542199,20.2780334 L26.2287358,66.9035175 L2.50571288,74.8105815 C0.586184775,75.4498132 -0.45050693,74.413122 0.188725238,72.4935937 L8.09578898,48.7705708 L54.7212731,2.14691825 C57.5822492,-0.715889414 62.2217193,-0.715889414 65.0826953,2.14691825 L72.8542199,9.9184428 C75.7151963,12.7794188 75.7151963,17.4170573 72.8542199,20.2780334 Z M8.09578898,66.9035175 L17.1622624,63.018671 L11.9824671,57.8388757 L8.09578898,66.9035175 Z M13.2774159,53.9521977 L21.0489404,61.7237222 L62.4927977,20.279865 L54.7212731,12.5083405 L13.2774159,53.9521977 Z M59.9029001,7.32671355 L55.7597965,11.4698171 L57.3130024,9.91661122 L65.084527,17.6863042 L63.0148067,19.7578559 L67.6744246,15.0964065 L59.9029001,7.32671355 Z" fill-rule="nonzero"></path>
            </g>
        </g>
    </g>
</svg>