<?xml version="1.0" encoding="UTF-8"?>
<svg width="86px" height="75px" viewBox="0 0 86 75" version="1.1" xmlns="http://www.w3.org/2000/svg" xmlns:xlink="http://www.w3.org/1999/xlink">
    <!-- Generator: Sketch 51.3 (57544) - http://www.bohemiancoding.com/sketch -->
    <title>Actions / img-upload</title>
    <desc>Created with Sketch.</desc>
    <defs></defs>
    <g id="icons" stroke="none" stroke-width="1" fill="none" fill-rule="evenodd">
        <g id="Actions-/-img-upload" fill="#999999">
            <g id="img-upload">
                <path d="M86,47.0748565 C86,57.8926079 77.2512219,66.6624336 66.457478,66.6624336 C64.3734115,66.6624336 62.3675464,66.3273185 60.4828935,65.7217596 C60.060606,66.0666734 59.6226784,66.3919898 59.1749755,66.7035881 L67.1045944,58.7568522 C73.2707723,58.4119384 78.1798631,53.3381778 78.1798631,47.0689772 C78.1798631,40.5783264 72.9305963,35.3164309 66.4535679,35.3164309 C65.8553275,35.3164309 65.2825025,35.4065789 64.7077224,35.4928074 C65.8201369,33.0352965 66.4633431,30.3191002 66.4633431,27.4441651 C66.4633431,16.6205345 57.7106549,7.84678928 46.9130009,7.84678928 C39.5014663,7.84678928 33.0576735,11.9798759 29.7399804,18.0727 C28.9833822,17.825773 28.1896383,17.6572356 27.3509286,17.6572356 C23.0361681,17.6572356 19.5366569,21.1710451 19.5366569,25.5059847 C19.5366569,27.900784 20.6275659,30.0173006 22.3088954,31.4577077 C22.0293255,31.4400701 21.7653959,31.373439 21.4819159,31.373439 C13.9315738,31.373439 7.81036168,37.5172163 7.81036168,45.0974813 C7.81036168,51.6939579 12.4496579,57.1929816 18.6275659,58.511885 L26.2052786,66.1097877 C24.6823069,66.4547015 23.1085044,66.6643934 21.4819159,66.6643934 C9.6187683,66.6663531 0,57.0087663 0,45.0974813 C0,36.7098044 4.78005865,29.4626948 11.7478006,25.9018516 C11.7438905,25.7705492 11.7282503,25.6412066 11.7282503,25.5099041 C11.7282503,17.3221205 17.9706745,10.6080596 25.9335288,9.88491638 C30.9442815,3.85088435 38.4731182,0 46.9208211,0 C62.0371457,0 74.2913001,12.2836352 74.2913001,27.4363262 C74.2913001,27.9968111 74.2502444,28.5474974 74.2170088,29.0981836 C81.1476051,32.1083406 86,39.020335 86,47.0748565 Z M40.230694,41.3994565 C41.7575757,39.8689014 44.2326491,39.8689014 45.7614858,41.3994565 L56.8211144,52.485692 C58.3460411,54.0142872 58.3460411,56.4913956 56.8250244,58.0239103 C55.2981428,59.5505459 52.8269795,59.5505459 51.3000978,58.0219506 L46.8993158,53.6105813 L46.8993158,70.5819088 C46.8993158,72.7454591 45.1476051,74.501384 42.9892473,74.501384 C40.8308895,74.501384 39.0791789,72.7454591 39.0791789,70.5819088 L39.0791789,53.6458566 L34.7292278,58.0062728 C33.202346,59.5368278 30.7272727,59.5368278 29.200391,58.0062728 C27.6735093,56.4757177 27.6735093,53.9946899 29.200391,52.4621751 L40.230694,41.3994565 Z M56.8191593,58.0278298 C56.8211144,58.0258701 56.8211144,58.0239103 56.8230694,58.0219506 C56.8230694,58.0219506 56.8250244,58.0219506 56.8269795,58.0199909 L56.8191593,58.0278298 Z" id="Shape" fill-rule="nonzero"></path>
            </g>
        </g>
    </g>
</svg>