<?xml version="1.0" encoding="UTF-8"?>
<svg width="74px" height="43px" viewBox="0 0 74 43" version="1.1" xmlns="http://www.w3.org/2000/svg" xmlns:xlink="http://www.w3.org/1999/xlink">
    <!-- Generator: Sketch 51.3 (57544) - http://www.bohemiancoding.com/sketch -->
    <title>Actions / minimalarrow_up_drkgrey</title>
    <desc>Created with Sketch.</desc>
    <defs></defs>
    <g id="icons" stroke="none" stroke-width="1" fill="none" fill-rule="evenodd">
        <g id="Actions-/-minimalarrow_up_drkgrey" fill="#999999">
            <g id="Shape">
                <path d="M71.9886364,39.7025789 L70.3818182,41.3026316 C68.6068182,43.0701579 65.7204545,43.0633684 63.9363636,41.2867895 L36.6568182,14.1221053 L9.37954545,41.2867895 C7.59545455,43.0633684 4.70909091,43.0724211 2.93409091,41.3048947 L1.32727273,39.7048421 C-0.447727273,37.9373158 -0.440909091,35.0631053 1.34545455,33.2865263 L33.425,1.33752632 L33.4431818,1.31942105 C34.3,0.466210526 35.4181818,0.0362105263 36.5454545,0.00905263158 C36.5818182,0.00905263158 36.6181818,0 36.6545455,0 C36.7409091,0 36.825,0.0181052632 36.9113636,0.0248947368 C37.9886364,0.0837368421 39.05,0.502421053 39.8704545,1.32168421 L39.8863636,1.33752632 L40.9022727,2.34915789 L41.4772727,2.92173684 L71.9704545,33.2865263 C73.7545455,35.0631053 73.7636364,37.9350526 71.9886364,39.7025789 Z" fill-rule="nonzero"></path>
            </g>
        </g>
    </g>
</svg>