<?xml version="1.0" encoding="UTF-8"?>
<svg width="79px" height="75px" viewBox="0 0 79 75" version="1.1" xmlns="http://www.w3.org/2000/svg" xmlns:xlink="http://www.w3.org/1999/xlink">
    <!-- Generator: Sketch 51.3 (57544) - http://www.bohemiancoding.com/sketch -->
    <title>Actions / print</title>
    <desc>Created with Sketch.</desc>
    <defs></defs>
    <g id="icons" stroke="none" stroke-width="1" fill="none" fill-rule="evenodd">
        <g id="Actions-/-print" fill="#999999">
            <g id="Shape-Copy-9">
                <path d="M71.1,74.6428571 L7.9,74.6428571 C3.537225,74.6428571 0,71.1248214 0,66.7857143 L0,51.0714286 C0,46.7323214 3.537225,43.2142857 7.9,43.2142857 L15.8,43.2142857 L15.8,7.85714286 C15.8,3.51803571 19.337225,0 23.7,0 L55.3,0 C59.662775,0 63.2,3.51803571 63.2,7.85714286 L63.2,43.2142857 L71.1,43.2142857 C75.462775,43.2142857 79,46.7323214 79,51.0714286 L79,66.7857143 C79,71.1248214 75.462775,74.6428571 71.1,74.6428571 Z M55.3,7.85714286 L23.7,7.85714286 L23.7,43.2142857 L55.3,43.2142857 L55.3,7.85714286 Z M71.1,51.0714286 L7.9,51.0714286 L7.9,66.7857143 L71.1,66.7857143 L71.1,51.0714286 Z M63.2,55 C65.3804,55 67.15,56.76 67.15,58.9285714 C67.15,61.0991071 65.382375,62.8571429 63.2,62.8571429 C61.017625,62.8571429 59.25,61.0991071 59.25,58.9285714 C59.25,56.76 61.0196,55 63.2,55 Z M51.35,15.7142857 L27.65,15.7142857 L27.65,11.7857143 L51.35,11.7857143 L51.35,15.7142857 Z M51.35,23.5714286 L27.65,23.5714286 L27.65,19.6428571 L51.35,19.6428571 L51.35,23.5714286 Z M39.5,31.4285714 L27.65,31.4285714 L27.65,27.5 L39.5,27.5 L39.5,31.4285714 Z" fill-rule="nonzero"></path>
            </g>
        </g>
    </g>
</svg>