<?xml version="1.0" encoding="UTF-8"?>
<svg width="64px" height="74px" viewBox="0 0 64 74" version="1.1" xmlns="http://www.w3.org/2000/svg" xmlns:xlink="http://www.w3.org/1999/xlink">
    <!-- Generator: Sketch 51.3 (57544) - http://www.bohemiancoding.com/sketch -->
    <title>Actions / rightarrow_drkgrey</title>
    <desc>Created with Sketch.</desc>
    <defs></defs>
    <g id="icons" stroke="none" stroke-width="1" fill="none" fill-rule="evenodd">
        <g id="Actions-/-rightarrow_drkgrey" fill="#999999">
            <g id="Shape-Copy-488">
                <path d="M63.8971034,37.1181818 C63.7946897,38.1204545 63.426,39.1045455 62.6590345,39.8704545 L62.6431034,39.8863636 L61.6963448,40.8318182 L61.05,41.4772727 L30.5147586,71.9704545 C28.7282069,73.7545455 25.8378621,73.7613636 24.0604138,71.9863636 L22.4513793,70.3795455 C20.673931,68.6045455 20.6807586,65.7204545 22.4673103,63.9363636 L45.225931,41.2090909 L4.57448276,41.2090909 C2.04827586,41.2090909 0,39.1727273 0,36.6636364 C0,34.1545455 2.04827586,32.1181818 4.57448276,32.1181818 L45.2395862,32.1181818 L22.4695862,9.37727273 C20.6807586,7.59318182 20.673931,4.70909091 22.4513793,2.93409091 L24.0604138,1.32727273 C25.8378621,-0.447727273 28.7282069,-0.440909091 30.5147586,1.34545455 L62.5907586,33.375 L62.6590345,33.4431818 C63.4646897,34.2477273 63.8538621,35.2886364 63.9266897,36.3454545 C63.9335172,36.45 63.9858621,36.55 63.9858621,36.6568182 C63.9858621,36.8136364 63.9130345,36.9613636 63.8971034,37.1181818 Z" fill-rule="nonzero"></path>
            </g>
        </g>
    </g>
</svg>