<?xml version="1.0" encoding="UTF-8"?>
<svg width="71px" height="73px" viewBox="0 0 71 73" version="1.1" xmlns="http://www.w3.org/2000/svg" xmlns:xlink="http://www.w3.org/1999/xlink">
    <!-- Generator: Sketch 51.3 (57544) - http://www.bohemiancoding.com/sketch -->
    <title>Actions / viewfullscreen</title>
    <desc>Created with Sketch.</desc>
    <defs></defs>
    <g id="icons" stroke="none" stroke-width="1" fill="none" fill-rule="evenodd">
        <g id="Actions-/-viewfullscreen" transform="translate(0.000000, -1.000000)" fill="#999999">
            <g id="Shape-Copy-32">
                <path d="M39.7980274,42.5551704 C38.6195767,43.7361746 38.6238465,45.657446 39.8087018,46.8448687 L58.8827372,65.9602346 L37.526521,65.959165 C35.8506444,65.959165 34.4907294,67.3134687 34.4907294,68.9844185 L34.4907294,70.4970452 C34.4907294,72.167995 35.8506444,73.5222987 37.526521,73.5222987 L66.1679962,73.5244383 L67.6773526,73.5244383 C68.433098,73.5244383 69.1023811,73.21742 69.6307625,72.7563577 C69.6873368,72.7103583 69.7599224,72.6868238 69.8111595,72.6354758 C69.8816103,72.5648723 69.9157684,72.4643158 69.9787471,72.386224 C70.4067894,71.8652558 70.6971324,71.2255452 70.6981997,70.4991848 L70.6981997,69.641245 L70.6981997,40.2808813 C70.6981997,38.6013737 69.3457568,37.2395817 67.6784199,37.2395817 L66.1690637,37.2395817 C64.5017267,37.2395817 63.1492838,38.6013737 63.1492838,40.2808813 L63.1503513,61.6790944 L44.0784505,42.5658679 C42.8935952,41.3784452 40.9775454,41.3730963 39.7980274,42.5551704 Z M31.4322446,32.2513981 C32.6106953,31.070394 32.6064255,29.1491227 31.4215702,27.9616998 L12.3475346,8.84633381 L33.7037509,8.84740356 C35.3796274,8.84740356 36.7395424,7.49309983 36.7395424,5.82215004 L36.7395424,4.30952327 C36.7395424,2.63857348 35.3796274,1.28426974 33.7037509,1.28426974 L5.06227563,1.28213024 L3.5529194,1.28213024 C2.79717386,1.28213024 2.12789072,1.58914854 1.59950931,2.05021087 C1.54293514,2.09621013 1.47034941,2.11974463 1.41911242,2.17109265 C1.34866156,2.24169615 1.31450357,2.34225267 1.25152478,2.42034444 C0.823482455,2.94131279 0.533139532,3.58102338 0.532072095,4.30738377 L0.532072095,5.16532342 L0.532072095,34.5256871 C0.532072095,36.2051948 1.88451504,37.5669869 3.55185197,37.5669869 L5.06120819,37.5669869 C6.72854512,37.5669869 8.08098806,36.2051948 8.08098806,34.5256871 L8.07992062,13.1274741 L27.1518213,32.2407006 C28.3366766,33.4281233 30.2527264,33.4334721 31.4322446,32.2513981 Z" fill-rule="nonzero"></path>
            </g>
        </g>
    </g>
</svg>