<?xml version="1.0" encoding="UTF-8"?>
<svg width="68px" height="75px" viewBox="0 0 68 75" version="1.1" xmlns="http://www.w3.org/2000/svg" xmlns:xlink="http://www.w3.org/1999/xlink">
    <!-- Generator: Sketch 51.3 (57544) - http://www.bohemiancoding.com/sketch -->
    <title>Documents / doc_stack</title>
    <desc>Created with Sketch.</desc>
    <defs></defs>
    <g id="icons" stroke="none" stroke-width="1" fill="none" fill-rule="evenodd">
        <g id="Documents-/-doc_stack" fill="#999999">
            <g id="Shape-Copy-12">
                <path d="M60.7142857,75 L17.8571429,75 C13.9125,75 10.7142857,71.8017857 10.7142857,67.8571429 L10.7142857,64.2857143 L7.14285714,64.2857143 C3.19821429,64.2857143 0,61.0875 0,57.1428571 L0,7.14285714 C0,3.19821429 3.19821429,0 7.14285714,0 L50,0 C53.9446429,0 57.1428571,3.19821429 57.1428571,7.14285714 L57.1428571,10.7142857 L60.7142857,10.7142857 C64.6589286,10.7142857 67.8571429,13.9125 67.8571429,17.8571429 L67.8571429,67.8571429 C67.8571429,71.8017857 64.6589286,75 60.7142857,75 Z M50,7.14285714 L7.14285714,7.14285714 L7.14285714,57.1428571 L50,57.1428571 L50,7.14285714 Z M60.7142857,17.8571429 L57.1428571,17.8571429 L57.1428571,57.1428571 C57.1428571,61.0875 53.9446429,64.2857143 50,64.2857143 L17.8571429,64.2857143 L17.8571429,67.8571429 L60.7142857,67.8571429 L60.7142857,17.8571429 Z M42.8571429,17.8571429 L14.2857143,17.8571429 L14.2857143,14.2857143 L42.8571429,14.2857143 L42.8571429,17.8571429 Z M42.8571429,25 L14.2857143,25 L14.2857143,21.4285714 L42.8571429,21.4285714 L42.8571429,25 Z M28.5714286,32.1428571 L14.2857143,32.1428571 L14.2857143,28.5714286 L28.5714286,28.5714286 L28.5714286,32.1428571 Z" fill-rule="nonzero"></path>
            </g>
        </g>
    </g>
</svg>