<?xml version="1.0" encoding="UTF-8"?>
<svg width="42px" height="46px" viewBox="0 0 42 46" version="1.1" xmlns="http://www.w3.org/2000/svg" xmlns:xlink="http://www.w3.org/1999/xlink">
    <!-- Generator: Sketch 52.3 (67297) - http://www.bohemiancoding.com/sketch -->
    <title>Error</title>
    <desc>Created with Sketch.</desc>
    <g id="KYC" stroke="none" stroke-width="1" fill="none" fill-rule="evenodd">
        <g id="ID-Verification-Error" transform="translate(-700.000000, -233.000000)">
            <g id="Error" transform="translate(700.000000, 233.000000)">
                <g id="Document">
                    <path d="M4,40 C1.791,40 0,38.209 0,36 L0,4 C0,1.791 1.791,0 4,0 L32,0 C34.209,0 36,1.791 36,4 L36,36 C36,38.209 34.209,40 32,40 L4,40 Z" id="Path" fill="#333333"></path>
                    <polygon id="Path" fill="#FFFFFF" points="4 4 4 36 32 36 32 4"></polygon>
                    <polygon id="Path" fill="#333333" points="28 10 8 10 8 8 28 8"></polygon>
                    <polygon id="Path" fill="#333333" points="28 14 8 14 8 12 28 12"></polygon>
                    <polygon id="Path" fill="#333333" points="18 18 8 18 8 16 18 16"></polygon>
                </g>
                <g id="X" transform="translate(22.000000, 26.000000)">
                    <path d="M14.6360976,18.2068293 C9.9697561,20.9004878 4.00292683,19.3019512 1.30878049,14.6356098 C-1.38536585,9.96926829 0.213170732,4.00243902 4.8795122,1.30878049 C9.54585366,-1.38536585 15.5126829,0.213170732 18.2068293,4.8795122 C20.9009756,9.54585366 19.3019512,15.5126829 14.6360976,18.2068293 L14.6360976,18.2068293 Z" id="Path" stroke="#FFFFFF" fill="#ED1C24"></path>
                    <path d="M12.5170732,12.5170732 L12.5170732,12.5170732 C12.1360976,12.8980488 11.5185366,12.8980488 11.137561,12.5170732 L9.75756098,11.137561 L8.37756098,12.5170732 C7.99658537,12.8980488 7.37902439,12.8980488 6.99804878,12.5170732 L6.99804878,12.5170732 C6.61707317,12.1360976 6.61707317,11.5185366 6.99804878,11.137561 L8.37804878,9.75756098 L6.99804878,8.37756098 C6.61707317,7.99658537 6.61707317,7.37902439 6.99804878,6.99804878 L6.99804878,6.99804878 C7.37902439,6.61707317 7.99658537,6.61707317 8.37756098,6.99804878 L9.75756098,8.37804878 L11.137561,6.99804878 C11.5185366,6.61707317 12.1360976,6.61707317 12.517561,6.99804878 L12.517561,6.99804878 C12.8985366,7.37902439 12.8985366,7.99658537 12.517561,8.37756098 L11.1380488,9.75756098 L12.517561,11.137561 C12.8980488,11.5185366 12.8980488,12.1360976 12.5170732,12.5170732 L12.5170732,12.5170732 Z" id="Path" fill="#FFFFFF"></path>
                </g>
            </g>
        </g>
    </g>
</svg>