<?xml version="1.0" encoding="UTF-8"?>
<svg width="74px" height="75px" viewBox="0 0 74 75" version="1.1" xmlns="http://www.w3.org/2000/svg" xmlns:xlink="http://www.w3.org/1999/xlink">
    <!-- Generator: Sketch 51.3 (57544) - http://www.bohemiancoding.com/sketch -->
    <title>Documents / img-doc-qa-answered</title>
    <desc>Created with Sketch.</desc>
    <defs></defs>
    <g id="icons" stroke="none" stroke-width="1" fill="none" fill-rule="evenodd">
        <g id="Documents-/-img-doc-qa-answered" fill="#999999">
            <g id="Shape">
                <path d="M0,39.2450495 C0,52.1428218 10.4569307,62.6027228 23.3584158,62.6027228 C27.7084158,62.6027228 31.7777228,61.4116337 35.2663366,59.3376238 L45.2220297,62.5470297 C46.1257426,62.839604 46.9700495,61.9618812 46.6455446,61.0685644 L43.1925743,51.5814356 C45.4217822,48 46.7153465,43.775495 46.7153465,39.2450495 C46.7153465,26.3435644 36.2584158,15.8881188 23.3576733,15.8881188 C10.4569307,15.8881188 0,26.3435644 0,39.2450495 Z M27.1522277,54.8175743 L19.3670792,54.8175743 L19.3670792,47.030198 L27.1522277,47.030198 L27.1522277,54.8175743 Z M34.4524752,34.6217822 C33.8866337,35.8507426 32.9918317,37.0566832 31.044802,38.2722772 C30.0490099,38.8938119 28.3908416,39.8420792 27.6393564,40.7056931 C27.2094059,41.1935644 27.1507426,42.1247525 27.1507426,43.1368812 L19.3670792,43.1368812 C19.3670792,43.1368812 19.3670792,41.5128713 19.8542079,39.8925743 C20.3858911,38.1155941 22.5378713,35.9910891 24.680198,34.3566832 C25.8215347,33.4997525 26.3925743,32.7148515 26.3925743,32.0012376 C26.3925743,31.2876238 26.1623762,30.7344059 25.7049505,30.340099 C25.2460396,29.9428218 24.5532178,29.7475248 23.6227723,29.7475248 C22.6225248,29.7475248 21.7930693,30.0482673 21.1388614,30.6594059 C20.4846535,31.2712871 20.0636139,32.3346535 19.880198,33.8502475 L11.6806931,32.9168317 C11.9613861,30.1418317 13.0574257,27.9044554 14.9665842,26.2136139 C16.8779703,24.5235149 19.805198,23.675495 23.7497525,23.675495 C26.8225248,23.675495 29.3042079,24.2680693 31.1910891,25.4435644 C33.7544554,27.0408416 35.0376238,29.1683168 35.0376238,31.8274752 C35.0368812,32.9287129 34.9514851,33.5376238 34.4524752,34.6217822 Z" fill-rule="nonzero"></path>
                <path d="M70.2363861,16.0217822 L58.2341584,4.02178218 C56.1378713,1.92846535 53.2767327,0.741831683 50.3086634,0.741831683 L17.8225248,0.741831683 C16.6321782,0.741831683 15.4485149,1.19257426 14.539604,2.1 C13.6351485,3.00445545 13.1806931,4.19554455 13.1806931,5.38143564 L13.1806931,13.1955446 C14.6725248,12.6616337 16.2267327,12.2584158 17.8217822,11.9903465 L17.8217822,5.38143564 L50.3079208,5.38143564 C51.5918317,5.38143564 53.4029703,6.41658416 53.4029703,7.70272277 L53.4029703,12.3423267 C53.4029703,14.7193069 53.5373762,17.0918317 55.3477723,18.9029703 C57.1581683,20.7170792 59.5410891,20.8514851 61.9158416,20.8514851 L66.5539604,20.8514851 C67.8378713,20.8514851 68.8752475,22.6655941 68.8752475,23.9457921 L68.8752475,70.3566832 L17.8225248,70.3566832 L17.8225248,66.8413366 C16.2267327,66.5740099 14.6725248,66.1685644 13.1814356,65.6368812 L13.1814356,70.3566832 C13.1814356,71.5433168 13.6358911,72.7314356 14.5403465,73.639604 C15.4485149,74.5440594 16.6329208,74.9992574 17.8232673,74.9992574 L68.8752475,74.9992574 C70.0655941,74.9992574 71.2477723,74.5433168 72.1544554,73.639604 C73.0589109,72.7314356 73.5148515,71.5433168 73.5148515,70.3566832 L73.5148515,23.9457921 C73.5155941,20.9814356 72.334901,18.1232673 70.2363861,16.0217822 Z" fill-rule="nonzero"></path>
            </g>
        </g>
    </g>
</svg>