<?xml version="1.0" encoding="UTF-8"?>
<svg width="75px" height="75px" viewBox="0 0 75 75" version="1.1" xmlns="http://www.w3.org/2000/svg" xmlns:xlink="http://www.w3.org/1999/xlink">
    <!-- Generator: Sketch 51.3 (57544) - http://www.bohemiancoding.com/sketch -->
    <title>Documents / img-doc-signed</title>
    <desc>Created with Sketch.</desc>
    <defs></defs>
    <g id="icons" stroke="none" stroke-width="1" fill="none" fill-rule="evenodd">
        <g id="Documents-/-img-doc-signed" fill="#999999">
            <g id="Shape">
                <path d="M71.67975,15.438 L59.5605,3.31875 C57.444,1.197 54.55275,0.00075 51.56025,0.00075 L18.74775,0.00075 C17.54925,0.00075 16.34775,0.462 15.43275,1.37775 C14.517,2.29125 14.058,3.492 14.058,4.6935 L14.058,10.93875 C14.82675,10.8315 15.60525,10.75575 16.392,10.75575 C17.18775,10.75575 17.97375,10.8315 18.74775,10.93875 L18.74775,4.69125 L51.56025,4.69125 C52.857,4.69125 54.68475,5.74125 54.68475,7.03725 L54.68475,11.7225 C54.68475,14.12025 54.81975,16.5195 56.6505,18.348 C58.48125,20.1765 60.88125,20.31825 63.276,20.31825 L67.9635,20.31825 C69.26025,20.31825 70.30725,22.149 70.30725,23.43825 L70.30725,70.31325 L18.74775,70.31325 L18.74775,67.18725 L14.058,67.18725 L14.058,70.31325 C14.058,71.51475 14.517,72.7095 15.43275,73.62375 C16.3485,74.541 17.54925,74.99775 18.74775,74.99775 L70.308,74.99775 C71.5095,74.99775 72.71025,74.541 73.629,73.62375 C74.54175,72.7095 75.00075,71.51475 75.00075,70.31325 L75.00075,23.43825 C75,20.44575 73.80075,17.55975 71.67975,15.438 Z" fill-rule="nonzero"></path>
                <path d="M31.4355,38.8785 C30.52275,37.95975 29.3235,37.50375 28.12275,37.50375 L28.12275,37.8915 L28.12275,27.34725 C28.128,24.35175 26.973,21.3435 24.68775,19.05825 C22.40775,16.77825 19.39725,15.621 16.40175,15.6255 C13.41375,15.621 10.401,16.77825 8.11575,19.05825 C5.835,21.3435 4.683,24.35175 4.68825,27.34725 L4.68825,37.50375 C3.4845,37.50375 2.2905,37.95975 1.37325,38.8785 C0.459,39.79125 0,40.9875 0,42.189 L0,57.813 C0,59.0145 0.459,60.21075 1.3725,61.1265 C2.2905,62.04225 3.48375,62.5005 4.6875,62.5005 L28.12275,62.5005 C29.32425,62.5005 30.52275,62.04225 31.4355,61.1265 C32.35125,60.21075 32.81025,59.0145 32.81025,57.813 L32.81025,42.189 C32.81025,40.9875 32.35125,39.79125 31.4355,38.8785 Z M9.37275,27.34725 C9.375,25.53825 10.059,23.75325 11.436,22.374 C12.81525,20.997 14.60025,20.3205 16.40175,20.31825 C18.2085,20.3205 19.99575,20.997 21.375,22.374 C22.752,23.75325 23.43525,25.53825 23.4375,27.34725 L23.4375,37.50375 L9.37275,37.50375 L9.37275,27.34725 Z M18.74775,51.324 L18.74775,56.253 L14.058,56.253 L14.058,51.324 C12.65925,50.5095 11.7165,49.0005 11.7165,47.2665 C11.7165,44.67375 13.8165,42.579 16.40175,42.579 C18.9945,42.579 21.09375,44.67375 21.09375,47.2665 C21.09375,49.0005 20.15175,50.5095 18.74775,51.324 Z" fill-rule="nonzero"></path>
            </g>
        </g>
    </g>
</svg>