<?xml version="1.0" encoding="UTF-8"?>
<svg width="75px" height="75px" viewBox="0 0 75 75" version="1.1" xmlns="http://www.w3.org/2000/svg" xmlns:xlink="http://www.w3.org/1999/xlink">
    <!-- Generator: Sketch 51.3 (57544) - http://www.bohemiancoding.com/sketch -->
    <title>Documents / img-doc-sign-waiting</title>
    <desc>Created with Sketch.</desc>
    <defs></defs>
    <g id="icons" stroke="none" stroke-width="1" fill="none" fill-rule="evenodd">
        <g id="Documents-/-img-doc-sign-waiting" fill="#999999">
            <g id="Shape">
                <path d="M70.9804455,15.2806931 L58.9774752,3.28292079 C56.8804455,1.18663366 54.0185644,0 51.0519802,0 L18.5680693,0 C17.3784653,0 16.194802,0.452970297 15.2851485,1.35816832 C14.3799505,2.26559406 13.9262376,3.45519802 13.9262376,4.64108911 L13.9262376,12.4537129 C15.4195545,11.9227723 16.9730198,11.5158416 18.5688119,11.2492574 L18.5688119,4.63886139 L51.0527228,4.63886139 C52.3366337,4.63886139 54.1492574,5.67772277 54.1492574,6.96237624 L54.1492574,11.6012376 C54.1492574,13.979703 54.2814356,16.3529703 56.0910891,18.1655941 C57.9029703,19.9774752 60.2873762,20.1126238 62.659901,20.1126238 L67.2987624,20.1126238 C68.5826733,20.1126238 69.6200495,21.9274752 69.6200495,23.2069307 L69.6200495,69.6185644 L18.5680693,69.6185644 L18.5680693,66.1009901 C16.9730198,65.8321782 15.4195545,65.4282178 13.925495,64.8980198 L13.925495,69.6185644 C13.925495,70.8029703 14.3792079,71.989604 15.2844059,72.8992574 C16.1940594,73.805198 17.3777228,74.2581683 18.5673267,74.2581683 L69.6193069,74.2581683 C70.8089109,74.2581683 71.9925743,73.8037129 72.9,72.8992574 C73.8022277,71.989604 74.2574257,70.8029703 74.2574257,69.6185644 L74.2574257,23.2076733 C74.2581683,20.2418317 73.0789604,17.3799505 70.9804455,15.2806931 Z" fill-rule="nonzero"></path>
                <path d="M23.0621287,15.6326733 C10.3262376,15.6326733 0,25.9581683 0,38.694802 C0,51.4269802 10.3262376,61.7539604 23.0621287,61.7539604 C35.7957921,61.7539604 46.1227723,51.4277228 46.1227723,38.694802 C46.1205446,25.9581683 35.7957921,15.6326733 23.0621287,15.6326733 Z M36.2391089,41.989604 L23.0621287,41.989604 C22.1925743,41.989604 21.3445545,41.635396 20.7319307,41.0220297 C20.1193069,40.4086634 19.7673267,39.5591584 19.7673267,38.6925743 L19.7673267,25.5170792 C19.7673267,23.6977723 21.2405941,22.2207921 23.0628713,22.2207921 C24.8806931,22.2207921 26.3561881,23.6970297 26.3561881,25.5170792 L26.3561881,35.3985149 L36.2405941,35.3985149 C38.0584158,35.3985149 39.5316832,36.8747525 39.5316832,38.6933168 C39.530198,40.5155941 38.0569307,41.989604 36.2391089,41.989604 Z" fill-rule="nonzero"></path>
            </g>
        </g>
    </g>
</svg>