<?xml version="1.0" encoding="UTF-8"?>
<svg width="74px" height="75px" viewBox="0 0 74 75" version="1.1" xmlns="http://www.w3.org/2000/svg" xmlns:xlink="http://www.w3.org/1999/xlink">
    <!-- Generator: Sketch 51.3 (57544) - http://www.bohemiancoding.com/sketch -->
    <title>Documents / img-doc-interviewcomplete-mediumgray</title>
    <desc>Created with Sketch.</desc>
    <defs></defs>
    <g id="icons" stroke="none" stroke-width="1" fill="none" fill-rule="evenodd">
        <g id="Documents-/-img-doc-interviewcomplete-mediumgray" fill="#999999">
            <g id="Shape">
                <path d="M70.2200495,16.009901 L58.2200495,4.00990099 C56.110396,1.90321782 53.2618812,0.741831683 50.2834158,0.741831683 L17.7957921,0.741831683 C16.6091584,0.741831683 15.4225248,1.19108911 14.4987624,2.08589109 C13.6017327,2.98514851 13.154703,4.16955446 13.154703,5.38292079 L13.154703,13.1903465 C14.6287129,12.6586634 16.1858911,12.2376238 17.7957921,11.9769802 L17.7957921,5.38292079 L50.2834158,5.38292079 C51.5747525,5.38292079 53.394802,6.41212871 53.394802,7.70272277 L53.394802,12.3438119 C53.394802,14.7170792 53.525495,17.0910891 55.3188119,18.9089109 C57.1388614,20.7029703 59.539604,20.8329208 61.9106436,20.8329208 L66.5524752,20.8329208 C67.8178218,20.8329208 68.8715347,22.6559406 68.8715347,23.9472772 L68.8715347,70.3589109 L17.7957921,70.3589109 L17.7957921,66.8539604 C16.1866337,66.5881188 14.6294554,66.1915842 13.154703,65.6398515 L13.154703,70.3581683 C13.154703,71.5433168 13.6017327,72.7321782 14.4987624,73.6544554 C15.4225248,74.5485149 16.6091584,74.9985149 17.7957921,74.9985149 L68.874505,74.9985149 C70.0611386,74.9985149 71.2477723,74.5492574 72.1440594,73.6544554 C73.0403465,72.7314356 73.5148515,71.5440594 73.5148515,70.3589109 L73.5148515,23.9480198 C73.5148515,20.9695545 72.3304455,18.1225248 70.2200495,16.009901 Z" fill-rule="nonzero"></path>
                <path d="M45.2799505,39.2977723 C45.2799505,51.7945545 35.1267327,61.9477723 22.6269802,61.9477723 C10.1272277,61.9477723 0,51.7945545 0,39.2977723 C0,26.7950495 10.1264851,16.6715347 22.6262376,16.6715347 C35.1252475,16.6715347 45.2799505,26.7950495 45.2799505,39.2977723 Z M19.2497525,40.3759901 L13.0002475,34.125 L7.27871287,39.980198 L19.435396,52.3507426 L38.6576733,32.6747525 L32.7519802,26.6116337 L19.2497525,40.3759901 Z" fill-rule="nonzero"></path>
            </g>
        </g>
    </g>
</svg>