<?xml version="1.0" encoding="UTF-8"?>
<svg width="63px" height="75px" viewBox="0 0 63 75" version="1.1" xmlns="http://www.w3.org/2000/svg" xmlns:xlink="http://www.w3.org/1999/xlink">
    <!-- Generator: Sketch 51.3 (57544) - http://www.bohemiancoding.com/sketch -->
    <title>Documents / img-document</title>
    <desc>Created with Sketch.</desc>
    <defs></defs>
    <g id="icons" stroke="none" stroke-width="1" fill="none" fill-rule="evenodd">
        <g id="Documents-/-img-document" fill="#999999">
            <g id="Shape">
                <path d="M10.84875,51.9825 L50.19825,51.9825 L50.19825,47.295 L10.84875,47.295 L10.84875,51.9825 Z M10.84875,61.7145 L50.19825,61.7145 L50.19825,57.02925 L10.84875,57.02925 L10.84875,61.7145 Z M10.84875,42.60675 L50.19825,42.60675 L50.19825,37.92 L10.84875,37.92 L10.84875,42.60675 Z M10.84875,28.545 L10.84875,33.2325 L50.19825,33.2325 L50.19825,28.545 L10.84875,28.545 Z M10.93275,16.52925 L10.93275,21.21675 L35.79975,21.21675 L35.79975,16.52925 L10.93275,16.52925 Z" fill-rule="nonzero"></path>
                <path d="M5.23875,4.68525 L39.0585,4.68525 C40.3785,4.68525 42.243,5.73675 42.243,7.03125 L42.243,11.7195 C42.243,14.11725 42.381,16.12575 44.2455,17.958 C46.1085,19.7865 48.15525,19.92225 50.59875,19.92225 L55.3725,19.92225 C56.6895,19.92225 57.7605,21.753 57.7605,23.046 L57.7605,70.3125 L5.23875,70.3125 L5.23875,4.68525 Z M0.465,70.3125 C0.465,71.51175 0.9315,72.714 1.8645,73.6275 C2.79675,74.5425 4.017,75 5.23875,75 L57.7605,75 C58.98225,75 60.2025,74.5425 61.1355,73.6275 C62.067,72.714 62.53575,71.51175 62.53575,70.3125 L62.53575,23.4375 C62.53575,20.4435 61.314,17.5515 59.15925,15.435 L46.812,3.31425 C44.65425,1.1985 41.71125,0 38.66175,0 L5.23875,0 C4.017,0 2.79675,0.4575 1.8645,1.374 C0.9315,2.28825 0.465,3.4875 0.465,4.6875 L0.465,6.8655 L0.465,70.3125 Z" fill-rule="nonzero"></path>
            </g>
        </g>
    </g>
</svg>