<?xml version="1.0" encoding="UTF-8"?>
<svg width="73px" height="75px" viewBox="0 0 73 75" version="1.1" xmlns="http://www.w3.org/2000/svg" xmlns:xlink="http://www.w3.org/1999/xlink">
    <!-- Generator: Sketch 51.3 (57544) - http://www.bohemiancoding.com/sketch -->
    <title>Documents / img-doc-sign-ready</title>
    <desc>Created with Sketch.</desc>
    <defs></defs>
    <g id="icons" stroke="none" stroke-width="1" fill="none" fill-rule="evenodd">
        <g id="Documents-/-img-doc-sign-ready" fill="#999999">
            <g>
                <path d="M69.65625,15.435 L57.53475,3.31425 C55.41825,1.19775 52.52775,0 49.53075,0 L16.7205,0 C15.51825,0 14.3235,0.45825 13.4055,1.37325 C12.4905,2.2875 12.033,3.48975 12.033,4.689 L12.033,33.5535 L16.7205,33.567 L16.7205,4.6875 L49.53075,4.6875 C50.8275,4.6875 52.65675,5.7345 52.65675,7.03275 L52.65675,11.718 C52.65675,14.12025 52.79175,16.5165 54.6195,18.34575 C56.44875,20.178 58.8555,20.31375 61.2525,20.31375 L65.937,20.31375 C67.2345,20.31375 68.28375,22.146 68.28375,23.439 L68.28375,70.3125 L16.7205,70.3125 L16.7415,65.253 L12.033,65.253 L12.033,70.3125 C12.033,71.511 12.4905,72.71025 13.4055,73.6275 C14.3235,74.54025 15.51825,75 16.7205,75 L68.28375,75 C69.48375,75 70.6785,74.54025 71.59575,73.6275 C72.5085,72.71025 72.96825,71.511 72.96825,70.3125 L72.96825,23.43825 C72.96825,20.4435 71.77725,17.556 69.65625,15.435 Z" id="Shape" fill-rule="nonzero"></path>
                <polygon id="Shape" fill-rule="nonzero" points="10.0245 49.1355 2.016 37.96125 10.76775 37.96125 15.01875 44.487 19.122 37.96125 27.3795 37.96125 19.5675 49.1355 28.812 61.98975 20.06025 61.98975 14.82075 53.98125 9.1845 61.98975 0.53175 61.98975"></polygon>
                <rect id="Rectangle-path" fill-rule="nonzero" x="31.03575" y="56.58225" width="31.89" height="5.5485"></rect>
            </g>
        </g>
    </g>
</svg>