<?xml version="1.0" encoding="UTF-8"?>
<svg width="101px" height="74px" viewBox="0 0 101 74" version="1.1" xmlns="http://www.w3.org/2000/svg" xmlns:xlink="http://www.w3.org/1999/xlink">
    <!-- Generator: Sketch 51.3 (57544) - http://www.bohemiancoding.com/sketch -->
    <title>Document Defense / img-behalf</title>
    <desc>Created with Sketch.</desc>
    <defs></defs>
    <g id="icons" stroke="none" stroke-width="1" fill="none" fill-rule="evenodd">
        <g id="Document-Defense-/-img-behalf" transform="translate(0.000000, -1.000000)">
            <g>
                <ellipse id="Oval" cx="40.4" cy="21.6891892" rx="12.12" ry="12.1621622"></ellipse>
                <path d="M76.76,41.9594595 C83.426,41.9594595 88.88,36.4864865 88.88,29.7972973 C88.88,23.1081081 83.426,17.6351351 76.76,17.6351351 C70.094,17.6351351 64.64,23.1081081 64.64,29.7972973 C64.64,36.4864865 69.892,41.9594595 76.76,41.9594595 C73.124,41.9594595 69.488,42.972973 66.458,44.3918919 C68.478,45.8108108 70.296,47.2297297 72.114,48.6486486 C73.528,48.2432432 75.144,48.0405405 76.76,48.0405405 C85.85,48.0405405 93.324,55.7432432 94.738,62.2297297 L101,62.2297297 C101,53.9189189 90.092,41.9594595 76.76,41.9594595 Z M70.498,29.7972973 C70.498,26.3513514 73.124,23.7162162 76.558,23.7162162 C79.992,23.7162162 82.618,26.3513514 82.618,29.7972973 C82.618,33.2432432 79.992,35.8783784 76.558,35.8783784 C73.326,35.8783784 70.498,33.2432432 70.498,29.7972973 Z" id="Shape" fill="#C8CED6" fill-rule="nonzero"></path>
                <path d="M40.4,41.9594595 C18.18,41.9594595 0,61.0135135 0,74.3918919 L7.676,74.3918919 C12.12,62.4324324 25.048,50.0675676 40.4,50.0675676 C55.752,50.0675676 68.68,62.4324324 73.124,74.3918919 L80.8,74.3918919 C80.8,61.0135135 62.62,41.9594595 40.4,41.9594595 Z" id="Shape" fill="#284A6D" fill-rule="nonzero"></path>
                <path d="M60.6,21.6891892 C60.6,10.5405405 51.51,1.41891892 40.4,1.41891892 C29.29,1.41891892 20.2,10.5405405 20.2,21.6891892 C20.2,32.8378378 29.29,41.9594595 40.4,41.9594595 C51.51,41.9594595 60.6,32.8378378 60.6,21.6891892 Z M40.4,33.8513514 C33.734,33.8513514 28.28,28.3783784 28.28,21.6891892 C28.28,15 33.734,9.52702703 40.4,9.52702703 C47.066,9.52702703 52.52,15 52.52,21.6891892 C52.52,28.3783784 47.066,33.8513514 40.4,33.8513514 Z" id="Shape" fill="#284A6D" fill-rule="nonzero"></path>
            </g>
        </g>
    </g>
</svg>