<?xml version="1.0" encoding="UTF-8"?>
<svg width="87px" height="75px" viewBox="0 0 87 75" version="1.1" xmlns="http://www.w3.org/2000/svg" xmlns:xlink="http://www.w3.org/1999/xlink">
    <!-- Generator: Sketch 51.3 (57544) - http://www.bohemiancoding.com/sketch -->
    <title>Document Defense / img-upload</title>
    <desc>Created with Sketch.</desc>
    <defs></defs>
    <g id="icons" stroke="none" stroke-width="1" fill="none" fill-rule="evenodd">
        <g id="Document-Defense-/-img-upload">
            <g>
                <path d="M40.4828644,41.6051993 C42.0193168,40.0670378 44.5099042,40.0670378 46.0483239,41.6051993 L57.1772754,52.7465301 C58.7117605,54.2827221 58.7117605,56.7721408 57.18121,58.3122717 C55.6447576,59.8464942 53.1581048,59.8464942 51.6216524,58.3103023 L47.1932858,53.8770098 L47.1932858,70.9326797 C47.1932858,73.1069822 45.4305953,74.8716335 43.2587086,74.8716335 C41.086822,74.8716335 39.3241315,73.1069822 39.3241315,70.9326797 L39.3241315,53.9124604 L34.9469144,58.2945465 C33.410462,59.8327079 30.9198747,59.8327079 29.3834223,58.2945465 C27.8469699,56.756385 27.8469699,54.2630273 29.3834223,52.7228964 L40.4828644,41.6051993 Z M57.1753082,58.3162107 C57.1772754,58.3142412 57.1772754,58.3122717 57.1792427,58.3103023 C57.1792427,58.3103023 57.18121,58.3103023 57.1831773,58.3083328 L57.1753082,58.3162107 Z" id="Shape" fill="#D68021" fill-rule="nonzero"></path>
                <path d="M86.5390574,47.3088044 C86.5390574,58.1803169 77.735441,66.9937259 66.8740408,66.9937259 C64.7769112,66.9937259 62.7584731,66.6569453 60.8620069,66.0483771 C60.4370725,66.3950049 59.9963999,66.7219381 59.5458908,67.0350849 L67.5252134,59.0488562 C73.7300415,58.7022282 78.6699031,53.6032525 78.6699031,47.3028959 C78.6699031,40.7799885 73.3877333,35.4919431 66.8701063,35.4919431 C66.2681159,35.4919431 65.6917003,35.582539 65.1133176,35.6691959 C66.2327048,33.1994719 66.8799427,30.469777 66.8799427,27.5805544 C66.8799427,16.7031335 58.0723917,7.88578547 47.2070568,7.88578547 C39.7490658,7.88578547 33.2648827,12.0394122 29.9263939,18.1625159 C29.1650533,17.9143619 28.366334,17.7449868 27.5223672,17.7449868 C23.1805614,17.7449868 19.6591149,21.2762589 19.6591149,25.6327418 C19.6591149,28.0394425 20.7568619,30.1664775 22.44873,31.6140431 C22.1674078,31.5963178 21.9018238,31.5293556 21.6165669,31.5293556 C14.0188985,31.5293556 7.85931789,37.7036656 7.85931789,45.3216022 C7.85931789,51.9508614 12.5276937,57.4772136 18.7443256,58.8026716 L26.3695361,66.4383334 C24.8370183,66.7849614 23.2533511,66.9956954 21.6165669,66.9956954 C9.67905983,66.9976649 0,57.2920828 0,45.3216022 C0,36.8922411 4.81002058,29.6091156 11.8214371,26.030576 C11.8175025,25.8986211 11.8017642,25.7686356 11.8017642,25.6366807 C11.8017642,17.4082062 18.0833166,10.6607784 26.0960831,9.93404144 C31.1382437,3.87002209 38.714272,0 47.214926,0 C62.4260013,0 74.7569662,12.3446811 74.7569662,27.5726764 C74.7569662,28.1359469 74.715653,28.6893699 74.6822092,29.2427929 C81.6562472,32.2679094 86.5390574,39.2142543 86.5390574,47.3088044 Z" id="Path" fill="#C8CED6" fill-rule="nonzero"></path>
            </g>
        </g>
    </g>
</svg>