<?xml version="1.0" encoding="UTF-8"?>
<svg width="64px" height="74px" viewBox="0 0 64 74" version="1.1" xmlns="http://www.w3.org/2000/svg" xmlns:xlink="http://www.w3.org/1999/xlink">
    <!-- Generator: Sketch 51.3 (57544) - http://www.bohemiancoding.com/sketch -->
    <title>Document Defense / img-review</title>
    <desc>Created with Sketch.</desc>
    <defs></defs>
    <g id="icons" stroke="none" stroke-width="1" fill="none" fill-rule="evenodd">
        <g id="Document-Defense-/-img-review" transform="translate(0.000000, -1.000000)">
            <g>
                <path d="M5.89534884,6.9 L5.89534884,53.4 L26.4534884,53.4 C26.1511628,47.7 29.0232558,42 34.4651163,38.85 C38.3953488,36.6 42.9302326,36.15 47.0116279,37.35 L47.0116279,6.9 L5.89534884,6.9 Z M26.3023256,27.3 L11.6395349,27.3 L11.6395349,24.45 L26.3023256,24.45 L26.3023256,27.3 Z M40.9651163,21.45 L11.6395349,21.45 L11.6395349,18.6 L40.9651163,18.6 L40.9651163,21.45 Z M40.9651163,15.75 L11.6395349,15.75 L11.6395349,12.9 L40.9651163,12.9 L40.9651163,15.75 Z" id="Shape"></path>
                <rect id="Rectangle-path" fill="#C8CED6" fill-rule="nonzero" x="11.7906977" y="18.6" width="29.3255814" height="2.85"></rect>
                <path d="M5.89534884,53.4 L5.89534884,6.9 L46.8604651,6.9 L46.8604651,37.5 C48.9767442,38.1 50.9418605,39.15 52.755814,40.65 L52.755814,7.05 C52.755814,3.9 50.1860465,1.2 46.8604651,1.2 L5.89534884,1.2 C2.72093023,1.2 0,3.75 0,7.05 L0,53.55 C0,56.7 2.56976744,59.4 5.89534884,59.4 L27.8139535,59.4 C26.9069767,57.45 26.4534884,55.5 26.4534884,53.55 L5.89534884,53.55 L5.89534884,53.4 Z" id="Shape" fill="#C8CED6" fill-rule="nonzero"></path>
                <rect id="Rectangle-path" fill="#C8CED6" fill-rule="nonzero" x="11.7906977" y="12.75" width="29.3255814" height="2.85"></rect>
                <rect id="Rectangle-path" fill="#C8CED6" fill-rule="nonzero" x="11.7906977" y="24.45" width="14.6627907" height="2.85"></rect>
                <path d="M62.8837209,67.8 L56.2325581,61.2 C56.0813953,61.05 56.0813953,61.05 55.9302326,61.05 C58.9534884,56.25 59.255814,49.95 56.0813953,44.7 C55.1744186,43.05 53.9651163,41.7 52.6046512,40.5 C50.9418605,39 48.8255814,37.95 46.7093023,37.35 C42.627907,36.15 38.0930233,36.6 34.1627907,38.85 C28.872093,42 25.8488372,47.7 26.1511628,53.4 C26.3023256,55.35 26.755814,57.3 27.5116279,59.25 C27.6627907,59.7 27.9651163,60.15 28.2674419,60.6 C32.6511628,68.25 42.4767442,70.8 50.1860465,66.45 C50.3372093,66.45 50.4883721,66.3 50.4883721,66.15 C50.4883721,66.3 50.6395349,66.3 50.6395349,66.45 L57.2906977,73.05 C58.8023256,74.55 61.2209302,74.55 62.5813953,73.05 C64.3953488,71.7 64.3953488,69.3 62.8837209,67.8 Z M48.5232558,63.3 C42.627907,66.6 35.2209302,64.65 31.744186,58.8 C28.2674419,52.95 30.3837209,45.45 36.2790698,42.15 C42.1744186,38.85 49.5813953,40.8 53.0581395,46.65 C56.3837209,52.5 54.4186047,59.85 48.5232558,63.3 Z" id="Shape" fill="#284A6D" fill-rule="nonzero"></path>
                <path d="M41.2674419,46.35 C42.3255814,45.75 43.2325581,45.3 43.9883721,45 C42.0232558,44.25 39.6046512,44.25 37.6395349,45.45 C34.7674419,47.1 33.5581395,50.1 34.0116279,53.1 C34.3139535,51 36.4302326,49.2 41.2674419,46.35 Z" id="Shape" fill="#284A6D" fill-rule="nonzero"></path>
            </g>
        </g>
    </g>
</svg>