<?xml version="1.0" encoding="UTF-8"?>
<svg width="82px" height="75px" viewBox="0 0 82 75" version="1.1" xmlns="http://www.w3.org/2000/svg" xmlns:xlink="http://www.w3.org/1999/xlink">
    <!-- Generator: Sketch 51.3 (57544) - http://www.bohemiancoding.com/sketch -->
    <title>Document Defense / img-contact</title>
    <desc>Created with Sketch.</desc>
    <defs></defs>
    <g id="icons" stroke="none" stroke-width="1" fill="none" fill-rule="evenodd">
        <g id="Document-Defense-/-img-contact">
            <g>
                <path d="M57.3306205,44.5945946 L24.5702659,44.5945946 L8.19008864,44.5945946 C3.66711218,44.5945946 0,40.9641892 0,36.4864865 L0,8.1081081 C0,3.6304054 3.66711218,0 8.19008864,0 L57.3306205,0 C61.8535969,0 65.5207091,3.6304054 65.5207091,8.1081081 L65.5207091,36.4864865 C65.5207091,40.9641892 61.8535969,44.5945946 57.3306205,44.5945946 Z M57.3306205,8.1081081 L8.19008864,8.1081081 L8.19008864,36.4864865 L57.3306205,36.4864865 L57.3306205,8.1081081 Z M12.285133,56.7567568 L12.285133,44.5945946 L24.5702659,44.5945946 L14.7421595,57.5675675 C13.3866998,59.3574325 12.285133,58.9945946 12.285133,56.7567568 Z" id="Shape" fill="#D68021" fill-rule="nonzero"></path>
                <path d="M73.7107977,64.877027 L69.6157534,64.877027 L69.6157534,72.972973 C69.6157534,75.2108108 68.5162341,75.5756757 67.1587269,73.7837838 L60.4121413,64.877027 L36.8553989,64.877027 C32.3324224,64.877027 28.6653102,61.2466216 28.6653102,56.768919 L28.6653102,48.6486487 L36.8553989,48.6486487 L36.8553989,56.7445946 L73.7107977,56.7445946 L73.7107977,36.5087838 L69.6157534,36.5087838 L69.6157534,28.3783784 L73.7107977,28.3783784 C78.2337741,28.3783784 81.9008864,32.0087838 81.9008864,36.4864865 L81.9008864,56.768919 C81.9008864,61.2486487 78.2337741,64.877027 73.7107977,64.877027 Z" id="Path" fill="#C8CED6" fill-rule="nonzero"></path>
            </g>
        </g>
    </g>
</svg>