<?xml version="1.0" encoding="UTF-8"?>
<svg width="75px" height="75px" viewBox="0 0 75 75" version="1.1" xmlns="http://www.w3.org/2000/svg" xmlns:xlink="http://www.w3.org/1999/xlink">
    <!-- Generator: Sketch 51.3 (57544) - http://www.bohemiancoding.com/sketch -->
    <title>Illustrated Icons / addl_folder</title>
    <desc>Created with Sketch.</desc>
    <defs>
        <circle id="path-1" cx="37.5" cy="37.5" r="37.5"></circle>
        <circle id="path-3" cx="37.5" cy="37.5" r="37.5"></circle>
        <circle id="path-5" cx="37.5" cy="37.5" r="37.5"></circle>
        <circle id="path-7" cx="37.5" cy="37.5" r="37.5"></circle>
        <circle id="path-9" cx="37.5" cy="37.5" r="37.5"></circle>
    </defs>
    <g id="icons" stroke="none" stroke-width="1" fill="none" fill-rule="evenodd">
        <g id="addl_folder">
            <g id="Illustrated-Icons-/-addl_folder">
                <g id="Mask" fill="#70DEC0" fill-rule="nonzero">
                    <circle id="path-1" cx="37.5" cy="37.5" r="37.5"></circle>
                </g>
                <g id="Rectangle-1885-Copy-Clipped">
                    <mask id="mask-2" fill="white">
                        <use xlink:href="#path-1"></use>
                    </mask>
                    <g id="path-1"></g>
                    <path d="M9.375,36.6480014 C9.375,33.8236666 11.6715657,31.5340909 14.488669,31.5340909 L55.3976946,31.5340909 C58.2218961,31.5340909 60.5113636,33.8315912 60.5113636,36.6480014 L60.5113636,66.4769986 C60.5113636,69.3013334 58.2147979,71.5909091 55.3976946,71.5909091 L14.488669,71.5909091 C11.6644676,71.5909091 9.375,69.2934088 9.375,66.4769986 L9.375,36.6480014 Z M14.8358062,28.7677428 C15.3978913,27.4713713 16.9973742,26.4204545 18.4061523,26.4204545 L29.7531253,26.4204545 C31.162888,26.4204545 32.8268027,27.4307445 33.4779122,28.6931496 L34.9431818,31.5340909 L13.6363636,31.5340909 L14.8358062,28.7677428 Z" id="Rectangle-1885-Copy" fill="#CFEEE5" fill-rule="nonzero" mask="url(#mask-2)"></path>
                </g>
                <g id="Rectangle-1883-Clipped">
                    <mask id="mask-4" fill="white">
                        <use xlink:href="#path-3"></use>
                    </mask>
                    <g id="path-1"></g>
                    <rect id="Rectangle-1883" fill="#FFFFFF" fill-rule="nonzero" mask="url(#mask-4)" x="13.6363636" y="34.0909091" width="51.1363636" height="45.1704545" rx="6"></rect>
                </g>
                <g id="Rectangle-1888-Clipped">
                    <mask id="mask-6" fill="white">
                        <use xlink:href="#path-5"></use>
                    </mask>
                    <g id="path-1"></g>
                    <polygon id="Rectangle-1888" stroke="#E8E8E8" fill="#F9F9F9" fill-rule="nonzero" mask="url(#mask-6)" points="37.434064 39.2045455 61.9094396 42.6443351 59.4185574 60.367883 34.9431818 56.9280932"></polygon>
                </g>
                <g id="Shape-Clipped">
                    <mask id="mask-8" fill="white">
                        <use xlink:href="#path-7"></use>
                    </mask>
                    <g id="path-1"></g>
                    <path d="M52.9261364,33.3238636 L52.9259659,33.3238636 L52.9257955,33.3238636 L52.9261364,33.3238636 Z M52.9261364,36.7329545 L52.9259659,36.7329545 L52.925625,36.7329545 L52.9261364,36.7329545 Z M54.5454545,39.2045455 C55.0159091,39.2045455 55.3977273,39.5863636 55.3977273,40.0568182 L55.3977273,40.9090909 L53.6931818,40.9090909 L53.6931818,40.0568182 C53.6931818,39.5863636 54.075,39.2045455 54.5454545,39.2045455 Z M57.1022727,36.1888112 L57.1022727,40.4501749 L57.1022727,41.7613636 L57.1022727,46.3505245 C57.1022727,48.5231644 55.1942472,50.2840909 52.8409091,50.2840909 C50.487571,50.2840909 48.5795455,48.5231644 48.5795455,46.3505245 L48.5795455,40.4501749 L50,40.4501749 L50,46.3505245 C50,47.7987326 51.2720171,48.9729021 52.8409091,48.9729021 C54.4098011,48.9729021 55.6818182,47.7987326 55.6818182,46.3505245 L55.6818182,45.0393356 L55.6818182,44.2139423 L55.6818182,41.7613636 L55.6818182,41.1057692 L55.6818182,36.1888112 C55.6818182,35.2834353 54.8867188,34.5498251 53.90625,34.5498251 C52.9257812,34.5498251 52.1306818,35.2834353 52.1306818,36.1888112 L52.1306818,36.5166084 L52.1306818,36.6310096 L52.1306818,38.4833916 L52.1306818,40.4501749 L52.1306818,44.3837413 C52.1306818,44.7456294 52.4488636,45.0393356 52.8409091,45.0393356 C53.2329545,45.0393356 53.5511363,44.7459572 53.5511363,44.3837413 L53.5511363,40.4501749 L54.9715909,40.4501749 L54.9715909,44.3837413 C54.9715909,45.4697334 54.0177557,46.3505245 52.8409091,46.3505245 C51.6644176,46.3505245 50.7102273,45.4697334 50.7102273,44.3837413 L50.7102273,41.1057692 L50.7102273,38.4833916 L50.7102273,36.1888112 C50.7102273,34.5593313 52.1413353,33.2386364 53.90625,33.2386364 C55.6715199,33.2386364 57.1022727,34.5596591 57.1022727,36.1888112 Z M50.2840909,40.0568182 L50.2840909,40.9090909 L48.5795455,40.9090909 L48.5795455,40.0568182 C48.5795455,39.5863636 48.9609375,39.2045455 49.4318182,39.2045455 C49.9026989,39.2045455 50.2840909,39.5863636 50.2840909,40.0568182 Z" id="Shape" fill="#D68021" fill-rule="nonzero" mask="url(#mask-8)"></path>
                </g>
                <g id="+1-Clipped">
                    <mask id="mask-10" fill="white">
                        <use xlink:href="#path-9"></use>
                    </mask>
                    <g id="path-1"></g>
                    <path d="M32.3333595,15.7353847 L29.8295455,15.7353847 L29.8295455,14.1301 L32.3333595,14.1301 L32.3333595,11.9318182 L34.1439132,11.9318182 L34.1439132,14.1301 L36.6477273,14.1301 L36.6477273,15.7353847 L34.1439132,15.7353847 L34.1439132,17.8977273 L32.3333595,17.8977273 L32.3333595,15.7353847 Z M42.6136364,19.6022727 L40.2236968,19.6022727 L40.2236968,14.6390374 C40.2236968,14.0362642 40.2356166,13.4847992 40.2594564,12.9846257 C40.1124436,13.1770001 39.9296737,13.3779215 39.7111411,13.5873959 L38.7217895,14.4659013 L37.5,12.8499643 L40.4918945,10.2272727 L42.6136364,10.2272727 L42.6136364,19.6022727 Z" id="+1" fill="#519B87" fill-rule="nonzero" mask="url(#mask-10)"></path>
                </g>
            </g>
        </g>
    </g>
</svg>