<?xml version="1.0" encoding="UTF-8"?>
<svg width="64px" height="75px" viewBox="0 0 64 75" version="1.1" xmlns="http://www.w3.org/2000/svg" xmlns:xlink="http://www.w3.org/1999/xlink">
    <!-- Generator: Sketch 51.3 (57544) - http://www.bohemiancoding.com/sketch -->
    <title>Legal Categories / apartment</title>
    <desc>Created with Sketch.</desc>
    <defs></defs>
    <g id="icons" stroke="none" stroke-width="1" fill="none" fill-rule="evenodd">
        <g id="Legal-Categories-/-apartment" fill="#999999">
            <g id="Shape-Copy-195">
                <path d="M60.2352941,75 L60.2315294,75 C58.1552941,75 56.4705882,73.32 56.4705882,71.25 L56.4705882,30 L30.1176471,30 L30.1176471,71.25 C30.1176471,73.32 28.4329412,74.998125 26.3548235,75 L26.3529412,75 C24.2748235,75 22.5882353,73.32 22.5882353,71.25 L22.5882353,30 C22.5882353,25.858125 25.9595294,22.5 30.1176471,22.5 L56.4705882,22.5 C60.6287059,22.5 64,25.858125 64,30 L64,71.25 C64,73.32 62.3134118,75 60.2352941,75 Z M33.8823529,7.5 L7.52941176,7.5 L7.52941176,71.25 C7.52941176,73.32 5.84470588,75 3.76658824,75 L3.76470588,75 C1.68658824,75 0,73.32 0,71.25 L0,7.5 C0,3.358125 3.37129412,0 7.52941176,0 L33.8823529,0 C38.0404706,0 41.4117647,3.358125 41.4117647,7.5 L41.4117647,18.75 L33.8823529,18.75 L33.8823529,7.5 Z M18.8235294,18.75 L11.2941176,18.75 L11.2941176,11.25 L18.8235294,11.25 L18.8235294,18.75 Z M18.8235294,30 L11.2941176,30 L11.2941176,22.5 L18.8235294,22.5 L18.8235294,30 Z M18.8235294,41.25 L11.2941176,41.25 L11.2941176,33.75 L18.8235294,33.75 L18.8235294,41.25 Z M18.8235294,52.5 L11.2941176,52.5 L11.2941176,45 L18.8235294,45 L18.8235294,52.5 Z M30.1176471,18.75 L22.5882353,18.75 L22.5882353,11.25 L30.1176471,11.25 L30.1176471,18.75 Z M41.4117647,41.25 L33.8823529,41.25 L33.8823529,33.75 L41.4117647,33.75 L41.4117647,41.25 Z M41.4117647,52.5 L33.8823529,52.5 L33.8823529,45 L41.4117647,45 L41.4117647,52.5 Z M52.7058824,41.25 L45.1764706,41.25 L45.1764706,33.75 L52.7058824,33.75 L52.7058824,41.25 Z M52.7058824,52.5 L45.1764706,52.5 L45.1764706,45 L52.7058824,45 L52.7058824,52.5 Z" fill-rule="nonzero"></path>
            </g>
        </g>
    </g>
</svg>