<?xml version="1.0" encoding="UTF-8"?>
<svg width="83px" height="75px" viewBox="0 0 83 75" version="1.1" xmlns="http://www.w3.org/2000/svg" xmlns:xlink="http://www.w3.org/1999/xlink">
    <!-- Generator: Sketch 51.3 (57544) - http://www.bohemiancoding.com/sketch -->
    <title>Legal Categories / Briefcase</title>
    <desc>Created with Sketch.</desc>
    <defs></defs>
    <g id="icons" stroke="none" stroke-width="1" fill="none" fill-rule="evenodd">
        <g id="Legal-Categories-/-Briefcase" fill="#999999">
            <g id="Legal-Categories-/-briefcase">
                <path d="M74.7,75 L8.3,75 C3.716325,75 0,71.26875 0,66.6666667 L0,20.8333333 C0,16.23125 3.716325,12.5 8.3,12.5 L24.9,12.5 L24.9,4.16666667 C24.9,1.86666667 26.7592,0 29.05,0 L53.95,0 C56.242875,0 58.1,1.86666667 58.1,4.16666667 L58.1,12.5 L74.7,12.5 C79.283675,12.5 83,16.23125 83,20.8333333 L83,66.6666667 C83,71.26875 79.283675,75 74.7,75 Z M49.8,8.33333333 L33.2,8.33333333 L33.2,12.5 L49.8,12.5 L49.8,8.33333333 Z M74.7,41.6666667 L66.4,41.6666667 L66.4,33.3333333 L74.7,33.3333333 L74.7,20.8333333 L8.3,20.8333333 L8.3,33.3333333 L16.6,33.3333333 L16.6,41.6666667 L8.3,41.6666667 L8.3,66.6666667 L74.7,66.6666667 L74.7,41.6666667 Z M24.9,29.1666667 C27.192875,29.1666667 29.05,31.0333333 29.05,33.3333333 L29.05,41.6666667 C29.05,43.9666667 27.1908,45.8333333 24.9,45.8333333 C22.6092,45.8333333 20.75,43.9666667 20.75,41.6666667 L20.75,33.3333333 C20.75,31.0333333 22.6092,29.1666667 24.9,29.1666667 Z M49.8,41.6666667 L33.2,41.6666667 L33.2,33.3333333 L49.8,33.3333333 L49.8,41.6666667 Z M58.1,29.1666667 C60.3908,29.1666667 62.25,31.0333333 62.25,33.3333333 L62.25,41.6666667 C62.25,43.9666667 60.3908,45.8333333 58.1,45.8333333 C55.807125,45.8333333 53.95,43.9666667 53.95,41.6666667 L53.95,33.3333333 C53.95,31.0333333 55.8092,29.1666667 58.1,29.1666667 Z" id="Shape-Copy-244" fill-rule="nonzero"></path>
            </g>
        </g>
    </g>
</svg>