<?xml version="1.0" encoding="UTF-8"?>
<svg width="75px" height="75px" viewBox="0 0 75 75" version="1.1" xmlns="http://www.w3.org/2000/svg" xmlns:xlink="http://www.w3.org/1999/xlink">
    <!-- Generator: Sketch 51.3 (57544) - http://www.bohemiancoding.com/sketch -->
    <title>Legal Categories / crayon</title>
    <desc>Created with Sketch.</desc>
    <defs></defs>
    <g id="icons" stroke="none" stroke-width="1" fill="none" fill-rule="evenodd">
        <g id="Legal-Categories-/-crayon" fill="#999999">
            <g id="Shape">
                <path d="M49.6761435,17.4671491 L54.6512195,12.4920732 L62.4128049,20.2536585 L21.0219512,61.6445122 L13.2603659,53.8829268 L22.9591729,44.1841198 C23.1807562,44.6961241 23.500281,45.1757245 23.9183759,45.5938193 C25.7167613,47.3922048 28.5949253,47.3847099 30.3747454,45.6048898 L51.0926947,24.8869405 C52.85493,23.1247052 52.8675584,20.2165052 51.0816241,18.430571 C50.6625726,18.0115195 50.1848934,17.6905204 49.6761435,17.4671491 Z M72.7609756,20.2518293 L26.195122,66.8176829 L2.50243902,74.7146341 C0.585365854,75.3530488 -0.45,74.3176829 0.188414634,72.4006098 L8.08536585,48.7079268 L54.6512195,2.14390244 C57.5085366,-0.715243902 62.1420732,-0.715243902 64.9993902,2.14390244 L72.7609756,9.9054878 C75.6182927,12.7628049 75.6182927,17.3945122 72.7609756,20.2518293 Z M8.08536585,66.8176829 L17.1402439,62.9378049 L11.9670732,57.7646341 L8.08536585,66.8176829 Z M59.8262195,7.31707317 L55.6884146,11.454878 L57.2396341,9.90365854 L65.0012195,17.6634146 L62.9341463,19.7323171 L67.5878049,15.0768293 L59.8262195,7.31707317 Z" fill-rule="nonzero"></path>
            </g>
        </g>
    </g>
</svg>