<?xml version="1.0" encoding="UTF-8"?>
<svg width="79px" height="79px" viewBox="0 0 79 79" version="1.1" xmlns="http://www.w3.org/2000/svg" xmlns:xlink="http://www.w3.org/1999/xlink">
    <!-- Generator: Sketch 51.3 (57544) - http://www.bohemiancoding.com/sketch -->
    <title>Legal Categories / cross</title>
    <desc>Created with Sketch.</desc>
    <defs></defs>
    <g id="icons" stroke="none" stroke-width="1" fill="none" fill-rule="evenodd">
        <g id="cross" transform="translate(1.000000, 2.000000)" stroke="#999999">
            <g id="Legal-Categories-/-cross">
                <path d="M52.027027,2.08423356 C52.027027,0.933143152 51.0957653,0 49.9490628,0 L27.0509372,0 C25.9033092,0 24.972973,0.93919506 24.972973,2.08423356 L24.972973,23.9583333 L3.12252088,23.9583333 C1.97267489,23.9583333 1.04054054,24.8906029 1.04054054,26.0385465 L1.04054054,48.9614535 C1.04054054,50.1103235 1.97872025,51.0416667 3.12252088,51.0416667 L24.972973,51.0416667 L24.972973,72.9157665 C24.972973,74.0668569 25.9042347,75 27.0509372,75 L49.9490628,75 C51.0966908,75 52.027027,74.060805 52.027027,72.9157665 L52.027027,51.0416667 L73.8774791,51.0416667 C75.0273251,51.0416667 75.9594595,50.1093971 75.9594595,48.9614535 L75.9594595,26.0385465 C75.9594595,24.8896765 75.0212798,23.9583333 73.8774791,23.9583333 L52.027027,23.9583333 L52.027027,2.08423356 Z" id="Rectangle-12" stroke-width="3.5"></path>
            </g>
        </g>
    </g>
</svg>