<?xml version="1.0" encoding="UTF-8"?>
<svg width="75px" height="75px" viewBox="0 0 75 75" version="1.1" xmlns="http://www.w3.org/2000/svg" xmlns:xlink="http://www.w3.org/1999/xlink">
    <!-- Generator: Sketch 51.3 (57544) - http://www.bohemiancoding.com/sketch -->
    <title>Legal Categories / dispute</title>
    <desc>Created with Sketch.</desc>
    <defs></defs>
    <g id="icons" stroke="none" stroke-width="1" fill="none" fill-rule="evenodd">
        <g id="Legal-Categories-/-dispute" fill="#999999">
            <g id="Shape-Copy-104">
                <path d="M37.5,75 C16.78875,75 0,58.21125 0,37.5 C0,16.78875 16.78875,0 37.5,0 C58.21125,0 75,16.78875 75,37.5 C75,58.21125 58.21125,75 37.5,75 Z M37.5,7.5 C20.9325,7.5 7.5,20.9325 7.5,37.5 C7.5,54.069375 20.9325,67.5 37.5,67.5 C54.069375,67.5 67.5,54.069375 67.5,37.5 C67.5,20.9325 54.069375,7.5 37.5,7.5 Z M37.5,45 C35.43,45 33.75,43.32 33.75,41.25 L33.75,22.5 C33.75,20.43 35.43,18.75 37.5,18.75 C39.57,18.75 41.25,20.43 41.25,22.5 L41.25,41.25 C41.25,43.32 39.57,45 37.5,45 Z M37.5,48.75 C39.57,48.75 41.25,50.43 41.25,52.5 C41.25,54.57 39.57,56.25 37.5,56.25 C35.43,56.25 33.75,54.57 33.75,52.5 C33.75,50.43 35.43,48.75 37.5,48.75 Z" fill-rule="nonzero"></path>
            </g>
        </g>
    </g>
</svg>