<?xml version="1.0" encoding="UTF-8"?>
<svg width="76px" height="75px" viewBox="0 0 76 75" version="1.1" xmlns="http://www.w3.org/2000/svg" xmlns:xlink="http://www.w3.org/1999/xlink">
    <!-- Generator: Sketch 51.3 (57544) - http://www.bohemiancoding.com/sketch -->
    <title>Legal Categories / divorce</title>
    <desc>Created with Sketch.</desc>
    <defs></defs>
    <g id="icons" stroke="none" stroke-width="1" fill="none" fill-rule="evenodd">
        <g id="Legal-Categories-/-divorce" transform="translate(-1.000000, 0.000000)" fill="#999999">
            <g id="Shape-Copy-507">
                <path d="M72.167413,25.1183333 L65.065,32.19 C61.0928043,36.145 55.2541957,37.0783333 50.3797609,35.0266667 L56.0459565,29.3866667 C57.6060435,29.2816667 59.1376739,28.6633333 60.3311739,27.4766667 L67.433587,20.405 C70.0482391,17.8016667 70.0482391,13.58 67.433587,10.9766667 L65.065,8.62 C62.4503478,6.015 58.2103261,6.015 55.5956739,8.62 L48.4932609,15.6916667 C47.3014348,16.8783333 46.680413,18.405 46.5749565,19.9583333 L40.9104348,25.5983333 C38.8481739,20.745 39.7872391,14.9316667 43.7594348,10.9766667 L50.8618478,3.905 C56.0911522,-1.30166667 64.5695217,-1.30166667 69.8005,3.905 L72.167413,6.26166667 C77.3967174,11.4683333 77.3967174,19.9116667 72.167413,25.1183333 Z M10.3297174,53.69 C7.71506522,56.2933333 7.71506522,60.515 10.3297174,63.1183333 L12.6966304,65.475 C15.3112826,68.08 19.5513043,68.08 22.1659565,65.475 L29.2683696,58.405 C30.4601957,57.2166667 31.0812174,55.6916667 31.1866739,54.1366667 L36.8511957,48.4966667 C38.9117826,53.35 37.9743913,59.1633333 34.0021957,63.1183333 L26.8997826,70.19 C21.6704783,75.3966667 13.1921087,75.3966667 7.96280435,70.19 L5.5958913,67.8333333 C0.364913043,62.625 0.364913043,54.1833333 5.5958913,48.9766667 L12.6966304,41.9066667 C16.6688261,37.9516667 22.5074348,37.0166667 27.3818696,39.07 L21.7173478,44.71 C20.1572609,44.8116667 18.6239565,45.43 17.4321304,46.6183333 L10.3297174,53.69 Z M43.5241996,36.659559 L40.7855466,30.4321962 L51.3547648,19.909559 C52.6620909,18.6078923 54.7812648,18.6078923 56.0885909,19.909559 C57.395917,21.2112257 57.395917,23.3212257 56.0885909,24.6228923 L43.5241996,36.659559 Z M35.8124089,44.5798188 L27.2826269,53.0720078 C25.9753009,54.3736745 23.8561269,54.3736745 22.5488009,53.0720078 C21.2414748,51.7703412 21.2414748,49.6603412 22.5488009,48.3586745 L33.0442455,37.9086648 L35.8124089,44.5798188 Z M51.8913043,46.6666667 C51.8913043,45.7461922 52.6383908,45 53.5611073,45 L65.2867188,45 C66.2089254,45 66.9565217,45.7397747 66.9565217,46.6666667 C66.9565217,47.5871412 66.2094353,48.3333333 65.2867188,48.3333333 L53.5611073,48.3333333 C52.6389007,48.3333333 51.8913043,47.5935587 51.8913043,46.6666667 Z M11.7173913,30 C11.7173913,30.9204745 12.4644778,31.6666667 13.3871943,31.6666667 L25.1128058,31.6666667 C26.0350123,31.6666667 26.7826087,30.926892 26.7826087,30 C26.7826087,29.0795255 26.0355222,28.3333333 25.1128058,28.3333333 L13.3871943,28.3333333 C12.4649876,28.3333333 11.7173913,29.073108 11.7173913,30 Z M47.7065217,67.5 C46.7820452,67.5 46.0326087,66.7561477 46.0326087,65.8374257 L46.0326087,54.1625743 C46.0326087,53.24436 46.7755998,52.5 47.7065217,52.5 C48.6309983,52.5 49.3804348,53.2438523 49.3804348,54.1625743 L49.3804348,65.8374257 C49.3804348,66.75564 48.6374437,67.5 47.7065217,67.5 Z M30.9673913,10.8333333 C31.8918679,10.8333333 32.6413043,11.5771857 32.6413043,12.4959078 L32.6413043,24.170759 C32.6413043,25.0889733 31.8983133,25.8333333 30.9673913,25.8333333 C30.0429147,25.8333333 29.2934783,25.089481 29.2934783,24.170759 L29.2934783,12.4959078 C29.2934783,11.5776933 30.0364693,10.8333333 30.9673913,10.8333333 Z" fill-rule="nonzero"></path>
            </g>
        </g>
    </g>
</svg>