<?xml version="1.0" encoding="UTF-8"?>
<svg width="79px" height="74px" viewBox="0 0 79 74" version="1.1" xmlns="http://www.w3.org/2000/svg" xmlns:xlink="http://www.w3.org/1999/xlink">
    <!-- Generator: Sketch 51.3 (57544) - http://www.bohemiancoding.com/sketch -->
    <title>Legal Categories / heart</title>
    <desc>Created with Sketch.</desc>
    <defs></defs>
    <g id="icons" stroke="none" stroke-width="1" fill="none" fill-rule="evenodd">
        <g id="Legal-Categories-/-heart" fill="#999999">
            <g id="Shape-Copy-151">
                <path d="M71.8821,43.3598684 L71.903825,43.3598684 L71.706325,43.5532895 C71.49895,43.7664474 71.2817,43.9717105 71.06445,44.1789474 L42.3835,72.1559211 C40.79165,73.6460526 38.210325,73.6460526 36.618475,72.1559211 L7.95135,44.1927632 C7.7262,43.9796053 7.50105,43.7664474 7.285775,43.5434211 L7.09815,43.3598684 L7.119875,43.3598684 C2.7176,38.7552632 0,32.5282895 0,25.6578947 C0,11.4868421 11.4945,0 25.675,0 C30.7705,0 35.50655,1.50197368 39.5,4.05986842 C43.49345,1.50197368 48.2295,0 53.325,0 C67.503525,0 79,11.4868421 79,25.6578947 C79,32.5282895 76.2824,38.7552632 71.8821,43.3598684 Z M53.325,7.89473684 C47.737725,7.89473684 42.756775,10.4763158 39.5,14.5046053 C36.24125,10.4763158 31.262275,7.89473684 25.675,7.89473684 C15.85925,7.89473684 7.9,15.8467105 7.9,25.6578947 C7.9,30.2151316 9.632075,34.3559211 12.45435,37.5 L12.40695,37.5 L13.021175,38.1236842 C13.072525,38.175 13.123875,38.2282895 13.175225,38.2796053 L39.5,64.9855263 L65.832675,38.2717105 C65.8781,38.2282895 65.92155,38.1828947 65.965,38.1375 L66.595025,37.5 L66.547625,37.5 C69.3699,34.3559211 71.1,30.2151316 71.1,25.6578947 C71.1,15.8467105 63.142725,7.89473684 53.325,7.89473684 Z" fill-rule="nonzero"></path>
            </g>
        </g>
    </g>
</svg>