<?xml version="1.0" encoding="UTF-8"?>
<svg width="82px" height="73px" viewBox="0 0 82 73" version="1.1" xmlns="http://www.w3.org/2000/svg" xmlns:xlink="http://www.w3.org/1999/xlink">
    <!-- Generator: Sketch 51.3 (57544) - http://www.bohemiancoding.com/sketch -->
    <title>Legal Categories / home</title>
    <desc>Created with Sketch.</desc>
    <defs></defs>
    <g id="icons" stroke="none" stroke-width="1" fill="none" fill-rule="evenodd">
        <g id="Legal-Categories-/-home" transform="translate(0.000000, -1.000000)" fill="#999999">
            <g id="Shape-Copy">
                <path d="M79.2572791,44.5057692 L71.5363488,44.5461538 L71.5363488,65.9134615 C71.5363488,70.1615385 68.0793023,73.6057692 63.8154186,73.6057692 L17.4898372,73.6057692 C13.2259535,73.6057692 9.76890698,70.1615385 9.76890698,65.9134615 L9.76890698,44.7384615 L2.04797674,44.7519231 C-0.083,44.7557692 -0.640837209,43.4923077 0.804906977,41.9307692 L35.6919302,4.25769231 C38.5834186,1.13461538 43.2623023,1.14230769 46.1422093,4.275 L80.51,41.65 C81.9499535,43.2153846 81.3882558,44.4942308 79.2572791,44.5057692 Z M43.4109302,13.0192308 C41.9941395,11.4307692 39.6933023,11.4269231 38.2726512,13.0096154 L17.4898372,36.1442308 L17.4898372,65.9134615 L32.9316977,65.9134615 L32.9316977,46.6826923 C32.9316977,44.5596154 34.661186,42.8365385 36.7921628,42.8365385 L44.513093,42.8365385 C46.6440698,42.8365385 48.3735581,44.5596154 48.3735581,46.6826923 L48.3735581,65.9134615 L63.8154186,65.9134615 L63.8154186,35.8923077 L43.4109302,13.0192308 Z" fill-rule="nonzero"></path>
            </g>
        </g>
    </g>
</svg>