<?xml version="1.0" encoding="UTF-8"?>
<svg width="57px" height="59px" viewBox="0 0 57 59" version="1.1" xmlns="http://www.w3.org/2000/svg" xmlns:xlink="http://www.w3.org/1999/xlink">
    <!-- Generator: Sketch 51.3 (57544) - http://www.bohemiancoding.com/sketch -->
    <title>Legal Categories / img-remodel</title>
    <desc>Created with Sketch.</desc>
    <defs></defs>
    <g id="icons" stroke="none" stroke-width="1" fill="none" fill-rule="evenodd">
        <g id="Legal-Categories-/-img-remodel" transform="translate(-13.000000, -9.000000)" fill="#999999">
            <g id="Shape-Copy-2">
                <path d="M35.7393852,33.1730769 L35.7393852,29.9978805 L35.7393852,19.4101957 C34.0485195,17.9331025 31.8122405,15.6710596 29.0929428,14.8813742 C26.5757927,14.1503927 23.2310804,16.6645239 20.6192677,17.8786672 C18.3046301,18.9546639 16.56,18.7755105 16.56,17.8786672 C16.56,14.2941268 34.387599,5.76923077 37.9680195,5.76923077 C40.5462619,5.76923077 44.4654016,7.35783679 46.4573786,9.58560629 C47.933284,7.4556227 51.0659701,5.76923077 53.6286823,5.76923077 L50.6226312,5.76923077 C53.2831906,5.76923077 55.44,7.93103807 55.44,10.5888547 L55.44,14.404786 C55.44,17.0665908 53.3061547,18.8730345 50.6930982,18.4427485 L53.5582153,18.9145408 C51.3329138,18.5481055 48.6662332,16.9147328 47.0715064,15.0302827 C46.4191157,16.5845233 45.3255738,18.242096 44.0488427,19.2626348 C43.2478957,19.9028616 42.3740271,20.2700388 41.501985,20.4804392 L41.501985,29.9978805 L41.501985,33.1730769 L35.7393852,33.1730769 Z M34.715864,37.1602962 C33.6301844,37.5606244 32.8580855,38.5790207 32.8580855,39.7711212 C32.8580855,39.7711212 31.4174354,47.6218258 31.4174354,50.940539 L31.4174354,64.8269166 C31.4174354,70.2245378 33.0511324,69.1420578 38.6206851,69.1420578 C44.1902377,69.1420578 45.8239349,70.2245378 45.8239349,64.8269166 L45.8239349,50.940539 C45.8239349,47.6204296 44.3832849,39.7711212 44.3832849,39.7711212 C44.3832849,38.5790207 43.611186,37.5606244 42.5255062,37.1602962 L34.715864,37.1602962 Z" fill-rule="nonzero" transform="translate(36.000000, 37.500000) rotate(40.000000) translate(-36.000000, -37.500000) "></path>
            </g>
        </g>
    </g>
</svg>