<?xml version="1.0" encoding="UTF-8"?>
<svg width="69px" height="75px" viewBox="0 0 69 75" version="1.1" xmlns="http://www.w3.org/2000/svg" xmlns:xlink="http://www.w3.org/1999/xlink">
    <!-- Generator: Sketch 51.3 (57544) - http://www.bohemiancoding.com/sketch -->
    <title>Legal Categories / key</title>
    <desc>Created with Sketch.</desc>
    <defs></defs>
    <g id="icons" stroke="none" stroke-width="1" fill="none" fill-rule="evenodd">
        <g id="Legal-Categories-/-key" fill="#999999">
            <g id="Shape-Copy-235">
                <path d="M61.4514,43.7684211 C52.3926857,52.8276316 38.2575429,53.6625 28.2288857,46.3263158 L11.5880571,62.6447368 L14.4348,65.4355263 C16.0060286,66.9769737 16.0060286,69.4756579 14.4348,71.0190789 L11.5880571,73.8098684 C10.0148571,75.3513158 7.4658,75.3513158 5.8926,73.8098684 L3.04585714,71.0190789 L1.14934286,69.1578947 C-0.946285714,67.1013158 -0.0985714286,62.9368421 3.04585714,59.8539474 L22.5965143,40.6855263 C15.3042,30.6592105 16.1499429,16.5552632 25.1928857,7.51184211 C35.2038,-2.50065789 51.4365429,-2.50065789 61.4494286,7.51184211 C71.4623143,17.5243421 71.4642857,33.7559211 61.4514,43.7684211 Z M55.8486,13.0578947 C48.9150857,6.10855263 37.6720286,6.10855263 30.7385143,13.0578947 C23.8030286,20.0072368 23.8030286,31.2730263 30.7385143,38.2223684 C37.6720286,45.1717105 48.9150857,45.1717105 55.8486,38.2223684 C62.7840857,31.2710526 62.7840857,20.0072368 55.8486,13.0578947 Z" fill-rule="nonzero"></path>
            </g>
        </g>
    </g>
</svg>