<?xml version="1.0" encoding="UTF-8"?>
<svg width="75px" height="75px" viewBox="0 0 75 75" version="1.1" xmlns="http://www.w3.org/2000/svg" xmlns:xlink="http://www.w3.org/1999/xlink">
    <!-- Generator: Sketch 51.3 (57544) - http://www.bohemiancoding.com/sketch -->
    <title>Legal Categories / liferaft</title>
    <desc>Created with Sketch.</desc>
    <defs></defs>
    <g id="icons" stroke="none" stroke-width="1" fill="none" fill-rule="evenodd">
        <g id="Legal-Categories-/-liferaft" fill="#999999">
            <g id="Shape">
                <path d="M64.01625,64.01625 C60.1275,67.905 55.370625,70.903125 50.083125,72.789375 C46.145625,74.195625 41.92125,75 37.5,75 C27.144375,75 17.77125,70.801875 10.98375,64.01625 C9.901875,62.934375 8.91375,61.764375 7.96875,60.556875 C2.9925,54.195 0,46.205625 0,37.5 C0,27.144375 4.198125,17.769375 10.98375,10.98375 C11.7525,10.215 12.56625,9.489375 13.39875,8.79 C13.485,8.716875 13.56,8.634375 13.64625,8.565 C13.78125,8.4525 13.9275,8.360625 14.0625,8.251875 C20.484375,3.099375 28.625625,0 37.5,0 C47.855625,0 57.230625,4.198125 64.01625,10.98375 C70.80375,17.769375 75,27.144375 75,37.5 C75,47.855625 70.80375,57.230625 64.01625,64.01625 Z M16.288125,16.28625 C10.858125,21.71625 7.5,29.21625 7.5,37.5 L22.5,37.5 C22.5,33.358125 24.18,29.608125 26.893125,26.893125 L16.288125,16.28625 Z M16.288125,58.71375 C21.71625,64.141875 29.21625,67.5 37.5,67.5 L37.5,52.5 C33.358125,52.5 29.608125,50.82 26.893125,48.106875 L16.288125,58.71375 Z M30,37.5 C30,41.641875 33.358125,45 37.5,45 C41.641875,45 45,41.641875 45,37.5 C45,33.358125 41.641875,30 37.5,30 C33.358125,30 30,33.358125 30,37.5 Z M37.5,7.5 L37.5,22.5 C41.641875,22.5 45.391875,24.18 48.106875,26.893125 L58.71375,16.28625 C53.28375,10.858125 45.78375,7.5 37.5,7.5 Z M52.5,37.5 C52.5,41.641875 50.82,45.391875 48.106875,48.106875 L58.71375,58.71375 C64.141875,53.28375 67.5,45.78375 67.5,37.5 L52.5,37.5 Z" fill-rule="nonzero"></path>
            </g>
        </g>
    </g>
</svg>