<?xml version="1.0" encoding="UTF-8"?>
<svg width="84px" height="75px" viewBox="0 0 84 75" version="1.1" xmlns="http://www.w3.org/2000/svg" xmlns:xlink="http://www.w3.org/1999/xlink">
    <!-- Generator: Sketch 51.3 (57544) - http://www.bohemiancoding.com/sketch -->
    <title>Legal Categories / loanmoney</title>
    <desc>Created with Sketch.</desc>
    <defs></defs>
    <g id="icons" stroke="none" stroke-width="1" fill="none" fill-rule="evenodd">
        <g id="Legal-Categories-/-loanmoney" fill="#999999">
            <g id="Shape">
                <path d="M32.9557656,25.5681818 L8.55563969,25.5681818 C3.82758093,25.5681818 0,29.3852973 0,34.0939476 L0,66.4742342 C0,71.1827973 3.83049036,75 8.55563969,75 L75.4443603,75 C80.1724191,75 84,71.1828845 84,66.4742342 L84,34.0939476 C84,29.3853845 80.1695097,25.5681818 75.4443603,25.5681818 L52.9617633,25.5681818 L67.0172009,11.5926047 C69.2268862,9.39547445 69.2268862,5.83392924 67.0157863,3.63679904 L65.0154694,1.64784764 C62.8057843,-0.549282547 59.2224727,-0.549282547 57.0127874,1.64784764 L53.2427419,5.39647246 L56.1838018,2.47071651 L54.183485,0.481765103 L41.0088381,13.5829627 L43.0091549,15.5719141 L32.9557656,25.5681818 Z M46.1046204,32.3863636 L75.4443603,32.3863636 C76.3789917,32.3863636 77.1428571,33.1475673 77.1428571,34.0939476 L77.1428571,66.4742342 C77.1428571,67.4220201 76.3805758,68.1818182 75.4443603,68.1818182 L8.55563969,68.1818182 C7.62100838,68.1818182 6.85714286,67.4206145 6.85714286,66.4742342 L6.85714286,34.0939476 L0,34.0939476 L6.85714286,34.0939476 C6.85714286,33.1461617 7.61942417,32.3863636 8.55563969,32.3863636 L26.0986227,32.3863636 L25.0034741,33.4752898 C23.4615043,35.0099052 23.0201331,37.2042222 23.6340917,39.1411289 L16.0020483,44.4159291 L12,56.3510443 L24.0033156,52.3731414 L29.3082578,44.7844619 C31.2562325,45.3935255 33.4630884,44.9560687 35.0064729,43.4214535 L46.1046204,32.3863636 Z M72,57.9545455 L36,57.9545455 L36,54.5454545 L72,54.5454545 L72,57.9545455 Z M72,49.4318182 L49.7142857,49.4318182 L49.7142857,46.0227273 L72,46.0227273 L72,49.4318182 Z M22.4174916,45.4104049 L19.8300946,46.5750808 L17.9896334,50.537511 L21.8304113,48.5640322 L23.0031573,45.992743 L22.4174916,45.4104049 Z M47.0112033,19.5512235 L29.0055225,37.4531927 L31.0058393,39.4421441 L49.0115201,21.5387683 L47.0112033,19.5512235 Z M61.0148357,5.62575044 L49.0115201,17.5608655 L51.011837,19.5498169 L63.0151526,7.61329524 L61.0148357,5.62575044 Z" fill-rule="nonzero"></path>
            </g>
        </g>
    </g>
</svg>