<?xml version="1.0" encoding="UTF-8"?>
<svg width="70px" height="74px" viewBox="0 0 70 74" version="1.1" xmlns="http://www.w3.org/2000/svg" xmlns:xlink="http://www.w3.org/1999/xlink">
    <!-- Generator: Sketch 51.3 (57544) - http://www.bohemiancoding.com/sketch -->
    <title>Legal Categories / pics_people</title>
    <desc>Created with Sketch.</desc>
    <defs></defs>
    <g id="icons" stroke="none" stroke-width="1" fill="none" fill-rule="evenodd">
        <g id="Legal-Categories-/-pics_people" fill="#999999">
            <g id="Shape-Copy-122">
                <path d="M69.5658,20.0857143 L56.702375,68.3821429 C55.687075,72.1928571 51.7945,74.4535714 48.00665,73.4339286 L33.123275,69.4214286 L7.1,69.4214286 C3.179025,69.4214286 0,66.2232143 0,62.2785714 L0,12.2785714 C0,8.33392857 3.179025,5.13571429 7.1,5.13571429 L14.762675,5.13571429 C15.8472,1.42857143 19.667,-0.758928571 23.39805,0.246428571 L41.533225,5.13571429 L49.7,5.13571429 C52.453025,5.13571429 54.813775,6.72857143 55.9906,9.03392857 L64.544325,11.3392857 C68.332175,12.3571429 70.5811,16.275 69.5658,20.0857143 Z M49.7,12.2767857 L7.1,12.2767857 L7.1,62.2767857 L49.7,62.2767857 L49.7,12.2767857 Z M56.8,16.6446429 L56.8,40.4160714 L62.7072,18.2375 L56.8,16.6446429 Z M28.380475,40.8607143 C22.507,40.85 17.75,36.0553571 17.75,30.1410714 C17.75,24.2196429 22.51765,19.4196429 28.4,19.4196429 C34.28235,19.4196429 39.05,24.2196429 39.05,30.1410714 C39.05,36.0553571 34.293,40.85 28.419525,40.8607143 C38.213975,40.8732143 46.15,49.2178571 46.15,55.1196429 L38.69855,55.1196429 C37.525275,51.7339286 33.3771,48.0071429 28.4,48.0071429 C23.4229,48.0071429 19.274725,51.7357143 18.10145,55.1196429 L10.65,55.1196429 C10.65,49.2178571 18.586025,40.8732143 28.380475,40.8607143 Z M31.955325,30.1392857 C31.955325,28.1678571 30.36315,26.5714286 28.4,26.5714286 C26.43685,26.5714286 24.844675,28.1696429 24.844675,30.1392857 C24.844675,32.1107143 26.43685,33.7089286 28.4,33.7089286 C30.36315,33.7089286 31.955325,32.1089286 31.955325,30.1392857 Z" fill-rule="nonzero"></path>
            </g>
        </g>
    </g>
</svg>