<?xml version="1.0" encoding="UTF-8"?>
<svg width="93px" height="73px" viewBox="0 0 93 73" version="1.1" xmlns="http://www.w3.org/2000/svg" xmlns:xlink="http://www.w3.org/1999/xlink">
    <!-- Generator: Sketch 51.3 (57544) - http://www.bohemiancoding.com/sketch -->
    <title>Legal Categories / piggybank</title>
    <desc>Created with Sketch.</desc>
    <defs></defs>
    <g id="icons" stroke="none" stroke-width="1" fill="none" fill-rule="evenodd">
        <g id="Legal-Categories-/-piggybank" fill="#999999">
            <g id="Shape-Copy">
                <path d="M88.2392944,37.5 C87.3389752,37.8138158 84.8418263,38.3131579 82.5841029,38.7315789 C80.9397837,47.6585526 75.1757625,55.4210526 66.9482306,60.5565789 L70.4129752,67.5690789 C70.6899965,68.6052632 70.0765923,69.6710526 69.0397412,69.9473684 L57.7867412,72.9651316 C56.7498901,73.2434211 55.6853369,72.6276316 55.4083157,71.5914474 L55.026422,65.6565789 C51.385571,66.5921053 47.5231029,67.1052632 43.5201454,67.1052632 C40.8528263,67.1052632 38.2567412,66.8625 35.7378263,66.4361842 L35.446954,70.9519737 C35.1659752,72.0059211 34.0836135,72.6296053 33.0329114,72.3473684 L21.603805,69.2822368 C20.5511242,69 19.9278263,67.9184211 20.208805,66.8664474 L22.6070178,62.0131579 C16.138571,58.5809211 10.9127625,53.6171053 7.65974119,47.7098684 L5.5464646,49.5848684 C4.49378374,49.8671053 3.41340077,49.2434211 3.13242204,48.1894737 L0.0673794894,36.75 C-0.213599234,35.6980263 0.409698638,34.6144737 1.46237949,34.3322368 L4.00108162,34.8532895 C3.98129438,34.4171053 3.9239114,33.9927632 3.9239114,33.5526316 C3.9239114,26.7532895 6.32806034,20.4355263 10.429954,15.15 C7.23431566,11.7118421 5.40795396,7.89473684 5.40795396,7.89473684 C5.40795396,7.89473684 6.3419114,5.24802632 13.2951454,5.92105263 C15.1373369,6.10065789 16.6886561,6.88421053 17.9847199,7.93026316 C24.880571,2.99013158 33.7828476,0 43.5201454,0 C65.2029965,0 82.7898901,14.775 83.0866986,33.0888158 C85.2078901,33.2881579 87.4181242,32.6703947 88.2392944,29.6052632 C89.994422,23.0565789 85.0337625,25.7190789 84.2956986,23.6842105 C83.5556561,21.6493421 90.2655071,20.3052632 92.1828901,25.6578947 C94.8185497,33.0118421 90.0260816,36.8782895 88.2392944,37.5 Z M43.5181667,7.89473684 C26.0242731,7.89473684 11.8427625,19.3835526 11.8427625,33.5526316 C8.16233694,45.4302632 21.8551029,56.2105263 37.0813795,58.6776316 C39.1610178,59.025 41.3118901,59.2105263 43.5181667,59.2105263 C61.0120603,59.2105263 75.193571,47.7236842 75.193571,33.5526316 C75.1955497,19.3835526 61.0140391,7.89473684 43.5181667,7.89473684 Z M57.337571,23.6703947 C53.7699327,21.2407895 48.8983157,19.7368421 43.5181667,19.7368421 C42.8533157,19.6934211 42.1686774,19.725 41.4781029,19.8098684 C37.5305497,20.0940789 33.9292731,21.1855263 31.0146135,22.8453947 L26.2914008,16.5631579 C31.0225284,13.6164474 37.0022306,11.8421053 43.5181667,11.8421053 C50.1013795,11.8421053 56.1384646,13.6480263 60.8933369,16.65 L57.3692306,23.6842105 C57.3692306,23.6842105 57.3415284,23.6723684 57.337571,23.6703947 Z M19.7833795,31.5789474 C17.604805,31.5789474 15.8397837,29.8125 15.8397837,27.6315789 C15.8397837,25.4506579 17.604805,23.6842105 19.7833795,23.6842105 C21.961954,23.6842105 23.7269752,25.4526316 23.7269752,27.6315789 C23.7269752,29.8125 21.9599752,31.5789474 19.7833795,31.5789474 Z" fill-rule="nonzero"></path>
            </g>
        </g>
    </g>
</svg>