<?xml version="1.0" encoding="UTF-8"?>
<svg width="75px" height="75px" viewBox="0 0 75 75" version="1.1" xmlns="http://www.w3.org/2000/svg" xmlns:xlink="http://www.w3.org/1999/xlink">
    <!-- Generator: Sketch 51.3 (57544) - http://www.bohemiancoding.com/sketch -->
    <title>Legal Categories / pricetag</title>
    <desc>Created with Sketch.</desc>
    <defs></defs>
    <g id="icons" stroke="none" stroke-width="1" fill="none" fill-rule="evenodd">
        <g id="Legal-Categories-/-pricetag" fill="#999999">
            <g id="Shape-Copy-107">
                <path d="M72.5769231,45.1365385 L45.3807692,72.3346154 C42.3769231,75.3384615 37.525,75.3211538 34.5442308,72.2942308 L7.46538462,44.7923077 C5.975,43.2788462 4.76730769,40.3288462 4.76730769,38.2057692 L4.76730769,11.8557692 C4.76730769,10.5903846 5.10192308,9.41538462 5.64230769,8.36153846 L0,2.71923077 L2.71923077,0 L8.18269231,5.46346154 C9.40576923,4.64423077 10.875,4.16346154 12.4576923,4.16346154 L38.8076923,4.16346154 C40.9326923,4.16346154 43.8692308,5.38461538 45.3673077,6.89038462 L72.5903846,34.2480769 C75.5865385,37.2576923 75.5807692,42.1326923 72.5769231,45.1365385 Z M39.0442308,11.8403846 L14.5615385,11.8403846 L22.2961538,19.575 C25.2634615,17.7326923 29.2057692,18.0826923 31.7807692,20.6596154 C34.7846154,23.6634615 34.7846154,28.5326923 31.7807692,31.5365385 C28.7769231,34.5403846 23.9076923,34.5403846 20.9019231,31.5365385 C18.4153846,29.05 18.0192308,25.2961538 19.6519231,22.3692308 L12.4711538,15.1923077 L12.4711538,38.7653846 L39.9403846,66.8942308 L67.1365385,39.6980769 L39.0442308,11.8403846 Z" fill-rule="nonzero"></path>
            </g>
        </g>
    </g>
</svg>