<?xml version="1.0" encoding="UTF-8"?>
<svg width="83px" height="75px" viewBox="0 0 83 75" version="1.1" xmlns="http://www.w3.org/2000/svg" xmlns:xlink="http://www.w3.org/1999/xlink">
    <!-- Generator: Sketch 51.3 (57544) - http://www.bohemiancoding.com/sketch -->
    <title>Legal Categories / speechbubble</title>
    <desc>Created with Sketch.</desc>
    <defs></defs>
    <g id="icons" stroke="none" stroke-width="1" fill="none" fill-rule="evenodd">
        <g id="Legal-Categories-/-speechbubble" fill="#999999">
            <g id="Shape-Copy-67">
                <path d="M74.7,58.3333333 L8.3,58.3333333 C3.716325,58.3333333 0,54.6020833 0,50 L0,8.33333333 C0,3.73125 3.716325,0 8.3,0 L74.7,0 C79.283675,0 83,3.73125 83,8.33333333 L83,50 C83,54.6020833 79.283675,58.3333333 74.7,58.3333333 Z M74.7,8.33333333 L8.3,8.33333333 L8.3,50 L74.7,50 L74.7,8.33333333 Z M37.219275,58.3333333 L25.910525,72.6395833 C23.059475,76.24375 20.75,75.4354167 20.75,70.8333333 L20.75,58.3333333 L37.219275,58.3333333 Z" fill-rule="nonzero"></path>
            </g>
        </g>
    </g>
</svg>