<?xml version="1.0" encoding="UTF-8"?>
<svg width="59px" height="74px" viewBox="0 0 59 74" version="1.1" xmlns="http://www.w3.org/2000/svg" xmlns:xlink="http://www.w3.org/1999/xlink">
    <!-- Generator: Sketch 51.3 (57544) - http://www.bohemiancoding.com/sketch -->
    <title>Legal Categories / will</title>
    <desc>Created with Sketch.</desc>
    <defs></defs>
    <g id="icons" stroke="none" stroke-width="1" fill="none" fill-rule="evenodd">
        <g id="Legal-Categories-/-will" fill="#999999">
            <g id="Shape-Copy-43">
                <path d="M52.4444444,58.6956522 L6.55555556,58.6956522 C2.93525,58.6956522 0,55.7755435 0,52.173913 L0,6.52173913 C0,2.9201087 2.93525,0 6.55555556,0 L52.4444444,0 C56.06475,0 59,2.9201087 59,6.52173913 L59,52.173913 C59,55.7755435 56.06475,58.6956522 52.4444444,58.6956522 Z M52.4444444,6.52173913 L6.55555556,6.52173913 L6.55555556,52.173913 L52.4444444,52.173913 L52.4444444,6.52173913 Z M45.8888889,16.3043478 L13.1111111,16.3043478 L13.1111111,13.0434783 L45.8888889,13.0434783 L45.8888889,16.3043478 Z M45.8888889,22.826087 L13.1111111,22.826087 L13.1111111,19.5652174 L45.8888889,19.5652174 L45.8888889,22.826087 Z M19.6666667,71.7391304 C19.6666667,73.5391304 18.62925,73.9679348 17.3492778,72.6945652 L13.1111111,68.4798913 L8.87294444,72.6945652 C7.59297222,73.9679348 6.55555556,73.5407609 6.55555556,71.7391304 L6.55555556,58.6956522 L19.6666667,58.6956522 L19.6666667,71.7391304 Z" fill-rule="nonzero"></path>
            </g>
        </g>
    </g>
</svg>